<?xml version="1.0" encoding="UTF-8"?>
<svg version="1.1" xmlns="http://www.w3.org/2000/svg" width="2040" height="1297">
<path d="M0 0 C2.97 0 5.94 0 9 0 C9.99 2.97 9.99 2.97 11 6 C11.66 6 12.32 6 13 6 C13 6.66 13 7.32 13 8 C13.66 8 14.32 8 15 8 C16.65625 9.71484375 16.65625 9.71484375 18.5 11.9375 C20.88926999 14.92045179 20.88926999 14.92045179 24 17 C24.66666667 18.66666667 25.33333333 20.33333333 26 22 C26.66 22.33 27.32 22.66 28 23 C28.33 23.99 28.66 24.98 29 26 C29.98478191 27.01498994 30.98862455 28.01150635 32 29 C33.5674115 30.97988821 35.10670468 32.98220035 36.625 35 C37.42164063 36.051875 38.21828125 37.10375 39.0390625 38.1875 C41 41 41 41 42 44 C42.66 44 43.32 44 44 44 C45.36363208 45.97946592 46.69418644 47.9819245 48 50 C48.804375 50.7734375 48.804375 50.7734375 49.625 51.5625 C51.44437223 53.46457097 52.04175874 55.57245547 53 58 C53.66 58.33 54.32 58.66 55 59 C55 59.99 55 60.98 55 62 C55.99 62.33 56.98 62.66 58 63 C58 63.66 58 64.32 58 65 C58.99 65.33 59.98 65.66 61 66 C61 66.99 61 67.98 61 69 C61.66 69 62.32 69 63 69 C63 69.99 63 70.98 63 72 C63.66 72 64.32 72 65 72 C68 75.46153846 68 75.46153846 68 78 C68.99 78.33 69.98 78.66 71 79 C74 83.33333333 74 83.33333333 74 86 C74.66 86 75.32 86 76 86 C79 89.46153846 79 89.46153846 79 92 C79.66 92 80.32 92 81 92 C81 92.99 81 93.98 81 95 C81.66 95 82.32 95 83 95 C87 99.35294118 87 99.35294118 87 103 C87.66 103 88.32 103 89 103 C90.37073786 104.63604196 91.70055256 106.30678061 93 108 C93.556875 108.53625 94.11375 109.0725 94.6875 109.625 C96 111 96 111 97 114 C97.7425 114.7425 97.7425 114.7425 98.5 115.5 C100 117 100 117 101 120 C101.78375 120.598125 102.5675 121.19625 103.375 121.8125 C107.12230646 124.93525538 108.48256019 128.44768057 110 133 C110.99 133 111.98 133 113 133 C114.74627478 135.61941217 115.38722388 137.03824877 116 140 C116.66 140 117.32 140 118 140 C119.72363822 142.51363908 120.95768929 144.88364554 122 147.75 C122.33 148.4925 122.66 149.235 123 150 C123.99 150.33 124.98 150.66 126 151 C127.36363208 152.97946592 128.69418644 154.9819245 130 157 C130.70125 157.70125 131.4025 158.4025 132.125 159.125 C134.0024776 161.0024776 134.85960438 162.63775194 136 165 C136.66 165.33 137.32 165.66 138 166 C138.33 166.99 138.66 167.98 139 169 C140.2065625 169.9590625 140.2065625 169.9590625 141.4375 170.9375 C143.94606218 172.95658663 144.75683561 174.13115909 146 177 C146.66 177.66 147.32 178.32 148 179 C149.71503261 181.67545087 150.9919071 183.9757213 152 187 C152.66 187 153.32 187 154 187 C154.33 188.32 154.66 189.64 155 191 C155.66 191 156.32 191 157 191 C157.33 192.32 157.66 193.64 158 195 C158.66 195 159.32 195 160 195 C162.17204 197.96187272 163.83561997 200.50685991 165 204 C165.99 204.33 166.98 204.66 168 205 C170.32265612 207.58072903 171 208.45176068 171 212 C171.66 212 172.32 212 173 212 C176.06853578 214.40146279 177.28861974 217.57723947 179 221 C179.66 221.33 180.32 221.66 181 222 C181.33 222.99 181.66 223.98 182 225 C182.66 225.495 183.32 225.99 184 226.5 C186 228 186 228 187 231 C187.66 231.33 188.32 231.66 189 232 C190.00739746 233.66220581 191.00522955 235.33020674 192 237 C195.32988302 242.22899663 195.32988302 242.22899663 200 246 C199.67 246.66 199.34 247.32 199 248 C199.99 248.33 200.98 248.66 202 249 C203.03013277 250.64821244 204.03114628 252.31503702 205 254 C205.66 254.33 206.32 254.66 207 255 C208 257 209 259 210 261 C210.556875 261.556875 211.11375 262.11375 211.6875 262.6875 C212.120625 263.120625 212.55375 263.55375 213 264 C213 264.99 213 265.98 213 267 C213.99 267.33 214.98 267.66 216 268 C217.02611949 269.65071396 218.02308143 271.31970006 219 273 C219.721875 273.70125 220.44375 274.4025 221.1875 275.125 C223 277 223 277 223 280 C223.99 280.33 224.98 280.66 226 281 C231 286.34883721 231 286.34883721 231 290 C231.66 290 232.32 290 233 290 C234.3440093 291.99284138 235.67541292 293.99419671 237 296 C238.2065625 297.175625 238.2065625 297.175625 239.4375 298.375 C242.15872422 301.16259554 243.95078332 303.97334439 245.88671875 307.328125 C246.90712963 309.16048447 246.90712963 309.16048447 249 310 C250 311.66666667 251 313.33333333 252 315 C253.66247014 317.00348966 255.32932867 319.00334402 257 321 C259.26476705 324.23538149 261.34383306 327.4116383 263 331 C263.66 331 264.32 331 265 331 C265.33 331.99 265.66 332.98 266 334 C266.66 334.33 267.32 334.66 268 335 C268.33 335.99 268.66 336.98 269 338 C270.83704076 339.95951015 272.74708155 341.77417995 274.75 343.5625 C276 345 276 345 276 348 C276.66 348 277.32 348 278 348 C278.103125 348.639375 278.20625 349.27875 278.3125 349.9375 C278.6528125 350.9584375 278.6528125 350.9584375 279 352 C279.99 352.33 280.98 352.66 282 353 C282 353.66 282 354.32 282 355 C282.99 355.33 283.98 355.66 285 356 C285.35412344 357.32796291 285.68521554 358.66216607 286 360 C286.98020375 361.0194119 287.97803008 362.02246356 289 363 C289 363.66 289 364.32 289 365 C289.99 365.33 290.98 365.66 292 366 C292 366.66 292 367.32 292 368 C292.99 368.33 293.98 368.66 295 369 C295 370.32 295 371.64 295 373 C295.99 373.33 296.98 373.66 298 374 C299.31640625 375.5234375 299.31640625 375.5234375 300.5625 377.375 C300.97628906 377.98085938 301.39007812 378.58671875 301.81640625 379.2109375 C302.20699219 379.80132813 302.59757812 380.39171875 303 381 C304.87085419 383.89210342 304.87085419 383.89210342 306.625 386.0625 C308 388 308 388 308 390 C308.99 390.33 309.98 390.66 311 391 C312.82421875 392.99609375 312.82421875 392.99609375 314.6875 395.4375 C315.31011719 396.24058594 315.93273438 397.04367187 316.57421875 397.87109375 C318 400 318 400 318 402 C318.66 402 319.32 402 320 402 C320.33 403.65 320.66 405.3 321 407 C321.99 407.33 322.98 407.66 324 408 C324 408.66 324 409.32 324 410 C324.99 410.33 325.98 410.66 327 411 C328.99396257 413.66083969 331 416.61242325 331 420 C331.99 420.33 332.98 420.66 334 421 C334 421.66 334 422.32 334 423 C334.66 423 335.32 423 336 423 C336.33 423.99 336.66 424.98 337 426 C337.474375 426.474375 337.94875 426.94875 338.4375 427.4375 C340.15484932 429.15484932 340.92231011 430.84462022 342 433 C342.66 433.33 343.32 433.66 344 434 C344 434.66 344 435.32 344 436 C344.66 436 345.32 436 346 436 C346.33 437.32 346.66 438.64 347 440 C347.66 440 348.32 440 349 440 C351.34869747 441.97290587 352.00102287 443.00306862 353 446 C353.09298955 448.14647846 353.12373888 450.295809 353.12304783 452.44430065 C353.12420167 453.10453955 353.12535552 453.76477844 353.12654433 454.44502458 C353.12920598 456.67294398 353.12469252 458.90079212 353.12025452 461.12870789 C353.12069031 462.73584457 353.12156537 464.34298118 353.12284368 465.95011741 C353.12508704 470.3785606 353.12106951 474.80697975 353.11606562 479.23541987 C353.11175904 484.00637286 353.11320769 488.77732442 353.1139679 493.54827881 C353.114493 501.81832388 353.11134762 510.08836107 353.10573006 518.35840416 C353.09761321 530.31559258 353.09499965 542.27277718 353.09374207 554.22996805 C353.09155184 573.62833047 353.08489254 593.02668869 353.07543945 612.42504883 C353.06626458 631.27205383 353.05919558 650.11905768 353.05493164 668.96606445 C353.05466364 670.13906914 353.05439565 671.31207382 353.05411953 672.5206241 C353.05204018 681.69388785 353.05008323 690.86715162 353.04816496 700.04041541 C353.03872624 745.02694746 353.01860913 790.013469 353 835 C254 835 155 835 53 835 C53 766.96705216 53 766.96705216 53.08454299 741.16839874 C53.09749699 737.14826848 53.10934052 733.12813487 53.12135315 729.10800171 C53.14205347 722.22602465 53.16337899 715.34404979 53.18519592 708.46207619 C53.21673417 698.51327359 53.24722564 688.56446797 53.27750319 678.61566146 C53.32671518 662.45397718 53.37671431 646.29229544 53.42724609 630.13061523 C53.47617952 614.47957488 53.52471879 598.82853338 53.57275391 583.17749023 C53.5757409 582.20429538 53.5787279 581.23110053 53.58180541 580.22841493 C53.5967957 575.3436548 53.61177851 570.45889464 53.62675762 565.57413447 C53.75001399 525.3827527 53.87456352 485.19137502 54 445 C54.66 445 55.32 445 56 445 C56 444.34 56 443.68 56 443 C55.34 443 54.68 443 54 443 C52.82638506 441.33861059 51.73574737 439.61820517 50.6875 437.875 C48.63874195 434.54469665 46.63511679 431.38498381 44.0625 428.4375 C42 426 42 426 42 424 C41.34 424 40.68 424 40 424 C38.6005541 422.06701535 37.27891407 420.07725985 36 418.0625 C33.6239883 413.86500495 33.6239883 413.86500495 30 411 C30 410.01 30 409.02 30 408 C29.34 408 28.68 408 28 408 C26.29687633 405.78059843 24.69683488 403.55963493 23.125 401.25 C20.30808496 397.13747122 17.54325364 393.52677339 14 390 C14 389.34 14 388.68 14 388 C13.34 387.67 12.68 387.34 12 387 C11.690625 386.175 11.38125 385.35 11.0625 384.5 C10.711875 383.675 10.36125 382.85 10 382 C9.01 381.67 8.02 381.34 7 381 C6.54625 380.236875 6.0925 379.47375 5.625 378.6875 C4.15808792 375.87911475 4.15808792 375.87911475 1.5625 374.1875 C-1.3481404 371.70280698 -2.27380877 369.62485646 -3.8359375 366.21484375 C-5.60025612 362.85790194 -7.95682925 360.04788317 -10.33203125 357.10546875 C-12 355 -12 355 -14.1875 351.6875 C-15.9145063 348.94234146 -15.9145063 348.94234146 -18.25 346.75 C-18.8275 346.1725 -19.405 345.595 -20 345 C-20 344.34 -20 343.68 -20 343 C-20.66 343 -21.32 343 -22 343 C-23.01567807 341.34284104 -24.01005812 339.67266041 -25 338 C-29.0328949 332.42157943 -29.0328949 332.42157943 -33.71875 327.4140625 C-35 326 -35 326 -35 323 C-35.99 322.67 -36.98 322.34 -38 322 C-38 321.01 -38 320.02 -38 319 C-38.66 319 -39.32 319 -40 319 C-41.37535339 317.02866014 -42.70211044 315.02318078 -44 313 C-44.721875 312.13375 -45.44375 311.2675 -46.1875 310.375 C-47.90486316 308.12466206 -48.59136342 306.75829694 -49 304 C-49.66 304 -50.32 304 -51 304 C-53.70515182 301.76530937 -55.34721708 299.069454 -57 296 C-57 295.34 -57 294.68 -57 294 C-57.99 293.67 -58.98 293.34 -60 293 C-61.1875 290.4375 -61.1875 290.4375 -62 288 C-62.66 288 -63.32 288 -64 288 C-67 283.61538462 -67 283.61538462 -67 281 C-67.66 281 -68.32 281 -69 281 C-70.5078125 279.1015625 -70.5078125 279.1015625 -72.125 276.625 C-72.66382813 275.81289063 -73.20265625 275.00078125 -73.7578125 274.1640625 C-75 272 -75 272 -75 270 C-75.66 270 -76.32 270 -77 270 C-78.37482707 268.36739286 -79.70647667 266.69774938 -81 265 C-81.66 264.34 -82.32 263.68 -83 263 C-83.79149874 261.74193358 -84.56007511 260.46931831 -85.3125 259.1875 C-86.89776262 256.60101889 -88.26970071 254.73029929 -90.4375 252.5625 C-93.24758101 249.75241899 -95.16918732 246.81358188 -97.30859375 243.484375 C-99.79980128 239.82523415 -102.62414891 236.46099035 -105.4609375 233.06640625 C-107 231 -107 231 -107 229 C-107.66 229 -108.32 229 -109 229 C-109.5878125 227.6696875 -109.5878125 227.6696875 -110.1875 226.3125 C-112.08218124 222.8498067 -114.15430517 220.70341009 -117 218 C-120 214.37931034 -120 214.37931034 -120 212 C-120.66 212 -121.32 212 -122 212 C-123.33203125 210.2421875 -123.33203125 210.2421875 -124.8125 207.875 C-126.68723228 204.94544293 -128.56802033 202.2277463 -130.875 199.625 C-133 197 -133 197 -133 194 C-133.99 194 -134.98 194 -136 194 C-136 193.01 -136 192.02 -136 191 C-136.61875 190.731875 -137.2375 190.46375 -137.875 190.1875 C-140 189 -140 189 -142 186 C-141.67364017 179.90794979 -141.67364017 179.90794979 -139.5625 177.0625 C-138 176 -138 176 -136 176 C-135.67 175.01 -135.34 174.02 -135 173 C-134.34 173 -133.68 173 -133 173 C-132.67 172.01 -132.34 171.02 -132 170 C-131.34 170 -130.68 170 -130 170 C-129.505 168.02 -129.505 168.02 -129 166 C-128.34 166 -127.68 166 -127 166 C-126.90589844 165.43796875 -126.81179688 164.8759375 -126.71484375 164.296875 C-125.8240591 161.43468169 -124.41128118 159.60229539 -122.5625 157.25 C-121.63630859 156.05117188 -121.63630859 156.05117188 -120.69140625 154.828125 C-120.13324219 154.22484375 -119.57507812 153.6215625 -119 153 C-118.34 153 -117.68 153 -117 153 C-117 152.01 -117 151.02 -117 150 C-115.625 148.3125 -115.625 148.3125 -114 147 C-113.34 147 -112.68 147 -112 147 C-111.61714844 145.90558594 -111.61714844 145.90558594 -111.2265625 144.7890625 C-109.9312618 141.84369721 -108.43899512 139.83370335 -106.375 137.375 C-103.37566963 133.7333448 -100.54689284 130.03225349 -97.8125 126.1875 C-95.11549399 122.42851502 -92.27105899 119.27105899 -89 116 C-87.46075355 113.7902325 -86.00449141 111.53522835 -84.54296875 109.2734375 C-82.28550898 105.94725627 -79.66252736 103.00290728 -77 100 C-74.75518516 97.2930174 -72.77658718 94.65173884 -70.875 91.6875 C-70.25625 90.800625 -69.6375 89.91375 -69 89 C-68.34 89 -67.68 89 -67 89 C-66.76152344 88.45214844 -66.52304688 87.90429688 -66.27734375 87.33984375 C-64.687567 84.42768389 -62.70276681 82.0963791 -60.5625 79.5625 C-58.24669534 76.81939695 -56.14910138 74.25575272 -54.33984375 71.15234375 C-53.89769531 70.44207031 -53.45554687 69.73179687 -53 69 C-52.34 69 -51.68 69 -51 69 C-50.731875 68.43796875 -50.46375 67.8759375 -50.1875 67.296875 C-48.9196021 64.84449354 -47.51027658 62.56072317 -46 60.25 C-45.484375 59.45078125 -44.96875 58.6515625 -44.4375 57.828125 C-43.963125 57.22484375 -43.48875 56.6215625 -43 56 C-42.34 56 -41.68 56 -41 56 C-41 55.01 -41 54.02 -41 53 C-39.37123083 51.29627862 -37.69723987 49.63552205 -36 48 C-34.40588695 46.00400972 -32.84475991 43.98135743 -31.3125 41.9375 C-27.06602161 36.31301995 -22.61844505 30.90790191 -18.03125 25.55859375 C-16.31884626 23.40162365 -15.08743928 21.51174833 -14 19 C-13.34 19 -12.68 19 -12 19 C-11.74089844 18.43023437 -11.48179687 17.86046875 -11.21484375 17.2734375 C-9.89133028 14.79663736 -8.33657574 12.79967349 -6.5625 10.625 C-3.84452605 7.19922033 -1.74382333 4.00053588 0 0 Z " fill="#2EB34C" transform="translate(1193,342)"/>
<path d="M0 0 C1.45742463 -0.08096803 2.91612807 -0.13917774 4.375 -0.1875 C5.18710937 -0.22230469 5.99921875 -0.25710938 6.8359375 -0.29296875 C7.55007813 -0.19628906 8.26421875 -0.09960938 9 0 C11 3 11 3 11 6 C11.66 6 12.32 6 13 6 C14.0064275 7.66279327 15.00585407 9.32983484 16 11 C16.99 11.66 17.98 12.32 19 13 C19.6875 15.625 19.6875 15.625 20 18 C20.66 18 21.32 18 22 18 C22.99 20.97 22.99 20.97 24 24 C24.66 24 25.32 24 26 24 C30 28.47058824 30 28.47058824 30 31 C30.66 31 31.32 31 32 31 C33.44526736 32.73548169 34.8087222 34.53975963 36.125 36.375 C37.21167969 37.87160156 37.21167969 37.87160156 38.3203125 39.3984375 C40 42 40 42 40 44 C40.66 44 41.32 44 42 44 C45.75974372 47.28977575 48.17229407 51.72740213 50.875 55.8828125 C51.57625 56.95273437 52.2775 58.02265625 53 59.125 C53.70125 60.20007813 54.4025 61.27515625 55.125 62.3828125 C56.73710481 65.06298604 56.73710481 65.06298604 59 66 C59 66.99 59 67.98 59 69 C59.66 69 60.32 69 61 69 C61.33 70.32 61.66 71.64 62 73 C62.66 73 63.32 73 64 73 C65.01866229 74.65532623 66.01810813 76.32260138 67 78 C67.66 78.33 68.32 78.66 69 79 C69 79.99 69 80.98 69 82 C69.66 82 70.32 82 71 82 C72.5078125 83.6796875 72.5078125 83.6796875 74.125 85.875 C74.66382813 86.59429687 75.20265625 87.31359375 75.7578125 88.0546875 C77 90 77 90 77 92 C77.66 92 78.32 92 79 92 C79 92.99 79 93.98 79 95 C79.99 95.33 80.98 95.66 82 96 C82 96.66 82 97.32 82 98 C82.66 98 83.32 98 84 98 C84.94401042 99.72526042 85.88802083 101.45052083 86.83203125 103.17578125 C88.04890012 105.07637577 89.40338202 106.41122781 91 108 C92.23862085 109.6442827 93.44514258 111.31305492 94.625 113 C95.54152344 114.299375 95.54152344 114.299375 96.4765625 115.625 C98 118 98 118 99 121 C99.99 121.33 100.98 121.66 102 122 C102 122.66 102 123.32 102 124 C102.66 124 103.32 124 104 124 C104.5775 125.051875 105.155 126.10375 105.75 127.1875 C108.9617684 132.97925914 108.9617684 132.97925914 114 137 C116.12837953 140.1925693 117.66592079 143.40824827 119 147 C119.66 147 120.32 147 121 147 C121 147.99 121 148.98 121 150 C121.99 150.33 122.98 150.66 124 151 C124.33333333 152.33333333 124.66666667 153.66666667 125 155 C125.99 155.33 126.98 155.66 128 156 C129.36176581 157.98075027 130.69593116 159.98079663 132 162 C132.66 162.33 133.32 162.66 134 163 C134.33 163.99 134.66 164.98 135 166 C135.515625 166.515625 136.03125 167.03125 136.5625 167.5625 C137.2740625 168.2740625 137.2740625 168.2740625 138 169 C138 169.66 138 170.32 138 171 C138.66 171 139.32 171 140 171 C140.33 171.99 140.66 172.98 141 174 C142.2065625 175.1446875 142.2065625 175.1446875 143.4375 176.3125 C146.16491051 179.17295492 147.03252833 181.21806528 148 185 C148.66 185 149.32 185 150 185 C161 197.22222222 161 197.22222222 161 202 C161.99 202.33 162.98 202.66 164 203 C164 203.66 164 204.32 164 205 C164.66 205 165.32 205 166 205 C166.33 205.99 166.66 206.98 167 208 C167.515625 208.515625 168.03125 209.03125 168.5625 209.5625 C169.2740625 210.2740625 169.2740625 210.2740625 170 211 C170 211.66 170 212.32 170 213 C170.66 213 171.32 213 172 213 C172.66 214.65 173.32 216.3 174 218 C174.66 218 175.32 218 176 218 C176.33 219.32 176.66 220.64 177 222 C177.66 222 178.32 222 179 222 C179.33 223.32 179.66 224.64 180 226 C180.66 226 181.32 226 182 226 C185.06677376 228.40008381 186.37172255 231.53106108 188 235 C188.391875 235.78375 188.78375 236.5675 189.1875 237.375 C189.455625 237.91125 189.72375 238.4475 190 239 C190.66 239 191.32 239 192 239 C192.33 240.65 192.66 242.3 193 244 C193.99 244.33 194.98 244.66 196 245 C196 245.66 196 246.32 196 247 C196.99 247.33 197.98 247.66 199 248 C200.03404423 249.74494965 201.06340162 251.49424381 202.015625 253.28515625 C203.1014598 255.17674942 204.42617053 256.504862 206 258 C206 258.66 206 259.32 206 260 C206.66 260 207.32 260 208 260 C208.33 261.32 208.66 262.64 209 264 C209.66 264 210.32 264 211 264 C211.33 265.32 211.66 266.64 212 268 C212.66 268 213.32 268 214 268 C216.07761756 270.91692002 217.93557447 273.94710959 219.83203125 276.984375 C221.98303262 279.97639853 224.1083251 281.76339708 227 284 C228.58203125 286.0703125 228.58203125 286.0703125 229.8125 288.125 C230.23144531 288.80820312 230.65039062 289.49140625 231.08203125 290.1953125 C232 292 232 292 232 294 C232.99 294.33 233.98 294.66 235 295 C235 295.66 235 296.32 235 297 C235.66 297 236.32 297 237 297 C237.33 298.65 237.66 300.3 238 302 C238.99 302.33 239.98 302.66 241 303 C242.39453125 304.51879883 242.39453125 304.51879883 243.8125 306.45703125 C244.33070313 307.15763672 244.84890625 307.85824219 245.3828125 308.58007812 C245.91648437 309.31677734 246.45015625 310.05347656 247 310.8125 C247.53367187 311.53759766 248.06734375 312.26269531 248.6171875 313.00976562 C249.61659757 314.36841638 250.61302885 315.72926708 251.60546875 317.09301758 C252.59147527 318.44135388 253.61965867 319.75931659 254.67578125 321.0534668 C256 323 256 323 256 326 C256.99 326.33 257.98 326.66 259 327 C259 327.66 259 328.32 259 329 C259.66 329 260.32 329 261 329 C262.4375 330.93359375 262.4375 330.93359375 264 333.4375 C265.9529916 336.81006651 265.9529916 336.81006651 269 339 C269 339.99 269 340.98 269 342 C269.66 342 270.32 342 271 342 C273.83591963 344.19139244 275.25414238 347.13608828 276.9609375 350.23046875 C278.40550558 352.69057905 280.17065784 354.81659161 282 357 C285 360.75 285 360.75 285 363 C285.99 363.33 286.98 363.66 288 364 C291 368.33333333 291 368.33333333 291 371 C291.66 371 292.32 371 293 371 C298 376.47619048 298 376.47619048 298 379 C298.66 379 299.32 379 300 379 C301.19542478 380.68125012 302.30712843 382.42248083 303.375 384.1875 C305.20620914 387.20052473 307.00008018 390.00009861 309.2265625 392.73828125 C311 395 311 395 311 397 C311.99 397.33 312.98 397.66 314 398 C315.46484375 399.92578125 315.46484375 399.92578125 316.9375 402.3125 C318.52767685 404.80130259 319.9084882 406.9084882 322 409 C324.02875436 411.02875436 325.38472202 413.03128679 326.9375 415.4375 C328.69838676 418.1540439 330.25684357 420.25684357 332.5625 422.5625 C335.259567 425.259567 336.99039854 428.04199356 338.88671875 431.328125 C339.90712963 433.16048447 339.90712963 433.16048447 342 434 C342.625 436.5625 342.625 436.5625 343 439 C343.99 439.33 344.98 439.66 346 440 C346 440.66 346 441.32 346 442 C346.99 442.33 347.98 442.66 349 443 C351.39688227 446.5953234 351.24884471 448.17089365 351.24609566 452.44430065 C351.24840335 453.10453955 351.25071103 453.76477844 351.25308865 454.44502458 C351.25841215 456.67301885 351.24938529 458.90072814 351.24050903 461.12870789 C351.24138062 462.73584508 351.24313074 464.34298201 351.24568737 465.95011741 C351.2501741 470.3785877 351.24213907 474.80696184 351.23213124 479.23541987 C351.22351808 484.00637289 351.22641539 488.77732021 351.22793579 493.54827881 C351.228986 501.81833373 351.22269524 510.08835716 351.21146011 518.35840416 C351.19522643 530.31559394 351.18999929 542.27276844 351.18748413 554.22996805 C351.18310367 573.62833695 351.16978507 593.02668905 351.15087891 612.42504883 C351.13252917 631.27205319 351.11839116 650.11905298 351.10986328 668.96606445 C351.10932729 670.13906914 351.10879129 671.31207382 351.10823905 672.5206241 C351.10408037 681.69388779 351.10016646 690.86715158 351.09632993 700.04041541 C351.07745248 745.02695902 351.03721826 790.0134606 351 835 C252.33 835 153.66 835 52 835 C52 705 52 575 52 445 C52.66 445 53.32 445 54 445 C54 443.35 54 441.7 54 440 C53.34 440 52.68 440 52 440 C50.0546875 437.91796875 50.0546875 437.91796875 47.875 435.1875 C46.78832031 433.84751953 46.78832031 433.84751953 45.6796875 432.48046875 C44 430 44 430 44 427 C43.01 426.67 42.02 426.34 41 426 C41 425.34 41 424.68 41 424 C40.34 424 39.68 424 39 424 C37.60287726 422.04402816 36.28072371 420.0340906 35 418 C32.39671997 413.90705114 32.39671997 413.90705114 29.25 410.25 C28.8375 409.8375 28.425 409.425 28 409 C28 408.34 28 407.68 28 407 C27.34 407 26.68 407 26 407 C26 406.01 26 405.02 26 404 C25.01 404 24.02 404 23 404 C22.72027344 403.443125 22.44054687 402.88625 22.15234375 402.3125 C19.45232816 397.17292048 16.43953754 393.06199732 12.515625 388.796875 C10.73773462 386.68906681 9.74599547 384.65242835 9 382 C8.34 382 7.68 382 7 382 C6.34 380.35 5.68 378.7 5 377 C4.34 377 3.68 377 3 377 C2.896875 376.360625 2.79375 375.72125 2.6875 375.0625 C2.3471875 374.0415625 2.3471875 374.0415625 2 373 C1.01 372.67 0.02 372.34 -1 372 C-1 371.01 -1 370.02 -1 369 C-1.66 369 -2.32 369 -3 369 C-11 359.93333333 -11 359.93333333 -11 356 C-11.66 356 -12.32 356 -13 356 C-13.556875 354.9275 -14.11375 353.855 -14.6875 352.75 C-16.61420475 349.33165287 -18.85127195 347.36154604 -22 345 C-22 344.34 -22 343.68 -22 343 C-22.66 343 -23.32 343 -24 343 C-24.7734375 341.515 -24.7734375 341.515 -25.5625 340 C-27.75270186 336.10982196 -30.54142545 333.01951108 -33.609375 329.796875 C-35 328 -35 328 -35 325 C-35.66 325 -36.32 325 -37 325 C-38.48582889 323.24375025 -39.88869039 321.41693707 -41.25 319.5625 C-41.65186523 319.01843506 -42.05373047 318.47437012 -42.46777344 317.91381836 C-45.3018616 314.04786343 -47.97760357 310.10069059 -50.515625 306.03515625 C-52.03255086 303.84348413 -52.03255086 303.84348413 -54.3828125 301.62890625 C-57.12029135 298.87917003 -59.34019509 296.00777374 -61.625 292.875 C-64.46440359 288.92284009 -64.46440359 288.92284009 -67.7109375 285.3203125 C-69 284 -69 284 -70 281 C-70.66 280.67 -71.32 280.34 -72 280 C-73.02137457 278.34634594 -74.01612294 276.67623498 -75 275 C-77.28607613 271.46409678 -79.36210633 268.50438104 -82.6875 265.875 C-85.33641586 263.72723039 -85.86801616 262.15338357 -87 259 C-87.98095748 257.98131338 -88.97702078 256.97648017 -90 256 C-90 255.34 -90 254.68 -90 254 C-90.66 254 -91.32 254 -92 254 C-95.2338162 251.32858661 -97.58755651 247.85599572 -98.5 243.75 C-98.665 243.1725 -98.83 242.595 -99 242 C-99.99 241.67 -100.98 241.34 -102 241 C-104.9791794 238.70832354 -105.5047783 236.66464055 -106 233 C-106.66 233 -107.32 233 -108 233 C-110.3283935 231.23042094 -110.95288806 230.18416484 -111.6875 227.3125 C-111.790625 226.549375 -111.89375 225.78625 -112 225 C-112.66 225 -113.32 225 -114 225 C-114.99 222.525 -114.99 222.525 -116 220 C-116.66 220 -117.32 220 -118 220 C-118.495 218.02 -118.495 218.02 -119 216 C-119.66 216 -120.32 216 -121 216 C-121.495 214.02 -121.495 214.02 -122 212 C-122.66 212 -123.32 212 -124 212 C-125.33203125 210.49609375 -125.33203125 210.49609375 -126.8125 208.4375 C-127.60333984 207.35082031 -127.60333984 207.35082031 -128.41015625 206.2421875 C-129.42314394 204.8135513 -130.43147409 203.38159299 -131.43359375 201.9453125 C-133.71139864 198.43289076 -133.71139864 198.43289076 -137 196 C-137 195.01 -137 194.02 -137 193 C-137.99 193 -138.98 193 -140 193 C-140 192.01 -140 191.02 -140 190 C-140.66 190 -141.32 190 -142 190 C-142.875 187.5 -142.875 187.5 -143 184 C-141.36036889 181.01982358 -139.40933836 178.40323877 -137 176 C-136.34 176 -135.68 176 -135 176 C-134.74992187 175.45214844 -134.49984375 174.90429688 -134.2421875 174.33984375 C-132.76074852 171.54933448 -130.99614387 169.10796176 -129.125 166.5625 C-128.44695312 165.63566406 -127.76890625 164.70882812 -127.0703125 163.75390625 C-124.34837341 160.13321368 -121.68295809 156.66630058 -118.4375 153.5 C-116.12075645 151.12385277 -114.66044238 148.84647265 -113 146 C-112.34 145.67 -111.68 145.34 -111 145 C-110.31426522 143.6763724 -109.65002641 142.34152447 -109 141 C-108.12904586 139.80901544 -107.22206462 138.64373433 -106.28515625 137.50390625 C-105.76373047 136.86259766 -105.24230469 136.22128906 -104.70507812 135.56054688 C-103.89200195 134.57151367 -103.89200195 134.57151367 -103.0625 133.5625 C-99.7250116 129.49755903 -96.65444619 125.55516075 -94 121 C-92.33333333 119.33333333 -90.66666667 117.66666667 -89 116 C-86.16486844 112.44561093 -83.52158954 108.78238431 -81 105 C-80.34 105 -79.68 105 -79 105 C-78.7525 104.46375 -78.505 103.9275 -78.25 103.375 C-76.69347463 100.4176018 -74.96564327 97.70275949 -73 95 C-72.34 95 -71.68 95 -71 95 C-70.773125 94.113125 -70.54625 93.22625 -70.3125 92.3125 C-69.06578386 89.16602594 -67.99877325 87.83320529 -65.5546875 85.61328125 C-62.67375493 82.62377082 -60.43074923 79.11833357 -58.0625 75.71875 C-56 73 -56 73 -53.60546875 70.6328125 C-50.45544175 67.44972675 -47.91858975 64.00579714 -45.3125 60.375 C-44.82716797 59.70726562 -44.34183594 59.03953125 -43.84179688 58.3515625 C-41.84383127 55.59574788 -39.8885779 52.83286684 -38 50 C-37.195625 49.21625 -36.39125 48.4325 -35.5625 47.625 C-33.17589905 45.18018927 -31.69775839 42.93249176 -30 40 C-29.56042969 39.57332031 -29.12085938 39.14664063 -28.66796875 38.70703125 C-25.62522874 35.59303269 -23.32275916 31.86563745 -20.83984375 28.30078125 C-19.92912109 27.16189453 -19.92912109 27.16189453 -19 26 C-18.34 26 -17.68 26 -17 26 C-16.67 24.68 -16.34 23.36 -16 22 C-15.34 22 -14.68 22 -14 22 C-13.814375 21.34 -13.62875 20.68 -13.4375 20 C-11.71790786 16.41128596 -9.41035521 13.98889073 -6.75 11.0625 C-3.88116283 7.68137048 -1.9783941 3.95678821 0 0 Z " fill="#51863C" transform="translate(430,342)"/>
<path d="M0 0 C3.96 0 7.92 0 12 0 C12.226875 1.0725 12.45375 2.145 12.6875 3.25 C14.17685199 7.50529139 15.50281518 8.35578709 19 11 C20.6875 14 20.6875 14 22 17 C22.391875 17.78375 22.78375 18.5675 23.1875 19.375 C23.5896875 20.179375 23.5896875 20.179375 24 21 C24.66 21 25.32 21 26 21 C27.2890625 22.4609375 27.2890625 22.4609375 28.625 24.375 C29.07101562 25.00148438 29.51703125 25.62796875 29.9765625 26.2734375 C31 28 31 28 31 30 C31.66 30 32.32 30 33 30 C33 30.99 33 31.98 33 33 C33.763125 33.2475 34.52625 33.495 35.3125 33.75 C39.90491576 35.88600733 41.95373759 40.38510027 44.625 44.5625 C45.54152344 45.98755859 45.54152344 45.98755859 46.4765625 47.44140625 C48 50 48 50 49 53 C49.66 53 50.32 53 51 53 C51 53.99 51 54.98 51 56 C51.99 56.33 52.98 56.66 54 57 C55.38671875 58.55859375 55.38671875 58.55859375 56.6875 60.4375 C57.12449219 61.05496094 57.56148437 61.67242187 58.01171875 62.30859375 C59 64 59 64 59 66 C59.99 66.33 60.98 66.66 62 67 C62 67.66 62 68.32 62 69 C62.66 69 63.32 69 64 69 C64.5775 70.0725 65.155 71.145 65.75 72.25 C67.48583557 75.31870931 69.4564071 77.54724971 72 80 C72 80.66 72 81.32 72 82 C72.66 82 73.32 82 74 82 C74.33 82.99 74.66 83.98 75 85 C75.515625 85.515625 76.03125 86.03125 76.5625 86.5625 C77.036875 87.036875 77.51125 87.51125 78 88 C78 88.66 78 89.32 78 90 C78.99 90.33 79.98 90.66 81 91 C81.6875 93.0625 81.6875 93.0625 82 95 C82.66 95 83.32 95 84 95 C84.33 96.32 84.66 97.64 85 99 C85.66 99 86.32 99 87 99 C87.103125 99.639375 87.20625 100.27875 87.3125 100.9375 C87.6528125 101.9584375 87.6528125 101.9584375 88 103 C88.99 103.33 89.98 103.66 91 104 C91 104.66 91 105.32 91 106 C91.66 106 92.32 106 93 106 C94.3671875 107.828125 94.3671875 107.828125 95.875 110.25 C98.00476023 113.57221767 100.15173577 116.25722704 103 119 C103.33 119.99 103.66 120.98 104 122 C104.99 122.66 105.98 123.32 107 124 C107 124.99 107 125.98 107 127 C107.66 127 108.32 127 109 127 C109.66 128.65 110.32 130.3 111 132 C111.66 132 112.32 132 113 132 C113.33 133.32 113.66 134.64 114 136 C114.66 136 115.32 136 116 136 C116.33 137.32 116.66 138.64 117 140 C117.66 140 118.32 140 119 140 C121.39047894 142.39047894 123 144.54145481 123 148 C123.99 148.33 124.98 148.66 126 149 C127.38509525 150.62390477 128.70758949 152.30140333 130 154 C130.99818585 155.10580696 131.99830114 156.2098743 133 157.3125 C135.63288218 160.34689671 137.25472513 163.37681659 138.921875 167.0078125 C140.48648962 169.89894822 142.58664829 172.16895734 144.828125 174.5546875 C146 176 146 176 146 178 C146.66 178 147.32 178 148 178 C148.33 179.65 148.66 181.3 149 183 C149.99 183.33 150.98 183.66 152 184 C153.2109375 185.671875 153.2109375 185.671875 154.375 187.75 C156.51586355 191.37649311 158.97340347 194.0574756 162 197 C162.33 197.99 162.66 198.98 163 200 C163.66 200 164.32 200 165 200 C165 200.99 165 201.98 165 203 C165.99 203.33 166.98 203.66 168 204 C169.31640625 205.8125 169.31640625 205.8125 170.5625 208 C172.21374548 211.08502827 172.21374548 211.08502827 175 213 C175 213.99 175 214.98 175 216 C175.99 216.33 176.98 216.66 178 217 C178 217.66 178 218.32 178 219 C178.66 219 179.32 219 180 219 C180.91145833 220.72526042 181.82291667 222.45052083 182.734375 224.17578125 C183.93570801 226.11881991 183.93570801 226.11881991 185.98828125 227.45703125 C188.30585257 229.23458595 189.15382853 230.7721229 190.4375 233.375 C192.52223065 237.35670605 194.75399705 239.93948293 198 243 C198 243.66 198 244.32 198 245 C198.99 245.33 199.98 245.66 201 246 C202.32421875 247.71484375 202.32421875 247.71484375 203.6875 249.9375 C206.62860614 254.56029656 209.95003914 258.7323502 213.4609375 262.93359375 C215 265 215 265 215 267 C215.66 267 216.32 267 217 267 C219.17204 269.96187272 220.83561997 272.50685991 222 276 C222.66 276 223.32 276 224 276 C224.391875 276.66 224.78375 277.32 225.1875 278 C228.0207715 282.68955283 231.70809666 286.80493764 235.6640625 290.59375 C237 292 237 292 237.875 294.375 C239.30208213 297.70485831 241.39005933 299.51737351 244 302 C247 305.62068966 247 305.62068966 247 308 C247.99 308.33 248.98 308.66 250 309 C250.6875 311.0625 250.6875 311.0625 251 313 C251.66 313 252.32 313 253 313 C253.33 314.32 253.66 315.64 254 317 C254.66 317 255.32 317 256 317 C256.33 318.32 256.66 319.64 257 321 C257.66 321 258.32 321 259 321 C259.66 322.98 260.32 324.96 261 327 C261.66 327 262.32 327 263 327 C263.598125 327.9075 264.19625 328.815 264.8125 329.75 C266.78779102 333.04771139 266.78779102 333.04771139 269.5625 335 C272.46597934 337.38234202 273.50583634 339.58476878 275 343 C275.391875 343.78375 275.78375 344.5675 276.1875 345.375 C276.455625 345.91125 276.72375 346.4475 277 347 C277.66 347 278.32 347 279 347 C281.34869747 348.97290587 282.00102287 350.00306862 283 353 C283.97455242 354.02481587 284.97829491 355.02218677 286 356 C287.08649681 357.33499 288.1486088 358.69013755 289.1875 360.0625 C289.98220703 361.10083984 289.98220703 361.10083984 290.79296875 362.16015625 C292 364 292 364 292 366 C292.99 366 293.98 366 295 366 C295.33 367.98 295.66 369.96 296 372 C296.66 372 297.32 372 298 372 C298.33 373.32 298.66 374.64 299 376 C299.66 376 300.32 376 301 376 C302.69140625 377.609375 302.69140625 377.609375 304.5625 379.75 C305.18253906 380.44609375 305.80257813 381.1421875 306.44140625 381.859375 C307.98531094 383.97982555 308.57896851 385.43920573 309 388 C309.66 388 310.32 388 311 388 C312.37659768 389.72147778 313.67772763 391.50377655 314.9375 393.3125 C317.60206841 397.19795973 317.60206841 397.19795973 320.75390625 400.66796875 C322 402 322 402 322 405 C322.66 405 323.32 405 324 405 C325.86429265 406.54006784 327.02235753 408.03800779 328.25 410.125 C330.4073267 413.66917958 332.96185926 416.79359475 335.57421875 420.01171875 C337 422 337 422 337 424 C337.99 424 338.98 424 340 424 C340.55558594 425.01707031 341.11117188 426.03414063 341.68359375 427.08203125 C343.85051793 430.87295585 346.35707407 434.26819856 349.0625 437.6875 C349.92853375 438.79545699 350.79442274 439.90352715 351.66015625 441.01171875 C353.03646157 442.76943757 354.41729968 444.52365251 355.80859375 446.26953125 C357 448 357 448 357 450 C357.66 450 358.32 450 359 450 C360.29590571 451.59381506 361.51152694 453.25324782 362.6875 454.9375 C365.33901115 458.67372025 368.00741188 462.37725853 370.8125 466 C371.35519531 466.70125 371.89789062 467.4025 372.45703125 468.125 C373.9264737 469.98079294 373.9264737 469.98079294 375.46484375 471.42578125 C377.49560781 473.50821869 379.07417113 475.81117466 380.75 478.1875 C383.17939089 481.57271681 385.62570679 484.80103493 388.4375 487.875 C392.04953167 491.86155108 395.01104938 496.22346003 397.98022461 500.69677734 C400.00188034 503.86433509 400.00188034 503.86433509 403 506 C406 510.5 406 510.5 406 513 C406.66 513 407.32 513 408 513 C409 514.66666667 410 516.33333333 411 518 C411.886875 518.886875 412.77375 519.77375 413.6875 520.6875 C416 523 416 523 416 525 C416.99 525.33 417.98 525.66 419 526 C419 526.99 419 527.98 419 529 C419.99 529.33 420.98 529.66 422 530 C421.67 530.66 421.34 531.32 421 532 C421.66 532 422.32 532 423 532 C424.02611949 533.65071396 425.02308143 535.31970006 426 537 C426.556875 537.556875 427.11375 538.11375 427.6875 538.6875 C428.120625 539.120625 428.55375 539.55375 429 540 C429 540.66 429 541.32 429 542 C429.99 542.33 430.98 542.66 432 543 C433.03552632 544.74745066 434.0661236 546.49939343 435.01953125 548.29296875 C435.96610414 550.11290522 435.96610414 550.11290522 437.6875 551.6875 C439.33965204 553.33965204 439.60898715 554.73212549 440 557 C440.66 557 441.32 557 442 557 C443.7265625 558.8984375 443.7265625 558.8984375 445.625 561.375 C446.25664063 562.18710937 446.88828125 562.99921875 447.5390625 563.8359375 C449 566 449 566 449 568 C449.99 568.33 450.98 568.66 452 569 C452 569.66 452 570.32 452 571 C452.66 571.33 453.32 571.66 454 572 C455.2890625 573.55859375 455.2890625 573.55859375 456.625 575.4375 C457.29402344 576.36369141 457.29402344 576.36369141 457.9765625 577.30859375 C459 579 459 579 459 581 C459.66 581 460.32 581 461 581 C461 581.99 461 582.98 461 584 C461.99 584 462.98 584 464 584 C466.23083941 587.12317517 467.66786942 590.4134946 469 594 C469.66 594 470.32 594 471 594 C472.625 595.3125 472.625 595.3125 474 597 C474 597.99 474 598.98 474 600 C474.66 600 475.32 600 476 600 C477.5606433 602.07592212 479.01261599 604.14640008 480.4375 606.3125 C482.7543307 609.80097428 485.02144995 613.04060461 488 616 C488 616.66 488 617.32 488 618 C488.66 618 489.32 618 490 618 C491.06386114 619.56254605 492.04936476 621.17859568 493 622.8125 C496.47264256 628.48032252 500.47509651 633.02405703 505.05859375 637.78515625 C507 640 507 640 507 642 C507.66 642 508.32 642 509 642 C510.2890625 643.6796875 510.2890625 643.6796875 511.625 645.875 C512.07101562 646.59429688 512.51703125 647.31359375 512.9765625 648.0546875 C514 650 514 650 514 652 C514.99 652.33 515.98 652.66 517 653 C518.97265625 655.36328125 518.97265625 655.36328125 521.0625 658.3125 C521.75472656 659.27800781 522.44695313 660.24351562 523.16015625 661.23828125 C524.63883482 663.45786883 525.8916621 665.58233028 527 668 C527.66 668 528.32 668 529 668 C530.18359375 669.64453125 530.18359375 669.64453125 531.4375 671.8125 C532.72241258 674.02383858 533.83498239 675.83731205 535.66015625 677.63671875 C537 679 537 679 537 681 C537.99 681.33 538.98 681.66 540 682 C541.53515625 683.99609375 541.53515625 683.99609375 543.0625 686.4375 C544.61468524 688.89808881 545.93883462 690.93883462 548 693 C548.22705078 694.87939453 548.22705078 694.87939453 548.1953125 697.1328125 C548.18886719 697.93847656 548.18242188 698.74414062 548.17578125 699.57421875 C548.15902344 700.41597656 548.14226563 701.25773438 548.125 702.125 C548.11597656 702.97449219 548.10695313 703.82398438 548.09765625 704.69921875 C548.07405647 706.79959884 548.03818483 708.89983444 548 711 C506.29988322 711.11438723 464.59978451 711.2025193 422.89954199 711.25532665 C417.97900756 711.26158035 413.05847343 711.26805195 408.13793945 711.2746582 C406.66852431 711.27662553 406.66852431 711.27662553 405.16942402 711.2786326 C389.29743141 711.30040273 373.42552913 711.3398331 357.55359016 711.38576398 C341.273483 711.43248391 324.99342322 711.46028594 308.71325177 711.47044247 C298.66348246 711.47731091 288.61396847 711.49902179 278.56427773 711.53958233 C271.67742843 711.56596562 264.79071156 711.57401103 257.90381537 711.56750689 C253.92742247 711.56429708 249.95147641 711.56929585 245.97516251 711.59602737 C242.33611452 711.62031344 238.69781493 711.62161873 235.05873289 711.60449447 C233.1158393 711.60137287 231.17295485 711.62297998 229.23018819 711.64540654 C219.8289046 711.56419932 219.8289046 711.56419932 216.68416119 708.58742046 C215 706 215 706 215 704 C214.34 704 213.68 704 213 704 C213 703.01 213 702.02 213 701 C212.01 701 211.02 701 210 701 C209.34 699.02 208.68 697.04 208 695 C207.34 695 206.68 695 206 695 C205.67 693.68 205.34 692.36 205 691 C204.34 691 203.68 691 203 691 C202.67 690.01 202.34 689.02 202 688 C201.175 687.195625 200.35 686.39125 199.5 685.5625 C197.15906852 683.16304524 196.35873987 682.22865886 196 679 C195.34 679 194.68 679 194 679 C192.55473264 677.26451831 191.1912778 675.46024037 189.875 673.625 C189.15054687 672.62726562 188.42609375 671.62953125 187.6796875 670.6015625 C186 668 186 668 186 666 C185.34 666 184.68 666 184 666 C183.67 665.34 183.34 664.68 183 664 C182.34 664.33 181.68 664.66 181 665 C179.28232318 661.01811282 177.58962659 657.03520597 176 653 C175.34 653 174.68 653 174 653 C173.67 651.68 173.34 650.36 173 649 C172.34 649 171.68 649 171 649 C168.2729313 646.74720412 166.78384602 644.01881634 165 641 C164.15958577 639.74071265 163.3046796 638.49100775 162.4375 637.25 C162.02371094 636.65703125 161.60992188 636.0640625 161.18359375 635.453125 C160.04402417 633.85073617 160.04402417 633.85073617 158 633 C158 632.01 158 631.02 158 630 C157.01 630 156.02 630 155 630 C154.5875 629.0925 154.175 628.185 153.75 627.25 C152.09618073 624.17862135 150.47367984 622.39122384 148 620 C147.67 619.01 147.34 618.02 147 617 C146.484375 616.484375 145.96875 615.96875 145.4375 615.4375 C144.963125 614.963125 144.48875 614.48875 144 614 C144 613.34 144 612.68 144 612 C143.34 612 142.68 612 142 612 C140.21694476 609.36107824 139.00940379 607.02821137 138 604 C137.34 604 136.68 604 136 604 C134.81640625 602.35546875 134.81640625 602.35546875 133.5625 600.1875 C132.27758742 597.97616142 131.16501761 596.16268795 129.33984375 594.36328125 C128 593 128 593 128 591 C127.34 591 126.68 591 126 591 C125.67 589.68 125.34 588.36 125 587 C124.34 587 123.68 587 123 587 C121.7109375 585.5390625 121.7109375 585.5390625 120.375 583.625 C119.92898438 582.99851562 119.48296875 582.37203125 119.0234375 581.7265625 C118 580 118 580 118 578 C117.34 578 116.68 578 116 578 C115.67 577.01 115.34 576.02 115 575 C114.195625 574.21625 113.39125 573.4325 112.5625 572.625 C110.07392216 570.07572514 109.05218733 568.34786879 108 565 C107.34 565 106.68 565 106 565 C105.67 563.68 105.34 562.36 105 561 C104.34 561 103.68 561 103 561 C102.67 559.68 102.34 558.36 102 557 C101.34 557 100.68 557 100 557 C97 553.53846154 97 553.53846154 97 551 C96.34 551 95.68 551 95 551 C93 548 93 548 93 545 C92.34 545 91.68 545 91 545 C87.75796104 542.26452963 86.54697054 539.86742636 85 536 C83.69026002 534.6434836 82.35197858 533.31442362 81 532 C79.52831418 530.12097257 78.12124437 528.19995753 76.70703125 526.27734375 C74.83811419 523.78402877 72.89612875 521.36088812 70.9375 518.9375 C68.56440925 515.99722694 66.28060606 513.04055534 64.125 509.9375 C62.32202946 506.96827889 62.32202946 506.96827889 60 506 C59.01791863 504.26498957 58.03781507 502.52874535 57.078125 500.78125 C55.68916089 498.48643973 53.98690242 496.78821218 52 495 C51.34 494.34 50.68 493.68 50 493 C50 492.01 50 491.02 50 490 C49.34 490 48.68 490 48 490 C46.73828125 488.34765625 46.73828125 488.34765625 45.3125 486.0625 C42.62026174 481.86207912 39.68274276 477.99252498 36.515625 474.140625 C34.89363438 471.84977226 33.94009714 469.63595864 33 467 C32.34 467 31.68 467 31 467 C30.731875 466.195625 30.46375 465.39125 30.1875 464.5625 C29.795625 463.716875 29.40375 462.87125 29 462 C28.01 461.67 27.02 461.34 26 461 C26 460.01 26 459.02 26 458 C25.34 458 24.68 458 24 458 C20 453.52941176 20 453.52941176 20 451 C19.34 451 18.68 451 18 451 C16.97862543 449.34634594 15.98387706 447.67623498 15 446 C14.12095717 444.92356732 13.22455631 443.86110712 12.3125 442.8125 C10 440 10 440 10 438 C9.34 438 8.68 438 8 438 C6.97862543 436.34634594 5.98387706 434.67623498 5 433 C4.12095717 431.92356732 3.22455631 430.86110712 2.3125 429.8125 C0 427 0 427 0 425 C-0.66 425 -1.32 425 -2 425 C-3.78305524 422.36107824 -4.99059621 420.02821137 -6 417 C-6.66 417 -7.32 417 -8 417 C-8 416.34 -8 415.68 -8 415 C-8.66 415 -9.32 415 -10 415 C-10.4021875 413.5459375 -10.4021875 413.5459375 -10.8125 412.0625 C-11.4003125 410.5465625 -11.4003125 410.5465625 -12 409 C-12.99 408.67 -13.98 408.34 -15 408 C-15.6875 405.9375 -15.6875 405.9375 -16 404 C-16.66 404 -17.32 404 -18 404 C-19.48046875 402.12890625 -19.48046875 402.12890625 -21.1875 399.5625 C-24.17976498 395.14325151 -27.35023783 390.95355344 -30.71484375 386.8125 C-32 385 -32 385 -32 383 C-32.66 383 -33.32 383 -34 383 C-38 377.58823529 -38 377.58823529 -38 375 C-38.66 375 -39.32 375 -40 375 C-40.66 373.35 -41.32 371.7 -42 370 C-42.66 370 -43.32 370 -44 370 C-44.33 368.68 -44.66 367.36 -45 366 C-45.66 366 -46.32 366 -47 366 C-48.625 364.6875 -48.625 364.6875 -50 363 C-50 362.01 -50 361.02 -50 360 C-50.99 359.67 -51.98 359.34 -53 359 C-54.04644066 357.36209288 -55.0398183 355.68991979 -56 354 C-56.721875 353.113125 -57.44375 352.22625 -58.1875 351.3125 C-60 349 -60 349 -60 347 C-60.99 346.67 -61.98 346.34 -63 346 C-63.28875 345.2575 -63.5775 344.515 -63.875 343.75 C-65.29419781 340.2808498 -67.31612221 338.62423606 -70 336 C-72.41414608 333.0612848 -74.70846163 330.03487856 -77 327 C-77.48339844 326.360625 -77.96679688 325.72125 -78.46484375 325.0625 C-79.41762684 323.7956416 -80.36675915 322.52603049 -81.3125 321.25390625 C-82.65478082 319.46109136 -84.01229677 317.67968529 -85.375 315.90234375 C-85.78766113 315.36134033 -86.20032227 314.82033691 -86.62548828 314.26293945 C-87.82830422 312.68621179 -89.03516568 311.11257279 -90.2421875 309.5390625 C-92 307 -92 307 -92 305 C-92.99 304.67 -93.98 304.34 -95 304 C-95 303.34 -95 302.68 -95 302 C-95.66 302 -96.32 302 -97 302 C-100 297.61538462 -100 297.61538462 -100 295 C-100.66 295 -101.32 295 -102 295 C-103.40234375 293.13671875 -103.40234375 293.13671875 -104.9375 290.6875 C-106.76929985 287.77817083 -108.57098964 285.41528714 -111 283 C-112.1875 280.3125 -112.1875 280.3125 -113 278 C-113.66 278 -114.32 278 -115 278 C-116.19140625 276.453125 -116.19140625 276.453125 -117.5625 274.25 C-120.15637094 270.22789888 -122.88934979 266.33572771 -125.75 262.5 C-126.50796875 261.4790625 -127.2659375 260.458125 -128.046875 259.40625 C-129.77287236 256.94164155 -129.77287236 256.94164155 -132 256 C-132.98145533 254.26609558 -133.96049732 252.53064777 -134.9140625 250.78125 C-136.29789681 248.51136351 -138.0946566 246.83729542 -140 245 C-140 244.34 -140 243.68 -140 243 C-140.66 243 -141.32 243 -142 243 C-143.35278115 241.01310269 -144.68568305 239.01254782 -146 237 C-146.66 236.67 -147.32 236.34 -148 236 C-150.12837953 232.8074307 -151.66592079 229.59175173 -153 226 C-153.66 226 -154.32 226 -155 226 C-158 222.53846154 -158 222.53846154 -158 220 C-158.99 219.67 -159.98 219.34 -161 219 C-163.03595574 215.99964417 -163.66311126 213.564223 -163 210 C-161.24739029 207.41947037 -159.32191084 205.08731363 -157 203 C-156.34 203 -155.68 203 -155 203 C-154.690625 202.38125 -154.38125 201.7625 -154.0625 201.125 C-153.375 199.75 -152.6875 198.375 -152 197 C-151.34 197 -150.68 197 -150 197 C-149.505 195.02 -149.505 195.02 -149 193 C-148.34 193 -147.68 193 -147 193 C-146.814375 192.34 -146.62875 191.68 -146.4375 191 C-144.71362459 187.40234696 -142.42013274 184.93367454 -139.74609375 182.00390625 C-138.20157298 180.23133544 -136.93255017 178.48738197 -135.6875 176.5 C-135.130625 175.675 -134.57375 174.85 -134 174 C-133.34 174 -132.68 174 -132 174 C-131.7628125 173.46890625 -131.525625 172.9378125 -131.28125 172.390625 C-129.62621616 169.30257405 -127.59451872 166.5471528 -125.5 163.75 C-124.89478516 162.91855469 -124.89478516 162.91855469 -124.27734375 162.0703125 C-123.23549829 160.67430835 -122.12254588 159.33197608 -121 158 C-120.34 158 -119.68 158 -119 158 C-118.731875 157.43796875 -118.46375 156.8759375 -118.1875 156.296875 C-116.9196021 153.84449354 -115.51027658 151.56072317 -114 149.25 C-113.2265625 148.05117188 -113.2265625 148.05117188 -112.4375 146.828125 C-111.963125 146.22484375 -111.48875 145.6215625 -111 145 C-110.34 145 -109.68 145 -109 145 C-108.73574219 144.43667969 -108.47148438 143.87335938 -108.19921875 143.29296875 C-104.28624104 135.81115143 -98.6980454 128.22425012 -93 122 C-92.34 122 -91.68 122 -91 122 C-90.773125 121.0925 -90.54625 120.185 -90.3125 119.25 C-89 116 -89 116 -86.6796875 114.1875 C-83.60535332 111.67783944 -81.90880959 109.10733915 -79.8125 105.75 C-78.59282208 103.800381 -77.33416595 101.87313365 -76 100 C-75.34 100 -74.68 100 -74 100 C-73.73429199 99.42564209 -73.46858398 98.85128418 -73.19482422 98.25952148 C-71.94722169 95.90019141 -70.53000012 93.94580787 -68.8828125 91.84765625 C-68.27566406 91.07099609 -67.66851563 90.29433594 -67.04296875 89.49414062 C-66.41003906 88.69169922 -65.77710938 87.88925781 -65.125 87.0625 C-64.49980469 86.26392578 -63.87460938 85.46535156 -63.23046875 84.64257812 C-60.71822926 81.43721547 -58.19651276 78.24256031 -55.6328125 75.078125 C-54.09597049 73.12214427 -53.00764174 71.26719391 -52 69 C-51.34 69 -50.68 69 -50 69 C-49.505 67.515 -49.505 67.515 -49 66 C-48.34 66 -47.68 66 -47 66 C-46.79375 65.34 -46.5875 64.68 -46.375 64 C-44.50875748 59.92819814 -42.02438473 56.31203002 -39 53 C-38.34 53 -37.68 53 -37 53 C-36.5359375 52.071875 -36.5359375 52.071875 -36.0625 51.125 C-35.375 49.75 -34.6875 48.375 -34 47 C-33.34 47 -32.68 47 -32 47 C-31.67 45.68 -31.34 44.36 -31 43 C-30.34 43 -29.68 43 -29 43 C-28.79375 42.34 -28.5875 41.68 -28.375 41 C-26.50875748 36.92819814 -24.02438473 33.31203002 -21 30 C-20.34 30 -19.68 30 -19 30 C-18.814375 29.34 -18.62875 28.68 -18.4375 28 C-16.69617525 24.36593095 -14.36715439 21.81931643 -11.65625 18.8671875 C-9.83198095 16.89656809 -9.83198095 16.89656809 -8 14 C-7.34 14 -6.68 14 -6 14 C-5.9175 13.2575 -5.835 12.515 -5.75 11.75 C-4.8503367 8.45123456 -3.38062958 7.38062958 -1 5 C-0.67 3.35 -0.34 1.7 0 0 Z " fill="#2EB34C" transform="translate(1394,84)"/>
<path d="M0 0 C3.96 0 7.92 0 12 0 C12.33 2.97 12.66 5.94 13 9 C13.66 9 14.32 9 15 9 C16.11328125 10.609375 16.11328125 10.609375 17.3125 12.75 C19.43918706 16.33878442 21.68634568 18.44375238 25 21 C25 21.99 25 22.98 25 24 C25.99 24.33 26.98 24.66 28 25 C29.2109375 26.671875 29.2109375 26.671875 30.375 28.75 C32.03039034 31.56416358 33.3686145 33.3602369 35.75 35.6875 C38.27699606 38.2846904 38.35011108 39.56487283 39 43 C40.88316159 44.10836423 40.88316159 44.10836423 43 45 C46 48.42857143 46 48.42857143 46 51 C46.66 51 47.32 51 48 51 C52 56.41176471 52 56.41176471 52 59 C52.66 59 53.32 59 54 59 C55.5078125 60.6796875 55.5078125 60.6796875 57.125 62.875 C57.66382813 63.59429687 58.20265625 64.31359375 58.7578125 65.0546875 C60 67 60 67 60 69 C60.99 69.33 61.98 69.66 63 70 C64.38671875 71.55859375 64.38671875 71.55859375 65.6875 73.4375 C66.12449219 74.05496094 66.56148437 74.67242187 67.01171875 75.30859375 C68 77 68 77 68 79 C68.66 79 69.32 79 70 79 C70.556875 80.03125 71.11375 81.0625 71.6875 82.125 C74.27859781 86.65713221 77.36879486 90.41677148 81.125 94.0625 C83.60527552 96.62545137 86 99.31333074 86 103 C86.99 103.33 87.98 103.66 89 104 C89 104.66 89 105.32 89 106 C89.66 106 90.32 106 91 106 C92.78305524 108.63892176 93.99059621 110.97178863 95 114 C95.99 114.33 96.98 114.66 98 115 C98.6875 117.0625 98.6875 117.0625 99 119 C99.66 119 100.32 119 101 119 C102.44526736 120.73548169 103.8087222 122.53975963 105.125 124.375 C105.84945313 125.37273437 106.57390625 126.37046875 107.3203125 127.3984375 C109 130 109 130 109 132 C109.66 132 110.32 132 111 132 C112.7265625 133.8984375 112.7265625 133.8984375 114.625 136.375 C115.57246094 137.59316406 115.57246094 137.59316406 116.5390625 138.8359375 C118 141 118 141 118 143 C118.66 143 119.32 143 120 143 C124 148.41176471 124 148.41176471 124 151 C124.66 151 125.32 151 126 151 C130 156.41176471 130 156.41176471 130 159 C130.99 159 131.98 159 133 159 C133.33 160.65 133.66 162.3 134 164 C134.99 164.33 135.98 164.66 137 165 C137.6875 167.0625 137.6875 167.0625 138 169 C138.66 169 139.32 169 140 169 C144 174.41176471 144 174.41176471 144 177 C144.66 177 145.32 177 146 177 C147.69140625 178.828125 147.69140625 178.828125 149.5625 181.25 C150.18253906 182.03890625 150.80257813 182.8278125 151.44140625 183.640625 C152.90172158 185.85122766 153.56718926 187.41499341 154 190 C154.66 190 155.32 190 156 190 C160 194.47058824 160 194.47058824 160 197 C160.66 197 161.32 197 162 197 C163.01351664 198.65848177 164.01120795 200.32665961 165 202 C165.721875 202.70125 166.44375 203.4025 167.1875 204.125 C169 206 169 206 169 209 C169.99 209.33 170.98 209.66 172 210 C174.36506843 212.00121175 174.9893322 212.96799661 176 216 C176.66 216.33 177.32 216.66 178 217 C178.4021875 218.11375 178.4021875 218.11375 178.8125 219.25 C180.26461505 222.61279274 182.39739699 224.46588654 185 227 C185 227.66 185 228.32 185 229 C185.99 229 186.98 229 188 229 C188.7734375 230.7325 188.7734375 230.7325 189.5625 232.5 C191.60617618 236.61654774 194.20274468 239.78425039 197.31640625 243.140625 C202 248.31322506 202 248.31322506 202 251 C202.66 251 203.32 251 204 251 C204.98487183 252.40665848 205.96077849 253.82082023 206.88037109 255.27099609 C208.6944719 258.07244876 210.76456194 260.68051446 212.8125 263.3125 C213.2461084 263.87428955 213.6797168 264.4360791 214.12646484 265.01489258 C216.13609684 267.61539644 218.16053673 270.20173642 220.20703125 272.7734375 C221.15642578 273.96839844 221.15642578 273.96839844 222.125 275.1875 C222.68445313 275.88230469 223.24390625 276.57710938 223.8203125 277.29296875 C225 279 225 279 225 281 C225.99 281.33 226.98 281.66 228 282 C232.01414434 285.14150426 234.42511649 290.27534947 236 295 C236.66 295 237.32 295 238 295 C241 298.46153846 241 298.46153846 241 301 C241.66 301 242.32 301 243 301 C244.2265625 302.36328125 244.2265625 302.36328125 245.625 304.3125 C246.14835937 305.03179687 246.67171875 305.75109375 247.2109375 306.4921875 C248.09652344 307.73355469 248.09652344 307.73355469 249 309 C250.4137022 310.98128524 251.83042459 312.96041862 253.25 314.9375 C254.24773437 316.34322266 254.24773437 316.34322266 255.265625 317.77734375 C256.80899533 320.08367674 256.80899533 320.08367674 259 321 C259.804375 322.485 259.804375 322.485 260.625 324 C262.91115405 328.19128242 265.96372049 331.49669457 269.1953125 334.984375 C271.97305353 338.08678706 273.5402422 341.14206868 275 345 C275.66 345 276.32 345 277 345 C277 345.66 277 346.32 277 347 C277.66 347 278.32 347 279 347 C279.33 348.32 279.66 349.64 280 351 C280.66 351 281.32 351 282 351 C284.41767832 353.65944615 286.28285715 356.42567212 288 359.5625 C289.77928185 362.62064068 291.48793541 364.577652 294 367 C294 367.66 294 368.32 294 369 C294.66 369 295.32 369 296 369 C296 369.99 296 370.98 296 372 C296.66 372 297.32 372 298 372 C299.5078125 373.6796875 299.5078125 373.6796875 301.125 375.875 C301.66382813 376.59429687 302.20265625 377.31359375 302.7578125 378.0546875 C304 380 304 380 304 382 C304.66 382 305.32 382 306 382 C307.45928542 383.78324084 308.84228846 385.62920666 310.1875 387.5 C313.48256034 392.04035294 316.92272138 396.30627084 320.78515625 400.37890625 C322 402 322 402 322 405 C322.66 405 323.32 405 324 405 C324.66 406.98 325.32 408.96 326 411 C326.66 411 327.32 411 328 411 C329.41974835 412.52480373 330.76014675 414.12378113 332.0625 415.75 C332.86816406 416.75546875 333.67382812 417.7609375 334.50390625 418.796875 C337.64961444 422.8056083 340.68334743 426.89672687 343.71484375 430.9921875 C346.79604293 435.047783 350.05369543 438.93512794 353.34765625 442.8203125 C355 445 355 445 355 447 C355.66 447 356.32 447 357 447 C357.680625 448.36125 357.680625 448.36125 358.375 449.75 C361.46518621 455.17426304 365.6901634 459.74680712 369.72167969 464.47900391 C372.29387095 467.53949885 374.74589102 470.69688215 377.2109375 473.84375 C378.97949586 476.0498976 378.97949586 476.0498976 381.09765625 478.05859375 C382.85408643 479.85109026 383.92066583 481.35297673 385.0625 483.5625 C386.6170963 486.32065473 387.78084109 487.89179904 390 490 C390 490.66 390 491.32 390 492 C390.66 492 391.32 492 392 492 C396 497.41176471 396 497.41176471 396 500 C396.66 500 397.32 500 398 500 C399.01866229 501.65532623 400.01810813 503.32260138 401 505 C401.66 505.33 402.32 505.66 403 506 C406 510.5 406 510.5 406 513 C406.99 513.33 407.98 513.66 409 514 C410.46484375 515.9609375 410.46484375 515.9609375 411.9375 518.375 C413.49412624 520.92371603 414.65972751 522.74495705 417.05859375 524.54296875 C419.24556267 526.18429553 419.99881815 527.47220276 421.125 529.9375 C421.43695312 530.60652344 421.74890625 531.27554688 422.0703125 531.96484375 C422.70985201 533.3648441 423.32856902 534.77448411 423.9296875 536.19140625 C424.93613409 538.34281024 424.93613409 538.34281024 428 539 C428.66666667 540.66666667 429.33333333 542.33333333 430 544 C430.99 544.33 431.98 544.66 433 545 C434.82421875 547.21484375 434.82421875 547.21484375 436.6875 549.9375 C437.31011719 550.83339844 437.93273438 551.72929688 438.57421875 552.65234375 C440 555 440 555 440 557 C440.99 557.33 441.98 557.66 443 558 C445.04296875 560.43359375 445.04296875 560.43359375 447.1875 563.4375 C447.90292969 564.42621094 448.61835937 565.41492188 449.35546875 566.43359375 C451 569 451 569 451 571 C451.66 571 452.32 571 453 571 C454.02611949 572.65071396 455.02308143 574.31970006 456 576 C456.556875 576.556875 457.11375 577.11375 457.6875 577.6875 C458.120625 578.120625 458.55375 578.55375 459 579 C459 579.66 459 580.32 459 581 C459.99 581.33 460.98 581.66 462 582 C464.03450173 584.347502 465.00787667 586.02363 466 589 C467.75632637 590.93195901 469.68747909 592.62200489 471.625 594.375 C474.08018914 597.0886301 474.69351008 598.42428424 475 602 C475.99 602.33 476.98 602.66 478 603 C479.82421875 604.9609375 479.82421875 604.9609375 481.6875 607.375 C482.31011719 608.16648437 482.93273438 608.95796875 483.57421875 609.7734375 C485 612 485 612 485 615 C485.99 615.33 486.98 615.66 488 616 C489.71875 618.1796875 489.71875 618.1796875 491.5 620.875 C493.87472493 624.47735882 493.87472493 624.47735882 496.71875 627.6953125 C498 629 498 629 498 631 C498.66 631 499.32 631 500 631 C502.3283935 632.76957906 502.95288806 633.81583516 503.6875 636.6875 C503.8421875 637.8321875 503.8421875 637.8321875 504 639 C504.99 639.33 505.98 639.66 507 640 C511 645.37142857 511 645.37142857 511 648 C511.99 648.33 512.98 648.66 514 649 C514 649.66 514 650.32 514 651 C514.99 651.33 515.98 651.66 517 652 C517 652.99 517 653.98 517 655 C517.66 655 518.32 655 519 655 C520.2890625 656.6796875 520.2890625 656.6796875 521.625 658.875 C522.07101562 659.59429688 522.51703125 660.31359375 522.9765625 661.0546875 C524 663 524 663 524 665 C524.99 665.33 525.98 665.66 527 666 C527 666.66 527 667.32 527 668 C527.66 668 528.32 668 529 668 C529.33 669.65 529.66 671.3 530 673 C530.66 673 531.32 673 532 673 C533.5859375 674.828125 533.5859375 674.828125 535.375 677.25 C537.22502843 679.74387092 538.9689243 681.97055986 541.2265625 684.109375 C543 686 543 686 543 689 C543.66 689 544.32 689 545 689 C546.36757038 690.98139735 547.50345036 693.05472212 548.68359375 695.15234375 C549.94711956 697.30967459 549.94711956 697.30967459 553 698 C553 698.66 553 699.32 553 700 C553.66 700 554.32 700 555 700 C555.66 700.99 556.32 701.98 557 703 C557.66 703 558.32 703 559 703 C558.34 705.97 557.68 708.94 557 712 C446.12 711.67 335.24 711.34 221 711 C221 710.34 221 709.68 221 709 C220.4225 708.9175 219.845 708.835 219.25 708.75 C216.32205399 707.774018 214.94755463 706.36488777 213 704 C213 703.01 213 702.02 213 701 C212.34 701 211.68 701 211 701 C207 696.52941176 207 696.52941176 207 694 C206.34 694 205.68 694 205 694 C204.71125 693.195625 204.4225 692.39125 204.125 691.5625 C203.26737432 688.8673532 203.26737432 688.8673532 201 688 C197 682 197 682 197 680 C196.01 679.67 195.02 679.34 194 679 C192.16575798 676.74113818 190.47609351 674.50291826 188.8125 672.125 C188.34908203 671.48691406 187.88566406 670.84882812 187.40820312 670.19140625 C184 665.38277798 184 665.38277798 184 662 C183.01 662 182.02 662 181 662 C181 661.01 181 660.02 181 659 C180.01 658.67 179.02 658.34 178 658 C177.67 656.35 177.34 654.7 177 653 C176.34 653 175.68 653 175 653 C168 645.3 168 645.3 168 641 C167.01 640.67 166.02 640.34 165 640 C163.30911778 638.02043058 161.64169528 636.02054804 160 634 C159.34 633.67 158.68 633.34 158 633 C158 632.01 158 631.02 158 630 C157.34 630 156.68 630 156 630 C154.2734375 627.6640625 154.2734375 627.6640625 152.375 624.625 C151.74335937 623.62726562 151.11171875 622.62953125 150.4609375 621.6015625 C149 619 149 619 149 617 C148.34 617 147.68 617 147 617 C145.64482856 615.29870251 144.36477042 613.53714076 143.125 611.75 C141.12852071 608.88053547 139.25085573 606.25085573 136.77734375 603.77734375 C134.79563406 601.79563406 134.63766736 600.64176476 134 598 C133.01 597.67 132.02 597.34 131 597 C130.33333333 595 129.66666667 593 129 591 C128.01 590.67 127.02 590.34 126 590 C126 589.34 126 588.68 126 588 C125.34 588 124.68 588 124 588 C121 583.61538462 121 583.61538462 121 581 C120.34 581 119.68 581 119 581 C118.67 580.34 118.34 579.68 118 579 C117.01 578.34 116.02 577.68 115 577 C114.71125 576.236875 114.4225 575.47375 114.125 574.6875 C113.10444445 571.77262396 113.10444445 571.77262396 110.375 569.375 C109.59125 568.59125 108.8075 567.8075 108 567 C108 566.01 108 565.02 108 564 C107.34 564 106.68 564 106 564 C105.67 562.68 105.34 561.36 105 560 C104.34 560 103.68 560 103 560 C101.30859375 558.20703125 101.30859375 558.20703125 99.4375 555.8125 C98.81746094 555.03519531 98.19742187 554.25789062 97.55859375 553.45703125 C95.936876 550.90048873 95.38623806 548.97879489 95 546 C94.01 545.67 93.02 545.34 92 545 C92 544.34 92 543.68 92 543 C91.34 543 90.68 543 90 543 C89.773125 542.4225 89.54625 541.845 89.3125 541.25 C88.11028436 538.84378156 88.11028436 538.84378156 85.6875 537.3125 C82.4647964 534.53947597 81.0027599 531.68627459 79.11328125 527.92578125 C78.14507765 525.84315346 78.14507765 525.84315346 76 525 C76 524.01 76 523.02 76 522 C75.34 522 74.68 522 74 522 C72.44921875 520.2421875 72.44921875 520.2421875 70.6875 517.875 C68.58264601 515.08168335 66.47378886 512.33442371 64.1875 509.6875 C62 507 62 507 61.078125 505.1171875 C59.81851964 502.64361466 58.27819052 500.6180873 56.5625 498.4375 C55.66724609 497.29087891 55.66724609 497.29087891 54.75390625 496.12109375 C53.07753001 494.01094258 53.07753001 494.01094258 51.27734375 492.34765625 C50 491 50 491 50 489 C49.34 489 48.68 489 48 489 C45.3879169 487.11930017 45.00531495 486.02464205 44.3125 482.8125 C44.1578125 481.4203125 44.1578125 481.4203125 44 480 C43.01 479.67 42.02 479.34 41 479 C40.30062468 477.68352881 39.63270867 476.34977849 39 475 C38.34 474.67 37.68 474.34 37 474 C37 473.01 37 472.02 37 471 C36.01 470.67 35.02 470.34 34 470 C34 469.01 34 468.02 34 467 C33.34 467 32.68 467 32 467 C30.30859375 465.171875 30.30859375 465.171875 28.4375 462.75 C27.81746094 461.96109375 27.19742188 461.1721875 26.55859375 460.359375 C25.09827842 458.14877234 24.43281074 456.58500659 24 454 C23.34 454 22.68 454 22 454 C18.46530577 451.0800352 16.43260972 447.29782916 15 443 C14.34 443 13.68 443 13 443 C12.34 441.35 11.68 439.7 11 438 C10.34 438 9.68 438 9 438 C8.67 436.35 8.34 434.7 8 433 C7.34 433 6.68 433 6 433 C5.34 432.34 4.68 431.68 4 431 C3.34 430.67 2.68 430.34 2 430 C1.66666667 428.66666667 1.33333333 427.33333333 1 426 C0.34 425.67 -0.32 425.34 -1 425 C-2.74839516 422.34243936 -3.99127482 420.02617555 -5 417 C-5.66 417 -6.32 417 -7 417 C-7.66 416.34 -8.32 415.68 -9 415 C-9.66 414.67 -10.32 414.34 -11 414 C-11 412.35 -11 410.7 -11 409 C-11.66 409 -12.32 409 -13 409 C-14.37535339 407.02866014 -15.70211044 405.02318078 -17 403 C-17.7425 402.0925 -18.485 401.185 -19.25 400.25 C-21 398 -21 398 -21 396 C-21.66 396 -22.32 396 -23 396 C-25.18861856 394.28716808 -26.12213103 392.75081046 -27.35546875 390.234375 C-28.97679847 387.04563151 -30.77920237 384.26997338 -32.875 381.375 C-33.53242187 380.45460938 -34.18984375 379.53421875 -34.8671875 378.5859375 C-36.91122529 375.92770356 -36.91122529 375.92770356 -39.55859375 373.953125 C-42.07766294 371.93786965 -43.48978054 370.09681297 -45.1875 367.375 C-46.70243499 364.96869165 -47.98423001 363.01576999 -50 361 C-50.6496875 359.90171875 -50.6496875 359.90171875 -51.3125 358.78125 C-53.30750547 355.49318543 -55.62244526 352.51390027 -58 349.5 C-60.92603854 345.79081585 -63.570012 342.05464856 -66 338 C-66.886875 337.113125 -67.77375 336.22625 -68.6875 335.3125 C-69.450625 334.549375 -70.21375 333.78625 -71 333 C-71 332.34 -71 331.68 -71 331 C-71.66 331 -72.32 331 -73 331 C-73.495 329.515 -73.495 329.515 -74 328 C-74.66 327.67 -75.32 327.34 -76 327 C-77.52923396 324.64243097 -78.85841915 322.31855692 -80 319.75 C-80.94279946 317.64862526 -80.94279946 317.64862526 -84 317 C-84 316.34 -84 315.68 -84 315 C-84.495 314.505 -84.99 314.01 -85.5 313.5 C-85.995 313.005 -86.49 312.51 -87 312 C-87 311.34 -87 310.68 -87 310 C-87.66 310 -88.32 310 -89 310 C-90.44140625 308.24609375 -90.44140625 308.24609375 -92 306 C-96.04439582 300.56255257 -96.04439582 300.56255257 -100.25 295.25 C-101.83028942 293.21819931 -102.8571682 291.2856636 -104 289 C-104.66 288.67 -105.32 288.34 -106 288 C-106 287.01 -106 286.02 -106 285 C-106.66 285 -107.32 285 -108 285 C-109.2890625 283.5390625 -109.2890625 283.5390625 -110.625 281.625 C-111.07101562 280.99851562 -111.51703125 280.37203125 -111.9765625 279.7265625 C-113 278 -113 278 -113 276 C-113.99 275.67 -114.98 275.34 -116 275 C-117.46484375 273.14453125 -117.46484375 273.14453125 -118.9375 270.8125 C-119.45828125 270.00167969 -119.9790625 269.19085938 -120.515625 268.35546875 C-121.00546875 267.57816406 -121.4953125 266.80085938 -122 266 C-124.59698823 261.91126983 -124.59698823 261.91126983 -127.75 258.25 C-128.1625 257.8375 -128.575 257.425 -129 257 C-129 256.34 -129 255.68 -129 255 C-129.66 255 -130.32 255 -131 255 C-132.44526736 253.26451831 -133.8087222 251.46024037 -135.125 249.625 C-135.84945313 248.62726563 -136.57390625 247.62953125 -137.3203125 246.6015625 C-139 244 -139 244 -139 242 C-139.66 242 -140.32 242 -141 242 C-144.53469423 239.0800352 -146.56739028 235.29782916 -148 231 C-148.66 231 -149.32 231 -150 231 C-151.47265625 229.13671875 -151.47265625 229.13671875 -153.0625 226.6875 C-153.85333984 225.48673828 -153.85333984 225.48673828 -154.66015625 224.26171875 C-156 222 -156 222 -157 219 C-157.99 219 -158.98 219 -160 219 C-160.59221552 215.98742541 -161.0476436 213.07565932 -161 210 C-159.1875 207.4375 -159.1875 207.4375 -157 206 C-156.34 206 -155.68 206 -155 206 C-154.773125 205.278125 -154.54625 204.55625 -154.3125 203.8125 C-152.75173074 200.46799444 -150.6266129 198.55926385 -148 196 C-147.67 195.01 -147.34 194.02 -147 193 C-145.5625 191.3125 -145.5625 191.3125 -144 190 C-143.34 190 -142.68 190 -142 190 C-141.9071875 189.195625 -141.9071875 189.195625 -141.8125 188.375 C-140.64294485 184.95630034 -138.32405204 182.73076115 -136 180 C-135.67 179.01 -135.34 178.02 -135 177 C-134.01 177 -133.02 177 -132 177 C-131.71125 176.4225 -131.4225 175.845 -131.125 175.25 C-130.75375 174.5075 -130.3825 173.765 -130 173 C-129.731875 172.360625 -129.46375 171.72125 -129.1875 171.0625 C-128 169 -128 169 -125.5 166.5625 C-122.90821407 164.23277425 -122.90821407 164.23277425 -122 161.5 C-120.67129366 158.17823414 -118.57887457 156.45892692 -116 154 C-115.09229732 152.90556991 -114.19626105 151.80135268 -113.3125 150.6875 C-112.1678125 149.3571875 -112.1678125 149.3571875 -111 148 C-110.34 148 -109.68 148 -109 148 C-109 147.01 -109 146.02 -109 145 C-108.34 145 -107.68 145 -107 145 C-106.731875 144.443125 -106.46375 143.88625 -106.1875 143.3125 C-104.89100504 140.78774666 -103.57523677 138.36285516 -102 136 C-101.34 136 -100.68 136 -100 136 C-99.67 134.68 -99.34 133.36 -99 132 C-98.34 132 -97.68 132 -97 132 C-96.7525 131.278125 -96.505 130.55625 -96.25 129.8125 C-94.87730408 126.72393418 -93.27646704 124.48988582 -91 122 C-90.34 122 -89.68 122 -89 122 C-89 121.01 -89 120.02 -89 119 C-88.34 119 -87.68 119 -87 119 C-86.505 117.515 -86.505 117.515 -86 116 C-85.34 116 -84.68 116 -84 116 C-83.5978125 115.195625 -83.5978125 115.195625 -83.1875 114.375 C-82.795625 113.59125 -82.40375 112.8075 -82 112 C-81.566875 111.01 -81.13375 110.02 -80.6875 109 C-79 106 -79 106 -76.6875 104.1875 C-73.37535398 101.4915672 -71.54410027 98.44681311 -69.33203125 94.828125 C-68.89246094 94.22484375 -68.45289063 93.6215625 -68 93 C-67.34 93 -66.68 93 -66 93 C-66 92.01 -66 91.02 -66 90 C-64.3563186 88.31066078 -62.6857124 86.64740076 -61 85 C-60.278125 83.906875 -59.55625 82.81375 -58.8125 81.6875 C-58.214375 80.800625 -57.61625 79.91375 -57 79 C-56.34 79 -55.68 79 -55 79 C-54.7215625 78.01 -54.7215625 78.01 -54.4375 77 C-52.69972546 73.37334009 -50.35977029 70.87798567 -47.671875 67.91796875 C-45.78885395 65.75777404 -44.41219489 63.48815291 -43 61 C-40.9375 58.1875 -40.9375 58.1875 -39 56 C-38.34 56 -37.68 56 -37 56 C-36.7525 55.443125 -36.505 54.88625 -36.25 54.3125 C-34.78448139 51.60129056 -32.92305395 49.40381744 -31 47 C-30.29114106 45.68861096 -29.60543548 44.36222983 -29 43 C-28.34 43 -27.68 43 -27 43 C-26.938125 42.2575 -26.87625 41.515 -26.8125 40.75 C-26 38 -26 38 -23.7109375 36.21484375 C-20.63885808 33.70494601 -18.92086259 31.1605961 -16.8125 27.8125 C-13.19982317 22.09991158 -13.19982317 22.09991158 -11 21 C-10.67 20.01 -10.34 19.02 -10 18 C-8.88625 17.1646875 -8.88625 17.1646875 -7.75 16.3125 C-4.29111797 13.40389466 -1.75140032 10.18845523 0 6 C0 4.02 0 2.04 0 0 Z " fill="#52863C" transform="translate(629,84)"/>
<path d="M0 0 C2.74260564 3.30427216 6 7.56896982 6 12 C6.99 12.33 7.98 12.66 9 13 C12 16.44444444 12 16.44444444 12 19 C12.66 19 13.32 19 14 19 C15.4606285 21.64738916 16 22.89448334 16 26 C16.66 26 17.32 26 18 26 C19.7265625 27.8984375 19.7265625 27.8984375 21.625 30.375 C22.25664062 31.18710937 22.88828125 31.99921875 23.5390625 32.8359375 C25 35 25 35 25 37 C25.66 37 26.32 37 27 37 C27.99 39.475 27.99 39.475 29 42 C29.66 42 30.32 42 31 42 C32.65965421 44.38990207 33.86594384 46.39674726 34.5 49.25 C34.665 49.8275 34.83 50.405 35 51 C35.99 51.33 36.98 51.66 38 52 C38 52.66 38 53.32 38 54 C38.99 54.33 39.98 54.66 41 55 C43 58 43 58 43 61 C43.66 61 44.32 61 45 61 C45 61.99 45 62.98 45 64 C45.99 64.33 46.98 64.66 48 65 C49.5 66.8125 49.5 66.8125 51 69 C51.556875 69.70125 52.11375 70.4025 52.6875 71.125 C54 73 54 73 54 75 C54.66 75 55.32 75 56 75 C58.17204 77.96187272 59.83561997 80.50685991 61 84 C61.99 84.33 62.98 84.66 64 85 C67 89.33333333 67 89.33333333 67 92 C67.66 92 68.32 92 69 92 C69.33 93.65 69.66 95.3 70 97 C70.66 97 71.32 97 72 97 C73.625 98.3125 73.625 98.3125 75 100 C75 100.99 75 101.98 75 103 C75.66 103 76.32 103 77 103 C78.02611949 104.65071396 79.02308143 106.31970006 80 108 C80.556875 108.556875 81.11375 109.11375 81.6875 109.6875 C82.120625 110.120625 82.55375 110.55375 83 111 C83 111.66 83 112.32 83 113 C83.66 113 84.32 113 85 113 C85 113.99 85 114.98 85 116 C85.99 116.33 86.98 116.66 88 117 C88 117.66 88 118.32 88 119 C88.66 119.33 89.32 119.66 90 120 C90 120.99 90 121.98 90 123 C90.99 123 91.98 123 93 123 C93 123.99 93 124.98 93 126 C93.99 126.33 94.98 126.66 96 127 C97.5625 129.8125 97.5625 129.8125 99 133 C99.391875 133.78375 99.78375 134.5675 100.1875 135.375 C100.455625 135.91125 100.72375 136.4475 101 137 C101.66 137 102.32 137 103 137 C103.33 138.65 103.66 140.3 104 142 C104.66 142 105.32 142 106 142 C107.38903267 143.62053812 108.71332828 145.29705213 110 147 C111.11375 148.299375 111.11375 148.299375 112.25 149.625 C114 152 114 152 114 155 C114.66 155 115.32 155 116 155 C116.33 156.32 116.66 157.64 117 159 C117.66 159 118.32 159 119 159 C123.01984995 162.10624769 125.43396082 167.30188247 127 172 C127.99 172.33 128.98 172.66 130 173 C131.37073786 174.63604196 132.70055256 176.30678061 134 178 C134.70125 178.639375 135.4025 179.27875 136.125 179.9375 C138.41061868 182.45168054 138.97580696 184.79086179 140 188 C140.98095748 189.01868662 141.97702078 190.02351983 143 191 C143 191.99 143 192.98 143 194 C143.99 194.33 144.98 194.66 146 195 C146 195.66 146 196.32 146 197 C146.99 197.33 147.98 197.66 149 198 C150.03404423 199.74494965 151.06340162 201.49424381 152.015625 203.28515625 C153.1014598 205.17674942 154.42617053 206.504862 156 208 C156 208.66 156 209.32 156 210 C156.99 210.33 157.98 210.66 159 211 C159 211.66 159 212.32 159 213 C160.65 213.66 162.3 214.32 164 215 C164 217.31 164 219.62 164 222 C164.66 222 165.32 222 166 222 C166 222.99 166 223.98 166 225 C57.43 224.67 -51.14 224.34 -163 224 C-163 199 -163 199 -161 196 C-160.505 195.01 -160.505 195.01 -160 194 C-159.34 194.33 -158.68 194.66 -158 195 C-157.505 193.02 -157.505 193.02 -157 191 C-156.34 191 -155.68 191 -155 191 C-154.67 190.01 -154.34 189.02 -154 188 C-153.34 188 -152.68 188 -152 188 C-151.5978125 187.195625 -151.5978125 187.195625 -151.1875 186.375 C-149.79166667 183.58333333 -148.39583333 180.79166667 -147 178 C-146.34 178 -145.68 178 -145 178 C-144.67 177.01 -144.34 176.02 -144 175 C-143.34 175 -142.68 175 -142 175 C-141.67 173.68 -141.34 172.36 -141 171 C-140.34 171 -139.68 171 -139 171 C-138.67 169.35 -138.34 167.7 -138 166 C-137.01 165.67 -136.02 165.34 -135 165 C-133.89163577 163.11683841 -133.89163577 163.11683841 -133 161 C-132.34 160.01 -131.68 159.02 -131 158 C-130.34 158 -129.68 158 -129 158 C-128.67 156.68 -128.34 155.36 -128 154 C-127.34 154 -126.68 154 -126 154 C-125.731875 153.42765625 -125.46375 152.8553125 -125.1875 152.265625 C-123.95867364 149.92115366 -122.57477824 147.87595062 -121 145.75 C-120.484375 145.04359375 -119.96875 144.3371875 -119.4375 143.609375 C-118.963125 143.07828125 -118.48875 142.5471875 -118 142 C-117.34 142 -116.68 142 -116 142 C-116 141.01 -116 140.02 -116 139 C-114.5625 137.4375 -114.5625 137.4375 -113 136 C-112.67 135.34 -112.34 134.68 -112 134 C-111.34 134 -110.68 134 -110 134 C-109.731875 133.2575 -109.46375 132.515 -109.1875 131.75 C-108.04702351 129.10889655 -106.71322928 127.28430571 -105 125 C-104.28837557 123.35202764 -103.60968047 121.68834592 -103 120 C-102.01 120 -101.02 120 -100 120 C-99.505 118.515 -99.505 118.515 -99 117 C-98.34 117 -97.68 117 -97 117 C-96.505 115.02 -96.505 115.02 -96 113 C-95.34 113 -94.68 113 -94 113 C-93.34 111.35 -92.68 109.7 -92 108 C-91.34 108 -90.68 108 -90 108 C-89.73703125 107.42765625 -89.4740625 106.8553125 -89.203125 106.265625 C-87.9232977 103.85556061 -86.45195352 101.88127512 -84.75 99.75 C-84.13382812 98.96882812 -83.51765625 98.18765625 -82.8828125 97.3828125 C-82.26148438 96.59648438 -81.64015625 95.81015625 -81 95 C-79.8685257 93.54668413 -78.74302161 92.08869013 -77.625 90.625 C-77.14289063 89.99851562 -76.66078125 89.37203125 -76.1640625 88.7265625 C-74.81511762 86.89224181 -74.81511762 86.89224181 -74 84 C-73.278125 83.46375 -72.55625 82.9275 -71.8125 82.375 C-68.48646547 79.56634862 -66.58707188 76.51710967 -64.33203125 72.828125 C-63.89246094 72.22484375 -63.45289063 71.6215625 -63 71 C-62.34 71 -61.68 71 -61 71 C-61 70.01 -61 69.02 -61 68 C-59.37550757 66.29220027 -57.70779973 64.62449243 -56 63 C-55.505 62.01 -55.505 62.01 -55 61 C-54.34 61 -53.68 61 -53 61 C-52.7525 60.278125 -52.505 59.55625 -52.25 58.8125 C-50.87730408 55.72393418 -49.27646704 53.48988582 -47 51 C-46.34 51 -45.68 51 -45 51 C-44.73574219 50.43667969 -44.47148437 49.87335937 -44.19921875 49.29296875 C-40.28624104 41.81115143 -34.6980454 34.22425012 -29 28 C-28.34 28 -27.68 28 -27 28 C-26.65195312 26.93845703 -26.65195312 26.93845703 -26.296875 25.85546875 C-24.74610291 22.44096754 -22.72773225 20.12435069 -20.25 17.3125 C-16.3094748 12.7599993 -13.06336838 8.16201155 -10.15625 2.86328125 C-7.73872502 -1.03252759 -4.18960157 -0.76809362 0 0 Z " fill="#51863B" transform="translate(259,571)"/>
<path d="M0 0 C0.33 0 0.66 0 1 0 C1 2.31 1 4.62 1 7 C1.66 7 2.32 7 3 7 C3 7.99 3 8.98 3 10 C1.35 9.67 -0.3 9.34 -2 9 C-1.34 6.03 -0.68 3.06 0 0 Z " fill="#00E400" transform="translate(422,786)"/>
<path d="M0 0 C0.66 0.66 1.32 1.32 2 2 C0.02 4.31 -1.96 6.62 -4 9 C-4.66 8.67 -5.32 8.34 -6 8 C-4.02 5.36 -2.04 2.72 0 0 Z " fill="#3CA121" transform="translate(374,415)"/>
<path d="M0 0 C1.32 0 2.64 0 4 0 C4 1.65 4 3.3 4 5 C3.01 5.33 2.02 5.66 1 6 C0.67 4.02 0.34 2.04 0 0 Z " fill="#3F9A29" transform="translate(629,84)"/>
<path d="M0 0 C0.33 0.99 0.66 1.98 1 3 C0.01 3.33 -0.98 3.66 -2 4 C-2.165 4.66 -2.33 5.32 -2.5 6 C-2.665 6.66 -2.83 7.32 -3 8 C-3.99 8.33 -4.98 8.66 -6 9 C-5.67 8.01 -5.34 7.02 -5 6 C-4.34 6 -3.68 6 -3 6 C-3 5.01 -3 4.02 -3 3 C-1.5 1.3125 -1.5 1.3125 0 0 Z " fill="#449D23" transform="translate(146,707)"/>
<path d="M0 0 C1.65 0 3.3 0 5 0 C5 0.33 5 0.66 5 1 C3.35 1 1.7 1 0 1 C0 0.67 0 0.34 0 0 Z " fill="#00FF00" transform="translate(1196,340)"/>
<path d="M0 0 C1.65 0 3.3 0 5 0 C5 0.33 5 0.66 5 1 C3.35 1 1.7 1 0 1 C0 0.67 0 0.34 0 0 Z " fill="#00FF00" transform="translate(433,340)"/>
<path d="M0 0 C0.33 0.66 0.66 1.32 1 2 C0.34 1.67 -0.32 1.34 -1 1 C-0.67 0.67 -0.34 0.34 0 0 Z " fill="#00FF00" transform="translate(577,442)"/>
<path d="M0 0 C0.99 0.495 0.99 0.495 2 1 C1.01 1.495 1.01 1.495 0 2 C0 1.34 0 0.68 0 0 Z " fill="#00FF00" transform="translate(563,171)"/>
<path d="" fill="#00FF00" transform="translate(0,0)"/>
<path d="" fill="#00FF00" transform="translate(0,0)"/>
<path d="" fill="#00FF00" transform="translate(0,0)"/>
<path d="" fill="#00FF00" transform="translate(0,0)"/>
<path d="" fill="#00FF00" transform="translate(0,0)"/>
<path d="" fill="#00FF00" transform="translate(0,0)"/>
<path d="" fill="#00FF00" transform="translate(0,0)"/>
<path d="" fill="#00FF00" transform="translate(0,0)"/>
<path d="" fill="#00FF00" transform="translate(0,0)"/>
<path d="" fill="#00FF00" transform="translate(0,0)"/>
<path d="" fill="#00FF00" transform="translate(0,0)"/>
<path d="" fill="#00FF00" transform="translate(0,0)"/>
<path d="" fill="#00FF00" transform="translate(0,0)"/>
<path d="" fill="#00FF00" transform="translate(0,0)"/>
<path d="" fill="#00FF00" transform="translate(0,0)"/>
<path d="" fill="#00FF00" transform="translate(0,0)"/>
<path d="" fill="#00FF00" transform="translate(0,0)"/>
<path d="" fill="#00FF00" transform="translate(0,0)"/>
<path d="" fill="#00FF00" transform="translate(0,0)"/>
<path d="" fill="#00FF00" transform="translate(0,0)"/>
<path d="" fill="#00FF00" transform="translate(0,0)"/>
<path d="" fill="#00FF00" transform="translate(0,0)"/>
<path d="" fill="#00FF00" transform="translate(0,0)"/>
<path d="" fill="#00FF00" transform="translate(0,0)"/>
<path d="" fill="#00FF00" transform="translate(0,0)"/>
<path d="" fill="#00FF00" transform="translate(0,0)"/>
<path d="" fill="#00FF00" transform="translate(0,0)"/>
<path d="" fill="#00FF00" transform="translate(0,0)"/>
<path d="" fill="#00FF00" transform="translate(0,0)"/>
<path d="" fill="#00FF00" transform="translate(0,0)"/>
<path d="" fill="#00FF00" transform="translate(0,0)"/>
<path d="" fill="#00FF00" transform="translate(0,0)"/>
<path d="" fill="#00FF00" transform="translate(0,0)"/>
<path d="" fill="#00FF00" transform="translate(0,0)"/>
<path d="" fill="#00FF00" transform="translate(0,0)"/>
<path d="" fill="#00FF00" transform="translate(0,0)"/>
</svg>
