<svg xmlns="http://www.w3.org/2000/svg" xmlns:xlink="http://www.w3.org/1999/xlink" width="3450" zoomAndPan="magnify" viewBox="0 0 2587.5 3449.999975" height="4600" preserveAspectRatio="xMidYMid meet" version="1.0"><defs><clipPath id="9e93c91c9e"><path d="M 989 2638.976562 L 1534 2638.976562 L 1534 3144 L 989 3144 Z M 989 2638.976562 " clip-rule="nonzero"/></clipPath><clipPath id="fd7d55044d"><path d="M 989 2638.976562 L 1534 2638.976562 L 1534 3144 L 989 3144 Z M 989 2638.976562 " clip-rule="nonzero"/></clipPath></defs><path fill="#ffffff" d="M 1292.851562 3100.050781 C 1360.816406 3131.945312 1434.335938 3171.324219 1497.023438 3103.082031 C 1531.90625 3065.105469 1537.925781 3010.472656 1512.140625 2965.816406 L 1363.261719 2707.945312 C 1341.996094 2671.117188 1304.746094 2649.605469 1262.21875 2649.605469 C 1219.6875 2649.605469 1182.4375 2671.117188 1161.171875 2707.945312 L 1012.292969 2965.816406 C 986.507812 3010.472656 992.527344 3065.105469 1027.410156 3103.082031 C 1108.152344 3190.980469 1277.085938 3093.285156 1336.484375 3028.402344 C 1369.808594 2992.003906 1390.265625 2946.042969 1386.511719 2893.367188 C 1382.421875 2835.945312 1346.378906 2777.34375 1288.070312 2762.589844 C 1279.617188 2760.453125 1270.9375 2759.355469 1262.21875 2759.355469 C 1253.496094 2759.355469 1244.816406 2760.453125 1236.363281 2762.589844 C 1178.054688 2777.34375 1142.011719 2835.945312 1137.921875 2893.367188 C 1133.699219 2952.625 1162.816406 3006.710938 1203.722656 3044.921875 C 1211.546875 3044.183594 1220.746094 3040.828125 1234.578125 3030.136719 C 1121.1875 2935.109375 1179.675781 2790.949219 1262.21875 2790.949219 C 1346.070312 2790.949219 1408.953125 2935.4375 1288.0625 3030.472656 C 1235.867188 3071.507812 1107.496094 3143.5625 1050.679688 3081.710938 C 1025.117188 3053.882812 1020.761719 3014.335938 1039.652344 2981.613281 L 1188.535156 2723.742188 C 1204.15625 2696.6875 1230.976562 2681.203125 1262.21875 2681.203125 C 1293.457031 2681.203125 1320.277344 2696.6875 1335.898438 2723.742188 L 1484.78125 2981.609375 C 1503.671875 3014.335938 1499.316406 3053.882812 1473.753906 3081.707031 C 1428.808594 3130.632812 1374.128906 3101.617188 1324.609375 3077.121094 C 1318.238281 3082.503906 1306.589844 3091.691406 1292.851562 3100.050781 Z M 1292.851562 3100.050781 " fill-opacity="1" fill-rule="evenodd"/><path fill="#ffffff" d="M 1216.324219 2862.042969 L 1251.035156 2862.042969 L 1251.035156 2896.753906 L 1216.324219 2896.753906 Z M 1251.035156 2919.117188 L 1251.035156 2953.828125 L 1216.324219 2953.828125 L 1216.324219 2919.117188 Z M 1273.398438 2862.042969 L 1308.109375 2862.042969 L 1308.109375 2896.753906 L 1273.398438 2896.753906 Z M 1308.109375 2919.117188 L 1308.109375 2953.828125 L 1273.398438 2953.828125 L 1273.398438 2919.117188 Z M 1308.109375 2919.117188 " fill-opacity="1" fill-rule="evenodd"/><g clip-path="url(#9e93c91c9e)"><path fill="#ffffff" d="M 1517.171875 2958.484375 L 1368.296875 2700.609375 C 1357.269531 2681.527344 1341.710938 2665.828125 1323.304688 2655.203125 C 1304.894531 2644.574219 1283.511719 2638.953125 1261.476562 2638.953125 C 1239.441406 2638.953125 1218.078125 2644.574219 1199.664062 2655.203125 C 1181.25 2665.832031 1165.695312 2681.535156 1154.6875 2700.613281 L 1005.785156 2958.484375 C 992.425781 2981.625 986.882812 3007.625 989.753906 3033.679688 C 992.625 3059.730469 1003.699219 3083.898438 1021.777344 3103.570312 C 1044.417969 3128.21875 1074.914062 3140.714844 1112.421875 3140.710938 L 1112.550781 3140.710938 C 1160.9375 3140.675781 1209.757812 3119.894531 1242.199219 3102.472656 C 1280.527344 3081.878906 1317.339844 3054.378906 1340.667969 3028.90625 C 1378.136719 2987.9375 1396.027344 2939.519531 1392.40625 2888.882812 C 1390.246094 2858.507812 1379.5625 2828.410156 1362.3125 2804.125 C 1343.386719 2777.472656 1318.027344 2759.5 1289 2752.148438 C 1280.097656 2749.867188 1270.839844 2748.710938 1261.476562 2748.710938 C 1252.117188 2748.710938 1242.890625 2749.867188 1234.007812 2752.144531 C 1204.945312 2759.5 1179.574219 2777.472656 1160.644531 2804.125 C 1143.398438 2828.40625 1132.707031 2858.507812 1130.546875 2888.882812 C 1126.59375 2944.605469 1151.34375 3001.792969 1198.449219 3045.789062 C 1199.839844 3047.09375 1201.71875 3047.730469 1203.628906 3047.550781 C 1214.179688 3046.535156 1224.753906 3041.558594 1237.914062 3031.410156 C 1239.511719 3030.179688 1240.464844 3028.292969 1240.503906 3026.273438 C 1240.546875 3024.261719 1239.671875 3022.332031 1238.128906 3021.039062 C 1174.488281 2967.707031 1169.082031 2901.210938 1185.246094 2856.765625 C 1199.195312 2818.394531 1229.121094 2793.601562 1261.476562 2793.601562 C 1295.355469 2793.601562 1327.339844 2820.265625 1341.070312 2859.953125 C 1356.296875 2903.957031 1349.089844 2969.433594 1283.199219 3021.222656 C 1241.613281 3053.929688 1110.390625 3133.671875 1054.84375 3073.1875 C 1031.179688 3047.429688 1027.191406 3011.214844 1044.6875 2980.933594 L 1193.558594 2723.0625 C 1207.957031 2698.140625 1232.710938 2683.847656 1261.476562 2683.847656 C 1290.242188 2683.847656 1315.027344 2698.140625 1329.394531 2723.058594 L 1478.296875 2980.929688 C 1495.777344 3011.242188 1491.78125 3047.453125 1468.109375 3073.1875 C 1427.710938 3117.199219 1378.375 3092.710938 1330.65625 3069.03125 L 1326.84375 3067.140625 C 1324.464844 3065.960938 1321.613281 3066.3125 1319.585938 3068.027344 C 1315.175781 3071.765625 1303.328125 3081.425781 1288.65625 3090.371094 C 1286.5625 3091.648438 1285.339844 3093.96875 1285.472656 3096.417969 C 1285.605469 3098.863281 1287.074219 3101.039062 1289.292969 3102.082031 C 1292.355469 3103.519531 1295.429688 3104.972656 1298.515625 3106.429688 C 1336.097656 3124.1875 1376.550781 3143.300781 1416.15625 3143.300781 C 1445.46875 3143.300781 1474.320312 3132.824219 1501.175781 3103.574219 C 1519.265625 3083.90625 1530.34375 3059.734375 1533.214844 3033.679688 C 1536.082031 3007.632812 1530.535156 2981.632812 1517.171875 2958.488281 Z M 1491.371094 3094.566406 C 1435.324219 3155.613281 1369.53125 3125.253906 1305.796875 3095.144531 C 1313.847656 3089.671875 1320.5 3084.496094 1324.808594 3080.988281 C 1349.652344 3093.316406 1375.339844 3106.058594 1401.160156 3109.835938 C 1431.636719 3114.296875 1456.746094 3105.25 1477.910156 3082.195312 C 1505.597656 3052.09375 1510.277344 3009.734375 1489.824219 2974.277344 L 1340.925781 2716.40625 C 1324.117188 2687.257812 1295.160156 2670.539062 1261.476562 2670.539062 C 1227.792969 2670.539062 1198.871094 2687.253906 1182.03125 2716.402344 L 1033.160156 2974.273438 C 1012.695312 3009.699219 1017.359375 3052.058594 1045.039062 3082.191406 C 1061.027344 3099.601562 1083.410156 3108.363281 1111.15625 3108.363281 C 1129.386719 3108.363281 1149.9375 3104.574219 1172.496094 3096.96875 C 1218.851562 3081.339844 1264.328125 3052.996094 1291.425781 3031.6875 C 1323.480469 3006.492188 1344.863281 2976.730469 1354.988281 2943.226562 C 1363.828125 2913.976562 1363.363281 2883.675781 1353.648438 2855.597656 C 1338.066406 2810.554688 1301.023438 2780.292969 1261.476562 2780.292969 C 1223.453125 2780.292969 1188.621094 2808.523438 1172.734375 2852.214844 C 1155.597656 2899.339844 1160.332031 2968.871094 1223.15625 3025.652344 C 1215.042969 3031.074219 1209.429688 3033.082031 1205.238281 3033.890625 C 1162.574219 2992.957031 1140.222656 2940.617188 1143.824219 2889.828125 C 1147.351562 2840.226562 1178.097656 2780.019531 1237.292969 2765.046875 C 1252.960938 2761.027344 1270.046875 2761.03125 1285.714844 2765.050781 C 1344.867188 2780.023438 1375.605469 2840.226562 1379.128906 2889.832031 C 1382.484375 2936.734375 1365.789062 2981.71875 1330.847656 3019.917969 C 1291.1875 3063.230469 1194.375 3127.339844 1112.542969 3127.402344 L 1112.425781 3127.402344 C 1078.796875 3127.402344 1051.597656 3116.355469 1031.582031 3094.566406 C 998.890625 3058.992188 993.15625 3006.980469 1017.3125 2965.144531 L 1166.214844 2707.269531 C 1186.386719 2672.3125 1221.109375 2652.265625 1261.476562 2652.265625 C 1301.84375 2652.265625 1336.566406 2672.316406 1356.773438 2707.269531 L 1505.644531 2965.140625 C 1529.808594 3007 1524.078125 3059.007812 1491.371094 3094.566406 Z M 1215.578125 2899.402344 L 1250.300781 2899.402344 C 1253.976562 2899.402344 1256.957031 2896.421875 1256.957031 2892.746094 L 1256.957031 2858.023438 C 1256.957031 2854.347656 1253.976562 2851.367188 1250.300781 2851.367188 L 1215.578125 2851.367188 C 1211.902344 2851.367188 1208.921875 2854.34375 1208.921875 2858.023438 L 1208.921875 2892.746094 C 1208.921875 2896.421875 1211.902344 2899.402344 1215.578125 2899.402344 Z M 1222.234375 2864.679688 L 1243.644531 2864.679688 L 1243.644531 2886.089844 L 1222.234375 2886.089844 Z M 1208.921875 2949.820312 C 1208.921875 2953.496094 1211.902344 2956.476562 1215.578125 2956.476562 L 1250.300781 2956.476562 C 1253.976562 2956.476562 1256.957031 2953.496094 1256.957031 2949.820312 L 1256.957031 2915.097656 C 1256.957031 2911.421875 1253.976562 2908.441406 1250.300781 2908.441406 L 1215.578125 2908.441406 C 1211.902344 2908.441406 1208.921875 2911.421875 1208.921875 2915.097656 Z M 1222.234375 2921.753906 L 1243.644531 2921.753906 L 1243.644531 2943.164062 L 1222.234375 2943.164062 Z M 1272.652344 2899.398438 L 1307.375 2899.398438 C 1311.050781 2899.398438 1314.03125 2896.421875 1314.03125 2892.742188 L 1314.03125 2858.019531 C 1314.03125 2854.34375 1311.054688 2851.363281 1307.375 2851.363281 L 1272.652344 2851.363281 C 1268.976562 2851.363281 1265.996094 2854.34375 1265.996094 2858.019531 L 1265.996094 2892.742188 C 1265.996094 2896.417969 1268.976562 2899.398438 1272.652344 2899.398438 Z M 1279.308594 2864.675781 L 1300.71875 2864.675781 L 1300.71875 2886.085938 L 1279.308594 2886.085938 Z M 1265.996094 2949.816406 C 1265.996094 2953.492188 1268.976562 2956.472656 1272.652344 2956.472656 L 1307.375 2956.472656 C 1311.050781 2956.472656 1314.03125 2953.496094 1314.03125 2949.816406 L 1314.03125 2915.097656 C 1314.03125 2911.421875 1311.054688 2908.441406 1307.375 2908.441406 L 1272.652344 2908.441406 C 1268.976562 2908.441406 1265.996094 2911.417969 1265.996094 2915.097656 Z M 1279.308594 2921.753906 L 1300.71875 2921.753906 L 1300.71875 2943.160156 L 1279.308594 2943.160156 Z M 1279.308594 2921.753906 " fill-opacity="1" fill-rule="nonzero"/></g><path fill="#ffffff" d="M 1292.851562 3100.050781 C 1360.816406 3131.945312 1434.335938 3171.324219 1497.023438 3103.082031 C 1531.90625 3065.105469 1537.925781 3010.472656 1512.140625 2965.816406 L 1363.261719 2707.945312 C 1341.996094 2671.117188 1304.746094 2649.605469 1262.21875 2649.605469 C 1219.6875 2649.605469 1182.4375 2671.117188 1161.171875 2707.945312 L 1012.292969 2965.816406 C 986.507812 3010.472656 992.527344 3065.105469 1027.410156 3103.082031 C 1108.152344 3190.980469 1277.085938 3093.285156 1336.484375 3028.402344 C 1369.808594 2992.003906 1390.265625 2946.042969 1386.511719 2893.367188 C 1382.421875 2835.945312 1346.378906 2777.34375 1288.070312 2762.589844 C 1279.617188 2760.453125 1270.9375 2759.355469 1262.21875 2759.355469 C 1253.496094 2759.355469 1244.816406 2760.453125 1236.363281 2762.589844 C 1178.054688 2777.34375 1142.011719 2835.945312 1137.921875 2893.367188 C 1133.699219 2952.625 1162.816406 3006.710938 1203.722656 3044.921875 C 1211.546875 3044.183594 1220.746094 3040.828125 1234.578125 3030.136719 C 1121.1875 2935.109375 1179.675781 2790.949219 1262.21875 2790.949219 C 1346.070312 2790.949219 1408.953125 2935.4375 1288.0625 3030.472656 C 1235.867188 3071.507812 1107.496094 3143.5625 1050.679688 3081.710938 C 1025.117188 3053.882812 1020.761719 3014.335938 1039.652344 2981.613281 L 1188.535156 2723.742188 C 1204.15625 2696.6875 1230.976562 2681.203125 1262.21875 2681.203125 C 1293.457031 2681.203125 1320.277344 2696.6875 1335.898438 2723.742188 L 1484.78125 2981.609375 C 1503.671875 3014.335938 1499.316406 3053.882812 1473.753906 3081.707031 C 1428.808594 3130.632812 1374.128906 3101.617188 1324.609375 3077.121094 C 1318.238281 3082.503906 1306.589844 3091.691406 1292.851562 3100.050781 Z M 1292.851562 3100.050781 " fill-opacity="1" fill-rule="evenodd"/><path fill="#ffffff" d="M 1216.324219 2862.042969 L 1251.035156 2862.042969 L 1251.035156 2896.753906 L 1216.324219 2896.753906 Z M 1251.035156 2919.117188 L 1251.035156 2953.828125 L 1216.324219 2953.828125 L 1216.324219 2919.117188 Z M 1273.398438 2862.042969 L 1308.109375 2862.042969 L 1308.109375 2896.753906 L 1273.398438 2896.753906 Z M 1308.109375 2919.117188 L 1308.109375 2953.828125 L 1273.398438 2953.828125 L 1273.398438 2919.117188 Z M 1308.109375 2919.117188 " fill-opacity="1" fill-rule="evenodd"/><g clip-path="url(#fd7d55044d)"><path fill="#ffffff" d="M 1517.171875 2958.484375 L 1368.296875 2700.609375 C 1357.269531 2681.527344 1341.710938 2665.828125 1323.304688 2655.203125 C 1304.894531 2644.574219 1283.511719 2638.953125 1261.476562 2638.953125 C 1239.441406 2638.953125 1218.078125 2644.574219 1199.664062 2655.203125 C 1181.25 2665.832031 1165.695312 2681.535156 1154.6875 2700.613281 L 1005.785156 2958.484375 C 992.425781 2981.625 986.882812 3007.625 989.753906 3033.679688 C 992.625 3059.730469 1003.699219 3083.898438 1021.777344 3103.570312 C 1044.417969 3128.21875 1074.914062 3140.714844 1112.421875 3140.710938 L 1112.550781 3140.710938 C 1160.9375 3140.675781 1209.757812 3119.894531 1242.199219 3102.472656 C 1280.527344 3081.878906 1317.339844 3054.378906 1340.667969 3028.90625 C 1378.136719 2987.9375 1396.027344 2939.519531 1392.40625 2888.882812 C 1390.246094 2858.507812 1379.5625 2828.410156 1362.3125 2804.125 C 1343.386719 2777.472656 1318.027344 2759.5 1289 2752.148438 C 1280.097656 2749.867188 1270.839844 2748.710938 1261.476562 2748.710938 C 1252.117188 2748.710938 1242.890625 2749.867188 1234.007812 2752.144531 C 1204.945312 2759.5 1179.574219 2777.472656 1160.644531 2804.125 C 1143.398438 2828.40625 1132.707031 2858.507812 1130.546875 2888.882812 C 1126.59375 2944.605469 1151.34375 3001.792969 1198.449219 3045.789062 C 1199.839844 3047.09375 1201.71875 3047.730469 1203.628906 3047.550781 C 1214.179688 3046.535156 1224.753906 3041.558594 1237.914062 3031.410156 C 1239.511719 3030.179688 1240.464844 3028.292969 1240.503906 3026.273438 C 1240.546875 3024.261719 1239.671875 3022.332031 1238.128906 3021.039062 C 1174.488281 2967.707031 1169.082031 2901.210938 1185.246094 2856.765625 C 1199.195312 2818.394531 1229.121094 2793.601562 1261.476562 2793.601562 C 1295.355469 2793.601562 1327.339844 2820.265625 1341.070312 2859.953125 C 1356.296875 2903.957031 1349.089844 2969.433594 1283.199219 3021.222656 C 1241.613281 3053.929688 1110.390625 3133.671875 1054.84375 3073.1875 C 1031.179688 3047.429688 1027.191406 3011.214844 1044.6875 2980.933594 L 1193.558594 2723.0625 C 1207.957031 2698.140625 1232.710938 2683.847656 1261.476562 2683.847656 C 1290.242188 2683.847656 1315.027344 2698.140625 1329.394531 2723.058594 L 1478.296875 2980.929688 C 1495.777344 3011.242188 1491.78125 3047.453125 1468.109375 3073.1875 C 1427.710938 3117.199219 1378.375 3092.710938 1330.65625 3069.03125 L 1326.84375 3067.140625 C 1324.464844 3065.960938 1321.613281 3066.3125 1319.585938 3068.027344 C 1315.175781 3071.765625 1303.328125 3081.425781 1288.65625 3090.371094 C 1286.5625 3091.648438 1285.339844 3093.96875 1285.472656 3096.417969 C 1285.605469 3098.863281 1287.074219 3101.039062 1289.292969 3102.082031 C 1292.355469 3103.519531 1295.429688 3104.972656 1298.515625 3106.429688 C 1336.097656 3124.1875 1376.550781 3143.300781 1416.15625 3143.300781 C 1445.46875 3143.300781 1474.320312 3132.824219 1501.175781 3103.574219 C 1519.265625 3083.90625 1530.34375 3059.734375 1533.214844 3033.679688 C 1536.082031 3007.632812 1530.535156 2981.632812 1517.171875 2958.488281 Z M 1491.371094 3094.566406 C 1435.324219 3155.613281 1369.53125 3125.253906 1305.796875 3095.144531 C 1313.847656 3089.671875 1320.5 3084.496094 1324.808594 3080.988281 C 1349.652344 3093.316406 1375.339844 3106.058594 1401.160156 3109.835938 C 1431.636719 3114.296875 1456.746094 3105.25 1477.910156 3082.195312 C 1505.597656 3052.09375 1510.277344 3009.734375 1489.824219 2974.277344 L 1340.925781 2716.40625 C 1324.117188 2687.257812 1295.160156 2670.539062 1261.476562 2670.539062 C 1227.792969 2670.539062 1198.871094 2687.253906 1182.03125 2716.402344 L 1033.160156 2974.273438 C 1012.695312 3009.699219 1017.359375 3052.058594 1045.039062 3082.191406 C 1061.027344 3099.601562 1083.410156 3108.363281 1111.15625 3108.363281 C 1129.386719 3108.363281 1149.9375 3104.574219 1172.496094 3096.96875 C 1218.851562 3081.339844 1264.328125 3052.996094 1291.425781 3031.6875 C 1323.480469 3006.492188 1344.863281 2976.730469 1354.988281 2943.226562 C 1363.828125 2913.976562 1363.363281 2883.675781 1353.648438 2855.597656 C 1338.066406 2810.554688 1301.023438 2780.292969 1261.476562 2780.292969 C 1223.453125 2780.292969 1188.621094 2808.523438 1172.734375 2852.214844 C 1155.597656 2899.339844 1160.332031 2968.871094 1223.15625 3025.652344 C 1215.042969 3031.074219 1209.429688 3033.082031 1205.238281 3033.890625 C 1162.574219 2992.957031 1140.222656 2940.617188 1143.824219 2889.828125 C 1147.351562 2840.226562 1178.097656 2780.019531 1237.292969 2765.046875 C 1252.960938 2761.027344 1270.046875 2761.03125 1285.714844 2765.050781 C 1344.867188 2780.023438 1375.605469 2840.226562 1379.128906 2889.832031 C 1382.484375 2936.734375 1365.789062 2981.71875 1330.847656 3019.917969 C 1291.1875 3063.230469 1194.375 3127.339844 1112.542969 3127.402344 L 1112.425781 3127.402344 C 1078.796875 3127.402344 1051.597656 3116.355469 1031.582031 3094.566406 C 998.890625 3058.992188 993.15625 3006.980469 1017.3125 2965.144531 L 1166.214844 2707.269531 C 1186.386719 2672.3125 1221.109375 2652.265625 1261.476562 2652.265625 C 1301.84375 2652.265625 1336.566406 2672.316406 1356.773438 2707.269531 L 1505.644531 2965.140625 C 1529.808594 3007 1524.078125 3059.007812 1491.371094 3094.566406 Z M 1215.578125 2899.402344 L 1250.300781 2899.402344 C 1253.976562 2899.402344 1256.957031 2896.421875 1256.957031 2892.746094 L 1256.957031 2858.023438 C 1256.957031 2854.347656 1253.976562 2851.367188 1250.300781 2851.367188 L 1215.578125 2851.367188 C 1211.902344 2851.367188 1208.921875 2854.34375 1208.921875 2858.023438 L 1208.921875 2892.746094 C 1208.921875 2896.421875 1211.902344 2899.402344 1215.578125 2899.402344 Z M 1222.234375 2864.679688 L 1243.644531 2864.679688 L 1243.644531 2886.089844 L 1222.234375 2886.089844 Z M 1208.921875 2949.820312 C 1208.921875 2953.496094 1211.902344 2956.476562 1215.578125 2956.476562 L 1250.300781 2956.476562 C 1253.976562 2956.476562 1256.957031 2953.496094 1256.957031 2949.820312 L 1256.957031 2915.097656 C 1256.957031 2911.421875 1253.976562 2908.441406 1250.300781 2908.441406 L 1215.578125 2908.441406 C 1211.902344 2908.441406 1208.921875 2911.421875 1208.921875 2915.097656 Z M 1222.234375 2921.753906 L 1243.644531 2921.753906 L 1243.644531 2943.164062 L 1222.234375 2943.164062 Z M 1272.652344 2899.398438 L 1307.375 2899.398438 C 1311.050781 2899.398438 1314.03125 2896.421875 1314.03125 2892.742188 L 1314.03125 2858.019531 C 1314.03125 2854.34375 1311.054688 2851.363281 1307.375 2851.363281 L 1272.652344 2851.363281 C 1268.976562 2851.363281 1265.996094 2854.34375 1265.996094 2858.019531 L 1265.996094 2892.742188 C 1265.996094 2896.417969 1268.976562 2899.398438 1272.652344 2899.398438 Z M 1279.308594 2864.675781 L 1300.71875 2864.675781 L 1300.71875 2886.085938 L 1279.308594 2886.085938 Z M 1265.996094 2949.816406 C 1265.996094 2953.492188 1268.976562 2956.472656 1272.652344 2956.472656 L 1307.375 2956.472656 C 1311.050781 2956.472656 1314.03125 2953.496094 1314.03125 2949.816406 L 1314.03125 2915.097656 C 1314.03125 2911.421875 1311.054688 2908.441406 1307.375 2908.441406 L 1272.652344 2908.441406 C 1268.976562 2908.441406 1265.996094 2911.417969 1265.996094 2915.097656 Z M 1279.308594 2921.753906 L 1300.71875 2921.753906 L 1300.71875 2943.160156 L 1279.308594 2943.160156 Z M 1279.308594 2921.753906 " fill-opacity="1" fill-rule="nonzero"/></g></svg>