<svg xmlns="http://www.w3.org/2000/svg" xmlns:xlink="http://www.w3.org/1999/xlink" width="40" zoomAndPan="magnify" viewBox="0 0 30 30.000001" height="40" preserveAspectRatio="xMidYMid meet" version="1.0"><defs><clipPath id="0e7e9a5c82"><path d="M 0.484375 5.699219 L 5 5.699219 L 5 23.117188 L 0.484375 23.117188 Z M 0.484375 5.699219 " clip-rule="nonzero"/></clipPath><clipPath id="0149a1e4c8"><path d="M 25 12 L 29.515625 12 L 29.515625 23.117188 L 25 23.117188 Z M 25 12 " clip-rule="nonzero"/></clipPath><clipPath id="2d1173249e"><path d="M 0.484375 5.699219 L 5 5.699219 L 5 23.117188 L 0.484375 23.117188 Z M 0.484375 5.699219 " clip-rule="nonzero"/></clipPath><clipPath id="b298774c2b"><path d="M 25 12 L 29.515625 12 L 29.515625 23.117188 L 25 23.117188 Z M 25 12 " clip-rule="nonzero"/></clipPath></defs><path fill="#63916d" d="M 10.335938 14.515625 C 10.335938 14.859375 10.269531 15.1875 10.136719 15.507812 C 10.003906 15.824219 9.816406 16.105469 9.574219 16.347656 C 9.332031 16.589844 9.050781 16.777344 8.734375 16.910156 C 8.417969 17.042969 8.085938 17.105469 7.742188 17.105469 C 7.398438 17.105469 7.066406 17.042969 6.75 16.910156 C 6.433594 16.777344 6.152344 16.589844 5.910156 16.347656 C 5.664062 16.105469 5.480469 15.824219 5.347656 15.507812 C 5.214844 15.1875 5.148438 14.859375 5.148438 14.515625 C 5.148438 14.171875 5.214844 13.839844 5.347656 13.523438 C 5.480469 13.207031 5.664062 12.925781 5.910156 12.683594 C 6.152344 12.4375 6.433594 12.25 6.75 12.121094 C 7.066406 11.988281 7.398438 11.921875 7.742188 11.921875 C 8.085938 11.921875 8.417969 11.988281 8.734375 12.121094 C 9.050781 12.25 9.332031 12.4375 9.574219 12.683594 C 9.816406 12.925781 10.003906 13.207031 10.136719 13.523438 C 10.269531 13.839844 10.335938 14.171875 10.335938 14.515625 Z M 10.335938 14.515625 " fill-opacity="1" fill-rule="nonzero"/><g clip-path="url(#0e7e9a5c82)"><path fill="#63916d" d="M 2.296875 5.703125 C 2.539062 5.703125 2.769531 5.746094 2.992188 5.839844 C 3.214844 5.933594 3.410156 6.0625 3.582031 6.234375 C 3.75 6.402344 3.882812 6.597656 3.976562 6.820312 C 4.066406 7.042969 4.113281 7.277344 4.113281 7.515625 L 4.113281 23.328125 L 0.484375 23.328125 L 0.484375 7.515625 C 0.484375 7.277344 0.53125 7.042969 0.621094 6.820312 C 0.714844 6.597656 0.84375 6.402344 1.015625 6.234375 C 1.183594 6.0625 1.382812 5.933594 1.605469 5.839844 C 1.828125 5.746094 2.058594 5.703125 2.296875 5.703125 Z M 2.296875 5.703125 " fill-opacity="1" fill-rule="nonzero"/></g><g clip-path="url(#0149a1e4c8)"><path fill="#63916d" d="M 27.703125 12.960938 C 27.941406 12.960938 28.171875 13.003906 28.394531 13.097656 C 28.617188 13.191406 28.816406 13.320312 28.984375 13.492188 C 29.15625 13.660156 29.285156 13.859375 29.378906 14.078125 C 29.46875 14.300781 29.515625 14.535156 29.515625 14.773438 L 29.515625 23.328125 L 25.886719 23.328125 L 25.886719 14.773438 C 25.886719 14.535156 25.933594 14.300781 26.023438 14.078125 C 26.117188 13.859375 26.25 13.660156 26.417969 13.492188 C 26.589844 13.320312 26.785156 13.191406 27.007812 13.097656 C 27.230469 13.003906 27.460938 12.960938 27.703125 12.960938 Z M 27.703125 12.960938 " fill-opacity="1" fill-rule="nonzero"/></g><path fill="#63916d" d="M 25.367188 17.105469 L 25.367188 15.320312 C 21.296875 10.34375 11.371094 11.527344 11.371094 11.527344 L 11.371094 17.105469 Z M 25.367188 17.105469 " fill-opacity="1" fill-rule="nonzero"/><path fill="#63916d" d="M 4.632812 17.625 L 25.367188 17.625 L 25.367188 21.253906 L 4.632812 21.253906 Z M 4.632812 17.625 " fill-opacity="1" fill-rule="nonzero"/><path fill="#63916d" d="M 10.335938 14.515625 C 10.335938 14.859375 10.269531 15.1875 10.136719 15.507812 C 10.003906 15.824219 9.816406 16.105469 9.574219 16.347656 C 9.332031 16.589844 9.050781 16.777344 8.734375 16.910156 C 8.417969 17.042969 8.085938 17.105469 7.742188 17.105469 C 7.398438 17.105469 7.066406 17.042969 6.75 16.910156 C 6.433594 16.777344 6.152344 16.589844 5.910156 16.347656 C 5.664062 16.105469 5.480469 15.824219 5.347656 15.507812 C 5.214844 15.1875 5.148438 14.859375 5.148438 14.515625 C 5.148438 14.171875 5.214844 13.839844 5.347656 13.523438 C 5.480469 13.207031 5.664062 12.925781 5.910156 12.683594 C 6.152344 12.4375 6.433594 12.25 6.75 12.121094 C 7.066406 11.988281 7.398438 11.921875 7.742188 11.921875 C 8.085938 11.921875 8.417969 11.988281 8.734375 12.121094 C 9.050781 12.25 9.332031 12.4375 9.574219 12.683594 C 9.816406 12.925781 10.003906 13.207031 10.136719 13.523438 C 10.269531 13.839844 10.335938 14.171875 10.335938 14.515625 Z M 10.335938 14.515625 " fill-opacity="1" fill-rule="nonzero"/><g clip-path="url(#2d1173249e)"><path fill="#63916d" d="M 2.296875 5.703125 C 2.539062 5.703125 2.769531 5.746094 2.992188 5.839844 C 3.214844 5.933594 3.410156 6.0625 3.582031 6.234375 C 3.75 6.402344 3.882812 6.597656 3.976562 6.820312 C 4.066406 7.042969 4.113281 7.277344 4.113281 7.515625 L 4.113281 23.328125 L 0.484375 23.328125 L 0.484375 7.515625 C 0.484375 7.277344 0.53125 7.042969 0.621094 6.820312 C 0.714844 6.597656 0.84375 6.402344 1.015625 6.234375 C 1.183594 6.0625 1.382812 5.933594 1.605469 5.839844 C 1.828125 5.746094 2.058594 5.703125 2.296875 5.703125 Z M 2.296875 5.703125 " fill-opacity="1" fill-rule="nonzero"/></g><g clip-path="url(#b298774c2b)"><path fill="#63916d" d="M 27.703125 12.960938 C 27.941406 12.960938 28.171875 13.003906 28.394531 13.097656 C 28.617188 13.191406 28.816406 13.320312 28.984375 13.492188 C 29.15625 13.660156 29.285156 13.859375 29.378906 14.078125 C 29.46875 14.300781 29.515625 14.535156 29.515625 14.773438 L 29.515625 23.328125 L 25.886719 23.328125 L 25.886719 14.773438 C 25.886719 14.535156 25.933594 14.300781 26.023438 14.078125 C 26.117188 13.859375 26.25 13.660156 26.417969 13.492188 C 26.589844 13.320312 26.785156 13.191406 27.007812 13.097656 C 27.230469 13.003906 27.460938 12.960938 27.703125 12.960938 Z M 27.703125 12.960938 " fill-opacity="1" fill-rule="nonzero"/></g><path fill="#63916d" d="M 25.367188 17.105469 L 25.367188 15.320312 C 21.296875 10.34375 11.371094 11.527344 11.371094 11.527344 L 11.371094 17.105469 Z M 25.367188 17.105469 " fill-opacity="1" fill-rule="nonzero"/><path fill="#63916d" d="M 4.632812 17.625 L 25.367188 17.625 L 25.367188 21.253906 L 4.632812 21.253906 Z M 4.632812 17.625 " fill-opacity="1" fill-rule="nonzero"/></svg>