<svg xmlns="http://www.w3.org/2000/svg" xmlns:xlink="http://www.w3.org/1999/xlink" width="40" zoomAndPan="magnify" viewBox="0 0 30 30.000001" height="40" preserveAspectRatio="xMidYMid meet" version="1.0"><defs><clipPath id="daaa92098d"><path d="M 10 0 L 29.515625 0 L 29.515625 28.304688 L 10 28.304688 Z M 10 0 " clip-rule="nonzero"/></clipPath><clipPath id="e0c1097805"><path d="M 0.484375 1 L 5 1 L 5 28 L 0.484375 28 Z M 0.484375 1 " clip-rule="nonzero"/></clipPath><clipPath id="278e118055"><path d="M 10 0 L 29.515625 0 L 29.515625 28.304688 L 10 28.304688 Z M 10 0 " clip-rule="nonzero"/></clipPath><clipPath id="2926785bb2"><path d="M 0.484375 1 L 5 1 L 5 28 L 0.484375 28 Z M 0.484375 1 " clip-rule="nonzero"/></clipPath></defs><path fill="#63916d" d="M 10.4375 22.058594 C 11.875 22.957031 13.574219 23.476562 15.390625 23.476562 C 20.550781 23.476562 24.753906 19.277344 24.753906 14.113281 C 24.753906 8.953125 20.550781 4.75 15.390625 4.75 C 14.460938 4.75 13.566406 4.886719 12.71875 5.140625 L 12.667969 10.035156 C 12.660156 10.605469 12.386719 11.148438 11.929688 11.488281 L 10.230469 12.765625 Z M 10.4375 22.058594 " fill-opacity="1" fill-rule="nonzero"/><g clip-path="url(#daaa92098d)"><path fill="#63916d" d="M 15.390625 0 C 14.289062 0 13.21875 0.125 12.195312 0.363281 C 12.539062 0.621094 12.757812 1.03125 12.753906 1.492188 L 12.726562 4.109375 C 13.578125 3.882812 14.46875 3.761719 15.386719 3.761719 C 21.097656 3.761719 25.738281 8.40625 25.738281 14.113281 C 25.738281 19.820312 21.09375 24.464844 15.386719 24.464844 C 13.605469 24.464844 11.929688 24.011719 10.464844 23.214844 L 10.527344 26.082031 C 10.539062 26.5 10.421875 26.902344 10.203125 27.242188 C 11.808594 27.878906 13.558594 28.226562 15.386719 28.226562 C 23.183594 28.226562 29.503906 21.90625 29.503906 14.113281 C 29.503906 6.316406 23.183594 0 15.390625 0 Z M 15.390625 0 " fill-opacity="1" fill-rule="nonzero"/></g><path fill="#63916d" d="M 9.546875 12.042969 L 11.335938 10.699219 C 11.550781 10.539062 11.675781 10.289062 11.679688 10.023438 L 11.726562 5.496094 L 11.765625 1.480469 C 11.769531 1.257812 11.589844 1.074219 11.367188 1.070312 C 11.363281 1.070312 11.363281 1.070312 11.363281 1.070312 C 11.148438 1.070312 10.972656 1.238281 10.957031 1.449219 L 10.765625 4.851562 L 10.542969 8.882812 C 10.519531 9.207031 10.277344 9.484375 9.953125 9.519531 C 9.925781 9.523438 9.902344 9.523438 9.878906 9.523438 C 9.515625 9.523438 9.21875 9.234375 9.210938 8.871094 L 9.191406 7.101562 L 9.175781 5.839844 L 9.160156 4.640625 L 9.121094 1.460938 C 9.117188 1.253906 8.964844 1.070312 8.761719 1.046875 C 8.746094 1.046875 8.730469 1.042969 8.714844 1.042969 C 8.496094 1.042969 8.316406 1.214844 8.308594 1.433594 L 8.292969 1.914062 L 8.140625 6.539062 L 8.082031 8.265625 L 8.0625 8.859375 C 8.050781 9.214844 7.757812 9.496094 7.398438 9.496094 C 7.398438 9.496094 7.394531 9.496094 7.390625 9.496094 C 7.367188 9.496094 7.347656 9.496094 7.324219 9.492188 C 7.324219 9.492188 7.320312 9.492188 7.320312 9.492188 C 7.300781 9.492188 7.277344 9.488281 7.257812 9.480469 C 6.96875 9.417969 6.75 9.167969 6.734375 8.863281 L 6.71875 8.464844 L 6.535156 3.125 L 6.472656 1.421875 C 6.464844 1.214844 6.308594 1.039062 6.101562 1.019531 C 6.089844 1.019531 6.078125 1.019531 6.066406 1.019531 C 5.84375 1.019531 5.664062 1.195312 5.660156 1.421875 L 5.636719 3.914062 L 5.574219 9.960938 C 5.574219 9.988281 5.574219 10.019531 5.578125 10.046875 C 5.578125 10.054688 5.578125 10.0625 5.578125 10.070312 C 5.582031 10.097656 5.585938 10.125 5.59375 10.152344 C 5.59375 10.160156 5.597656 10.167969 5.597656 10.175781 C 5.601562 10.195312 5.609375 10.210938 5.613281 10.230469 C 5.617188 10.242188 5.621094 10.253906 5.625 10.265625 C 5.632812 10.285156 5.640625 10.300781 5.648438 10.320312 C 5.65625 10.335938 5.664062 10.351562 5.671875 10.367188 C 5.679688 10.378906 5.683594 10.390625 5.691406 10.398438 C 5.699219 10.410156 5.707031 10.425781 5.714844 10.4375 C 5.765625 10.515625 5.828125 10.585938 5.902344 10.644531 L 7.664062 12.023438 C 7.859375 12.175781 7.96875 12.414062 7.957031 12.660156 L 7.667969 19.398438 L 7.601562 20.921875 L 7.542969 22.246094 L 7.378906 26.078125 C 7.351562 26.691406 7.839844 27.203125 8.449219 27.210938 C 8.453125 27.210938 8.457031 27.210938 8.460938 27.210938 C 8.789062 27.210938 9.078125 27.066406 9.277344 26.835938 C 9.296875 26.8125 9.320312 26.789062 9.335938 26.761719 C 9.335938 26.761719 9.339844 26.761719 9.339844 26.757812 C 9.359375 26.734375 9.375 26.710938 9.390625 26.683594 C 9.390625 26.679688 9.394531 26.675781 9.394531 26.671875 C 9.410156 26.648438 9.421875 26.625 9.4375 26.597656 C 9.4375 26.59375 9.441406 26.585938 9.445312 26.578125 C 9.453125 26.558594 9.464844 26.535156 9.476562 26.507812 C 9.480469 26.5 9.480469 26.488281 9.484375 26.480469 C 9.492188 26.457031 9.5 26.4375 9.507812 26.414062 C 9.511719 26.398438 9.511719 26.386719 9.515625 26.371094 C 9.519531 26.351562 9.527344 26.332031 9.527344 26.316406 C 9.53125 26.296875 9.535156 26.273438 9.535156 26.253906 C 9.539062 26.238281 9.539062 26.226562 9.542969 26.210938 C 9.542969 26.175781 9.546875 26.140625 9.546875 26.101562 L 9.4375 21.335938 L 9.242188 12.675781 C 9.234375 12.425781 9.347656 12.191406 9.546875 12.042969 Z M 9.546875 12.042969 " fill-opacity="1" fill-rule="nonzero"/><g clip-path="url(#e0c1097805)"><path fill="#63916d" d="M 3.792969 1.226562 C 3.753906 1.226562 3.714844 1.242188 3.679688 1.273438 L 2.25 2.6875 C 1.878906 3.050781 1.648438 3.535156 1.597656 4.050781 L 0.515625 14.484375 C 0.492188 14.699219 0.621094 14.898438 0.824219 14.96875 L 2.308594 15.472656 C 2.5625 15.558594 2.726562 15.804688 2.714844 16.070312 L 2.1875 26.089844 C 2.167969 26.703125 2.65625 27.210938 3.269531 27.210938 C 3.878906 27.210938 4.371094 26.703125 4.351562 26.089844 L 3.957031 1.386719 C 3.957031 1.292969 3.878906 1.226562 3.792969 1.226562 Z M 3.792969 1.226562 " fill-opacity="1" fill-rule="nonzero"/></g><path fill="#63916d" d="M 10.4375 22.058594 C 11.875 22.957031 13.574219 23.476562 15.390625 23.476562 C 20.550781 23.476562 24.753906 19.277344 24.753906 14.113281 C 24.753906 8.953125 20.550781 4.75 15.390625 4.75 C 14.460938 4.75 13.566406 4.886719 12.71875 5.140625 L 12.667969 10.035156 C 12.660156 10.605469 12.386719 11.148438 11.929688 11.488281 L 10.230469 12.765625 Z M 10.4375 22.058594 " fill-opacity="1" fill-rule="nonzero"/><g clip-path="url(#278e118055)"><path fill="#63916d" d="M 15.390625 0 C 14.289062 0 13.21875 0.125 12.195312 0.363281 C 12.539062 0.621094 12.757812 1.03125 12.753906 1.492188 L 12.726562 4.109375 C 13.578125 3.882812 14.46875 3.761719 15.386719 3.761719 C 21.097656 3.761719 25.738281 8.40625 25.738281 14.113281 C 25.738281 19.820312 21.09375 24.464844 15.386719 24.464844 C 13.605469 24.464844 11.929688 24.011719 10.464844 23.214844 L 10.527344 26.082031 C 10.539062 26.5 10.421875 26.902344 10.203125 27.242188 C 11.808594 27.878906 13.558594 28.226562 15.386719 28.226562 C 23.183594 28.226562 29.503906 21.90625 29.503906 14.113281 C 29.503906 6.316406 23.183594 0 15.390625 0 Z M 15.390625 0 " fill-opacity="1" fill-rule="nonzero"/></g><path fill="#63916d" d="M 9.546875 12.042969 L 11.335938 10.699219 C 11.550781 10.539062 11.675781 10.289062 11.679688 10.023438 L 11.726562 5.496094 L 11.765625 1.480469 C 11.769531 1.257812 11.589844 1.074219 11.367188 1.070312 C 11.363281 1.070312 11.363281 1.070312 11.363281 1.070312 C 11.148438 1.070312 10.972656 1.238281 10.957031 1.449219 L 10.765625 4.851562 L 10.542969 8.882812 C 10.519531 9.207031 10.277344 9.484375 9.953125 9.519531 C 9.925781 9.523438 9.902344 9.523438 9.878906 9.523438 C 9.515625 9.523438 9.21875 9.234375 9.210938 8.871094 L 9.191406 7.101562 L 9.175781 5.839844 L 9.160156 4.640625 L 9.121094 1.460938 C 9.117188 1.253906 8.964844 1.070312 8.761719 1.046875 C 8.746094 1.046875 8.730469 1.042969 8.714844 1.042969 C 8.496094 1.042969 8.316406 1.214844 8.308594 1.433594 L 8.292969 1.914062 L 8.140625 6.539062 L 8.082031 8.265625 L 8.0625 8.859375 C 8.050781 9.214844 7.757812 9.496094 7.398438 9.496094 C 7.398438 9.496094 7.394531 9.496094 7.390625 9.496094 C 7.367188 9.496094 7.347656 9.496094 7.324219 9.492188 C 7.324219 9.492188 7.320312 9.492188 7.320312 9.492188 C 7.300781 9.492188 7.277344 9.488281 7.257812 9.480469 C 6.96875 9.417969 6.75 9.167969 6.734375 8.863281 L 6.71875 8.464844 L 6.535156 3.125 L 6.472656 1.421875 C 6.464844 1.214844 6.308594 1.039062 6.101562 1.019531 C 6.089844 1.019531 6.078125 1.019531 6.066406 1.019531 C 5.84375 1.019531 5.664062 1.195312 5.660156 1.421875 L 5.636719 3.914062 L 5.574219 9.960938 C 5.574219 9.988281 5.574219 10.019531 5.578125 10.046875 C 5.578125 10.054688 5.578125 10.0625 5.578125 10.070312 C 5.582031 10.097656 5.585938 10.125 5.59375 10.152344 C 5.59375 10.160156 5.597656 10.167969 5.597656 10.175781 C 5.601562 10.195312 5.609375 10.210938 5.613281 10.230469 C 5.617188 10.242188 5.621094 10.253906 5.625 10.265625 C 5.632812 10.285156 5.640625 10.300781 5.648438 10.320312 C 5.65625 10.335938 5.664062 10.351562 5.671875 10.367188 C 5.679688 10.378906 5.683594 10.390625 5.691406 10.398438 C 5.699219 10.410156 5.707031 10.425781 5.714844 10.4375 C 5.765625 10.515625 5.828125 10.585938 5.902344 10.644531 L 7.664062 12.023438 C 7.859375 12.175781 7.96875 12.414062 7.957031 12.660156 L 7.667969 19.398438 L 7.601562 20.921875 L 7.542969 22.246094 L 7.378906 26.078125 C 7.351562 26.691406 7.839844 27.203125 8.449219 27.210938 C 8.453125 27.210938 8.457031 27.210938 8.460938 27.210938 C 8.789062 27.210938 9.078125 27.066406 9.277344 26.835938 C 9.296875 26.8125 9.320312 26.789062 9.335938 26.761719 C 9.335938 26.761719 9.339844 26.761719 9.339844 26.757812 C 9.359375 26.734375 9.375 26.710938 9.390625 26.683594 C 9.390625 26.679688 9.394531 26.675781 9.394531 26.671875 C 9.410156 26.648438 9.421875 26.625 9.4375 26.597656 C 9.4375 26.59375 9.441406 26.585938 9.445312 26.578125 C 9.453125 26.558594 9.464844 26.535156 9.476562 26.507812 C 9.480469 26.5 9.480469 26.488281 9.484375 26.480469 C 9.492188 26.457031 9.5 26.4375 9.507812 26.414062 C 9.511719 26.398438 9.511719 26.386719 9.515625 26.371094 C 9.519531 26.351562 9.527344 26.332031 9.527344 26.316406 C 9.53125 26.296875 9.535156 26.273438 9.535156 26.253906 C 9.539062 26.238281 9.539062 26.226562 9.542969 26.210938 C 9.542969 26.175781 9.546875 26.140625 9.546875 26.101562 L 9.4375 21.335938 L 9.242188 12.675781 C 9.234375 12.425781 9.347656 12.191406 9.546875 12.042969 Z M 9.546875 12.042969 " fill-opacity="1" fill-rule="nonzero"/><g clip-path="url(#2926785bb2)"><path fill="#63916d" d="M 3.792969 1.226562 C 3.753906 1.226562 3.714844 1.242188 3.679688 1.273438 L 2.25 2.6875 C 1.878906 3.050781 1.648438 3.535156 1.597656 4.050781 L 0.515625 14.484375 C 0.492188 14.699219 0.621094 14.898438 0.824219 14.96875 L 2.308594 15.472656 C 2.5625 15.558594 2.726562 15.804688 2.714844 16.070312 L 2.1875 26.089844 C 2.167969 26.703125 2.65625 27.210938 3.269531 27.210938 C 3.878906 27.210938 4.371094 26.703125 4.351562 26.089844 L 3.957031 1.386719 C 3.957031 1.292969 3.878906 1.226562 3.792969 1.226562 Z M 3.792969 1.226562 " fill-opacity="1" fill-rule="nonzero"/></g></svg>