<svg xmlns="http://www.w3.org/2000/svg" xmlns:xlink="http://www.w3.org/1999/xlink" width="40" zoomAndPan="magnify" viewBox="0 0 30 30.000001" height="40" preserveAspectRatio="xMidYMid meet" version="1.0"><defs><clipPath id="bb98c5001a"><path d="M 16 0.636719 L 24 0.636719 L 24 8 L 16 8 Z M 16 0.636719 " clip-rule="nonzero"/></clipPath><clipPath id="80bfafea95"><path d="M 0.484375 16 L 29.515625 16 L 29.515625 28.214844 L 0.484375 28.214844 Z M 0.484375 16 " clip-rule="nonzero"/></clipPath><clipPath id="f7df8c04d1"><path d="M 16 0.636719 L 24 0.636719 L 24 8 L 16 8 Z M 16 0.636719 " clip-rule="nonzero"/></clipPath><clipPath id="83bf81eb10"><path d="M 0.484375 16 L 29.515625 16 L 29.515625 28.214844 L 0.484375 28.214844 Z M 0.484375 16 " clip-rule="nonzero"/></clipPath></defs><path fill="#63916d" d="M 17.980469 12.382812 C 18.644531 12.382812 19.234375 12.804688 19.453125 13.429688 L 19.808594 14.453125 C 19.898438 14.714844 19.910156 15 19.859375 15.265625 L 25.21875 15.265625 C 25.519531 15.265625 25.75 15.007812 25.722656 14.707031 L 25.414062 11.613281 C 25.21875 9.980469 24.117188 8.667969 22.644531 8.136719 L 22.519531 8.097656 C 21.726562 8.671875 20.761719 9.007812 19.714844 9.007812 C 18.667969 9.007812 17.699219 8.671875 16.910156 8.097656 L 16.785156 8.136719 C 15.757812 8.507812 14.90625 9.265625 14.421875 10.242188 L 15.160156 12.378906 L 17.980469 12.378906 Z M 17.980469 12.382812 " fill-opacity="1" fill-rule="nonzero"/><g clip-path="url(#bb98c5001a)"><path fill="#63916d" d="M 19.714844 7.761719 C 21.683594 7.761719 23.28125 6.167969 23.28125 4.199219 C 23.28125 2.230469 21.683594 0.636719 19.714844 0.636719 C 17.75 0.636719 16.152344 2.230469 16.152344 4.199219 C 16.152344 6.167969 17.746094 7.761719 19.714844 7.761719 Z M 19.714844 7.761719 " fill-opacity="1" fill-rule="nonzero"/></g><path fill="#63916d" d="M 5.484375 15.058594 C 5.527344 15.183594 5.640625 15.265625 5.777344 15.265625 L 18.339844 15.265625 C 18.550781 15.265625 18.699219 15.058594 18.632812 14.859375 L 18.28125 13.835938 C 18.238281 13.710938 18.121094 13.628906 17.988281 13.628906 L 14.265625 13.628906 L 12.507812 8.496094 C 12.464844 8.371094 12.347656 8.289062 12.214844 8.289062 L 3.597656 8.289062 C 3.386719 8.289062 3.234375 8.496094 3.300781 8.699219 Z M 9 11.011719 C 9.421875 11.011719 9.765625 11.355469 9.765625 11.78125 C 9.765625 12.203125 9.421875 12.546875 9 12.546875 C 8.574219 12.546875 8.230469 12.203125 8.230469 11.78125 C 8.230469 11.355469 8.578125 11.011719 9 11.011719 Z M 9 11.011719 " fill-opacity="1" fill-rule="nonzero"/><g clip-path="url(#80bfafea95)"><path fill="#63916d" d="M 29.164062 16.511719 L 0.835938 16.511719 C 0.644531 16.511719 0.492188 16.667969 0.492188 16.855469 L 0.492188 18.125 C 0.492188 18.316406 0.644531 18.46875 0.835938 18.46875 L 2.757812 18.46875 L 2.757812 28.054688 C 2.757812 28.246094 2.910156 28.398438 3.097656 28.398438 L 26.898438 28.398438 C 27.089844 28.398438 27.242188 28.246094 27.242188 28.054688 L 27.242188 18.46875 L 29.160156 18.46875 C 29.351562 18.46875 29.503906 18.316406 29.503906 18.125 L 29.503906 16.855469 C 29.507812 16.667969 29.355469 16.511719 29.164062 16.511719 Z M 29.164062 16.511719 " fill-opacity="1" fill-rule="nonzero"/></g><path fill="#63916d" d="M 17.980469 12.382812 C 18.644531 12.382812 19.234375 12.804688 19.453125 13.429688 L 19.808594 14.453125 C 19.898438 14.714844 19.910156 15 19.859375 15.265625 L 25.21875 15.265625 C 25.519531 15.265625 25.75 15.007812 25.722656 14.707031 L 25.414062 11.613281 C 25.21875 9.980469 24.117188 8.667969 22.644531 8.136719 L 22.519531 8.097656 C 21.726562 8.671875 20.761719 9.007812 19.714844 9.007812 C 18.667969 9.007812 17.699219 8.671875 16.910156 8.097656 L 16.785156 8.136719 C 15.757812 8.507812 14.90625 9.265625 14.421875 10.242188 L 15.160156 12.378906 L 17.980469 12.378906 Z M 17.980469 12.382812 " fill-opacity="1" fill-rule="nonzero"/><g clip-path="url(#f7df8c04d1)"><path fill="#63916d" d="M 19.714844 7.761719 C 21.683594 7.761719 23.28125 6.167969 23.28125 4.199219 C 23.28125 2.230469 21.683594 0.636719 19.714844 0.636719 C 17.75 0.636719 16.152344 2.230469 16.152344 4.199219 C 16.152344 6.167969 17.746094 7.761719 19.714844 7.761719 Z M 19.714844 7.761719 " fill-opacity="1" fill-rule="nonzero"/></g><path fill="#63916d" d="M 5.484375 15.058594 C 5.527344 15.183594 5.640625 15.265625 5.777344 15.265625 L 18.339844 15.265625 C 18.550781 15.265625 18.699219 15.058594 18.632812 14.859375 L 18.28125 13.835938 C 18.238281 13.710938 18.121094 13.628906 17.988281 13.628906 L 14.265625 13.628906 L 12.507812 8.496094 C 12.464844 8.371094 12.347656 8.289062 12.214844 8.289062 L 3.597656 8.289062 C 3.386719 8.289062 3.234375 8.496094 3.300781 8.699219 Z M 9 11.011719 C 9.421875 11.011719 9.765625 11.355469 9.765625 11.78125 C 9.765625 12.203125 9.421875 12.546875 9 12.546875 C 8.574219 12.546875 8.230469 12.203125 8.230469 11.78125 C 8.230469 11.355469 8.578125 11.011719 9 11.011719 Z M 9 11.011719 " fill-opacity="1" fill-rule="nonzero"/><g clip-path="url(#83bf81eb10)"><path fill="#63916d" d="M 29.164062 16.511719 L 0.835938 16.511719 C 0.644531 16.511719 0.492188 16.667969 0.492188 16.855469 L 0.492188 18.125 C 0.492188 18.316406 0.644531 18.46875 0.835938 18.46875 L 2.757812 18.46875 L 2.757812 28.054688 C 2.757812 28.246094 2.910156 28.398438 3.097656 28.398438 L 26.898438 28.398438 C 27.089844 28.398438 27.242188 28.246094 27.242188 28.054688 L 27.242188 18.46875 L 29.160156 18.46875 C 29.351562 18.46875 29.503906 18.316406 29.503906 18.125 L 29.503906 16.855469 C 29.507812 16.667969 29.355469 16.511719 29.164062 16.511719 Z M 29.164062 16.511719 " fill-opacity="1" fill-rule="nonzero"/></g></svg>