<svg xmlns="http://www.w3.org/2000/svg" xmlns:xlink="http://www.w3.org/1999/xlink" width="40" zoomAndPan="magnify" viewBox="0 0 30 30.000001" height="40" preserveAspectRatio="xMidYMid meet" version="1.0"><defs><clipPath id="41a5ff5b1e"><path d="M 0.484375 0 L 29.515625 0 L 29.515625 29.03125 L 0.484375 29.03125 Z M 0.484375 0 " clip-rule="nonzero"/></clipPath><clipPath id="f3c2433ea4"><path d="M 0.484375 0 L 29.515625 0 L 29.515625 29.03125 L 0.484375 29.03125 Z M 0.484375 0 " clip-rule="nonzero"/></clipPath></defs><g clip-path="url(#41a5ff5b1e)"><path fill="#63916d" d="M 15 29.03125 C 14.816406 29.03125 14.664062 28.96875 14.535156 28.839844 L 11.875 26.179688 L 8.242188 27.152344 C 8.066406 27.199219 7.898438 27.179688 7.742188 27.085938 C 7.582031 26.996094 7.480469 26.863281 7.433594 26.6875 L 6.460938 23.054688 L 2.828125 22.082031 C 2.652344 22.035156 2.519531 21.933594 2.429688 21.773438 C 2.335938 21.617188 2.316406 21.449219 2.363281 21.273438 L 3.335938 17.640625 L 0.675781 14.984375 C 0.546875 14.855469 0.484375 14.699219 0.484375 14.515625 C 0.484375 14.332031 0.546875 14.179688 0.675781 14.050781 L 3.335938 11.390625 L 2.363281 7.757812 C 2.316406 7.582031 2.335938 7.414062 2.429688 7.257812 C 2.519531 7.101562 2.652344 6.996094 2.828125 6.949219 L 6.460938 5.976562 L 7.433594 2.34375 C 7.480469 2.167969 7.582031 2.035156 7.742188 1.945312 C 7.898438 1.851562 8.066406 1.832031 8.242188 1.878906 L 11.875 2.851562 L 14.535156 0.191406 C 14.664062 0.0625 14.816406 0 15 0 C 15.183594 0 15.335938 0.0625 15.464844 0.191406 L 18.125 2.851562 L 21.757812 1.878906 C 21.933594 1.832031 22.101562 1.851562 22.257812 1.945312 C 22.417969 2.035156 22.519531 2.167969 22.566406 2.34375 L 23.539062 5.976562 L 27.171875 6.949219 C 27.347656 6.996094 27.480469 7.101562 27.570312 7.257812 C 27.664062 7.414062 27.683594 7.582031 27.636719 7.757812 L 26.664062 11.390625 L 29.324219 14.050781 C 29.453125 14.179688 29.515625 14.335938 29.515625 14.515625 C 29.515625 14.699219 29.453125 14.855469 29.324219 14.984375 L 26.664062 17.640625 L 27.636719 21.273438 C 27.683594 21.449219 27.664062 21.617188 27.570312 21.773438 C 27.480469 21.933594 27.347656 22.035156 27.171875 22.082031 L 23.539062 23.054688 L 22.566406 26.6875 C 22.519531 26.863281 22.417969 26.996094 22.257812 27.085938 C 22.101562 27.179688 21.933594 27.199219 21.757812 27.152344 L 18.125 26.179688 L 15.464844 28.839844 C 15.335938 28.96875 15.183594 29.03125 15 29.03125 Z M 12.070312 24.785156 C 12.253906 24.785156 12.410156 24.847656 12.539062 24.976562 L 15 27.4375 L 17.460938 24.976562 C 17.640625 24.796875 17.855469 24.742188 18.097656 24.808594 L 21.460938 25.707031 L 22.363281 22.34375 C 22.429688 22.101562 22.582031 21.945312 22.828125 21.878906 L 26.191406 20.976562 L 25.289062 17.613281 C 25.226562 17.371094 25.28125 17.15625 25.460938 16.976562 L 27.921875 14.515625 L 25.460938 12.054688 C 25.28125 11.875 25.226562 11.664062 25.289062 11.417969 L 26.191406 8.054688 L 22.828125 7.152344 C 22.582031 7.085938 22.429688 6.933594 22.363281 6.6875 L 21.460938 3.324219 L 18.097656 4.226562 C 17.855469 4.292969 17.640625 4.234375 17.460938 4.054688 L 15 1.59375 L 12.539062 4.054688 C 12.359375 4.234375 12.144531 4.292969 11.902344 4.226562 L 8.539062 3.324219 L 7.636719 6.6875 C 7.570312 6.933594 7.417969 7.085938 7.171875 7.152344 L 3.808594 8.054688 L 4.710938 11.417969 C 4.773438 11.664062 4.71875 11.875 4.539062 12.054688 L 2.078125 14.515625 L 4.539062 16.976562 C 4.71875 17.15625 4.773438 17.371094 4.710938 17.613281 L 3.808594 20.976562 L 7.171875 21.878906 C 7.417969 21.945312 7.570312 22.101562 7.636719 22.34375 L 8.539062 25.707031 L 11.902344 24.808594 C 11.957031 24.792969 12.015625 24.785156 12.070312 24.785156 Z M 12.070312 24.785156 " fill-opacity="1" fill-rule="nonzero"/></g><path fill="#63916d" d="M 11.699219 13.855469 C 11.351562 13.855469 11.015625 13.789062 10.691406 13.65625 C 10.367188 13.519531 10.082031 13.332031 9.835938 13.082031 C 9.585938 12.835938 9.394531 12.550781 9.261719 12.226562 C 9.128906 11.902344 9.0625 11.566406 9.0625 11.21875 C 9.0625 10.867188 9.128906 10.53125 9.261719 10.207031 C 9.394531 9.882812 9.585938 9.597656 9.835938 9.351562 C 10.082031 9.101562 10.367188 8.914062 10.691406 8.777344 C 11.015625 8.644531 11.351562 8.578125 11.699219 8.578125 C 12.050781 8.578125 12.386719 8.644531 12.710938 8.777344 C 13.035156 8.914062 13.320312 9.101562 13.566406 9.351562 C 13.816406 9.597656 14.003906 9.882812 14.140625 10.207031 C 14.273438 10.53125 14.339844 10.867188 14.339844 11.21875 C 14.339844 11.566406 14.273438 11.902344 14.136719 12.226562 C 14.003906 12.550781 13.8125 12.835938 13.566406 13.082031 C 13.320312 13.328125 13.035156 13.519531 12.710938 13.65625 C 12.386719 13.789062 12.050781 13.855469 11.699219 13.855469 Z M 11.699219 9.898438 C 11.527344 9.898438 11.359375 9.929688 11.195312 9.996094 C 11.035156 10.066406 10.890625 10.160156 10.769531 10.285156 C 10.644531 10.40625 10.546875 10.550781 10.480469 10.710938 C 10.414062 10.875 10.382812 11.042969 10.382812 11.21875 C 10.382812 11.390625 10.414062 11.558594 10.480469 11.722656 C 10.546875 11.882812 10.644531 12.027344 10.769531 12.148438 C 10.890625 12.273438 11.035156 12.371094 11.195312 12.4375 C 11.359375 12.503906 11.527344 12.535156 11.699219 12.535156 C 11.875 12.535156 12.042969 12.503906 12.207031 12.4375 C 12.367188 12.371094 12.511719 12.273438 12.632812 12.148438 C 12.757812 12.027344 12.851562 11.882812 12.921875 11.722656 C 12.988281 11.558594 13.019531 11.390625 13.019531 11.21875 C 13.019531 11.042969 12.988281 10.875 12.917969 10.710938 C 12.851562 10.550781 12.757812 10.40625 12.632812 10.285156 C 12.511719 10.160156 12.367188 10.066406 12.207031 10 C 12.042969 9.929688 11.875 9.898438 11.699219 9.898438 Z M 11.699219 9.898438 " fill-opacity="1" fill-rule="nonzero"/><path fill="#63916d" d="M 18.300781 20.453125 C 17.949219 20.453125 17.613281 20.386719 17.289062 20.253906 C 16.964844 20.121094 16.679688 19.929688 16.433594 19.679688 C 16.183594 19.433594 15.996094 19.148438 15.859375 18.824219 C 15.726562 18.5 15.660156 18.164062 15.660156 17.816406 C 15.660156 17.464844 15.726562 17.128906 15.859375 16.804688 C 15.996094 16.480469 16.183594 16.195312 16.433594 15.949219 C 16.679688 15.703125 16.964844 15.511719 17.289062 15.375 C 17.613281 15.242188 17.949219 15.175781 18.300781 15.175781 C 18.648438 15.175781 18.984375 15.242188 19.308594 15.375 C 19.632812 15.511719 19.917969 15.703125 20.164062 15.949219 C 20.414062 16.195312 20.605469 16.480469 20.738281 16.804688 C 20.871094 17.128906 20.9375 17.464844 20.9375 17.816406 C 20.9375 18.164062 20.871094 18.5 20.738281 18.824219 C 20.601562 19.148438 20.410156 19.433594 20.164062 19.679688 C 19.917969 19.929688 19.632812 20.117188 19.308594 20.253906 C 18.984375 20.386719 18.648438 20.453125 18.300781 20.453125 Z M 18.300781 16.496094 C 18.125 16.496094 17.957031 16.527344 17.792969 16.597656 C 17.632812 16.664062 17.488281 16.757812 17.367188 16.882812 C 17.242188 17.003906 17.148438 17.148438 17.078125 17.308594 C 17.011719 17.472656 16.980469 17.640625 16.980469 17.816406 C 16.980469 17.992188 17.011719 18.160156 17.078125 18.320312 C 17.148438 18.480469 17.242188 18.625 17.367188 18.75 C 17.488281 18.871094 17.632812 18.96875 17.792969 19.035156 C 17.957031 19.101562 18.125 19.136719 18.300781 19.136719 C 18.472656 19.136719 18.640625 19.101562 18.804688 19.035156 C 18.964844 18.96875 19.109375 18.871094 19.230469 18.75 C 19.355469 18.625 19.453125 18.480469 19.519531 18.320312 C 19.585938 18.160156 19.617188 17.992188 19.617188 17.816406 C 19.617188 17.640625 19.585938 17.472656 19.519531 17.308594 C 19.449219 17.148438 19.355469 17.007812 19.230469 16.882812 C 19.109375 16.757812 18.964844 16.664062 18.804688 16.597656 C 18.640625 16.53125 18.472656 16.496094 18.300781 16.496094 Z M 18.300781 16.496094 " fill-opacity="1" fill-rule="nonzero"/><path fill="#63916d" d="M 11.039062 20.453125 C 10.769531 20.453125 10.570312 20.332031 10.449219 20.089844 C 10.328125 19.847656 10.351562 19.617188 10.511719 19.398438 L 18.429688 8.839844 C 18.539062 8.695312 18.683594 8.609375 18.867188 8.585938 C 19.046875 8.558594 19.207031 8.601562 19.355469 8.710938 C 19.5 8.820312 19.585938 8.964844 19.613281 9.144531 C 19.636719 9.324219 19.597656 9.488281 19.488281 9.632812 L 11.570312 20.191406 C 11.4375 20.367188 11.261719 20.453125 11.039062 20.453125 Z M 11.039062 20.453125 " fill-opacity="1" fill-rule="nonzero"/><g clip-path="url(#f3c2433ea4)"><path fill="#63916d" d="M 15 29.03125 C 14.816406 29.03125 14.664062 28.96875 14.535156 28.839844 L 11.875 26.179688 L 8.242188 27.152344 C 8.066406 27.199219 7.898438 27.179688 7.742188 27.085938 C 7.582031 26.996094 7.480469 26.863281 7.433594 26.6875 L 6.460938 23.054688 L 2.828125 22.082031 C 2.652344 22.035156 2.519531 21.933594 2.429688 21.773438 C 2.335938 21.617188 2.316406 21.449219 2.363281 21.273438 L 3.335938 17.640625 L 0.675781 14.984375 C 0.546875 14.855469 0.484375 14.699219 0.484375 14.515625 C 0.484375 14.332031 0.546875 14.179688 0.675781 14.050781 L 3.335938 11.390625 L 2.363281 7.757812 C 2.316406 7.582031 2.335938 7.414062 2.429688 7.257812 C 2.519531 7.101562 2.652344 6.996094 2.828125 6.949219 L 6.460938 5.976562 L 7.433594 2.34375 C 7.480469 2.167969 7.582031 2.035156 7.742188 1.945312 C 7.898438 1.851562 8.066406 1.832031 8.242188 1.878906 L 11.875 2.851562 L 14.535156 0.191406 C 14.664062 0.0625 14.816406 0 15 0 C 15.183594 0 15.335938 0.0625 15.464844 0.191406 L 18.125 2.851562 L 21.757812 1.878906 C 21.933594 1.832031 22.101562 1.851562 22.257812 1.945312 C 22.417969 2.035156 22.519531 2.167969 22.566406 2.34375 L 23.539062 5.976562 L 27.171875 6.949219 C 27.347656 6.996094 27.480469 7.101562 27.570312 7.257812 C 27.664062 7.414062 27.683594 7.582031 27.636719 7.757812 L 26.664062 11.390625 L 29.324219 14.050781 C 29.453125 14.179688 29.515625 14.335938 29.515625 14.515625 C 29.515625 14.699219 29.453125 14.855469 29.324219 14.984375 L 26.664062 17.640625 L 27.636719 21.273438 C 27.683594 21.449219 27.664062 21.617188 27.570312 21.773438 C 27.480469 21.933594 27.347656 22.035156 27.171875 22.082031 L 23.539062 23.054688 L 22.566406 26.6875 C 22.519531 26.863281 22.417969 26.996094 22.257812 27.085938 C 22.101562 27.179688 21.933594 27.199219 21.757812 27.152344 L 18.125 26.179688 L 15.464844 28.839844 C 15.335938 28.96875 15.183594 29.03125 15 29.03125 Z M 12.070312 24.785156 C 12.253906 24.785156 12.410156 24.847656 12.539062 24.976562 L 15 27.4375 L 17.460938 24.976562 C 17.640625 24.796875 17.855469 24.742188 18.097656 24.808594 L 21.460938 25.707031 L 22.363281 22.34375 C 22.429688 22.101562 22.582031 21.945312 22.828125 21.878906 L 26.191406 20.976562 L 25.289062 17.613281 C 25.226562 17.371094 25.28125 17.15625 25.460938 16.976562 L 27.921875 14.515625 L 25.460938 12.054688 C 25.28125 11.875 25.226562 11.664062 25.289062 11.417969 L 26.191406 8.054688 L 22.828125 7.152344 C 22.582031 7.085938 22.429688 6.933594 22.363281 6.6875 L 21.460938 3.324219 L 18.097656 4.226562 C 17.855469 4.292969 17.640625 4.234375 17.460938 4.054688 L 15 1.59375 L 12.539062 4.054688 C 12.359375 4.234375 12.144531 4.292969 11.902344 4.226562 L 8.539062 3.324219 L 7.636719 6.6875 C 7.570312 6.933594 7.417969 7.085938 7.171875 7.152344 L 3.808594 8.054688 L 4.710938 11.417969 C 4.773438 11.664062 4.71875 11.875 4.539062 12.054688 L 2.078125 14.515625 L 4.539062 16.976562 C 4.71875 17.15625 4.773438 17.371094 4.710938 17.613281 L 3.808594 20.976562 L 7.171875 21.878906 C 7.417969 21.945312 7.570312 22.101562 7.636719 22.34375 L 8.539062 25.707031 L 11.902344 24.808594 C 11.957031 24.792969 12.015625 24.785156 12.070312 24.785156 Z M 12.070312 24.785156 " fill-opacity="1" fill-rule="nonzero"/></g><path fill="#63916d" d="M 11.699219 13.855469 C 11.351562 13.855469 11.015625 13.789062 10.691406 13.65625 C 10.367188 13.519531 10.082031 13.332031 9.835938 13.082031 C 9.585938 12.835938 9.394531 12.550781 9.261719 12.226562 C 9.128906 11.902344 9.0625 11.566406 9.0625 11.21875 C 9.0625 10.867188 9.128906 10.53125 9.261719 10.207031 C 9.394531 9.882812 9.585938 9.597656 9.835938 9.351562 C 10.082031 9.101562 10.367188 8.914062 10.691406 8.777344 C 11.015625 8.644531 11.351562 8.578125 11.699219 8.578125 C 12.050781 8.578125 12.386719 8.644531 12.710938 8.777344 C 13.035156 8.914062 13.320312 9.101562 13.566406 9.351562 C 13.816406 9.597656 14.003906 9.882812 14.140625 10.207031 C 14.273438 10.53125 14.339844 10.867188 14.339844 11.21875 C 14.339844 11.566406 14.273438 11.902344 14.136719 12.226562 C 14.003906 12.550781 13.8125 12.835938 13.566406 13.082031 C 13.320312 13.328125 13.035156 13.519531 12.710938 13.65625 C 12.386719 13.789062 12.050781 13.855469 11.699219 13.855469 Z M 11.699219 9.898438 C 11.527344 9.898438 11.359375 9.929688 11.195312 9.996094 C 11.035156 10.066406 10.890625 10.160156 10.769531 10.285156 C 10.644531 10.40625 10.546875 10.550781 10.480469 10.710938 C 10.414062 10.875 10.382812 11.042969 10.382812 11.21875 C 10.382812 11.390625 10.414062 11.558594 10.480469 11.722656 C 10.546875 11.882812 10.644531 12.027344 10.769531 12.148438 C 10.890625 12.273438 11.035156 12.371094 11.195312 12.4375 C 11.359375 12.503906 11.527344 12.535156 11.699219 12.535156 C 11.875 12.535156 12.042969 12.503906 12.207031 12.4375 C 12.367188 12.371094 12.511719 12.273438 12.632812 12.148438 C 12.757812 12.027344 12.851562 11.882812 12.921875 11.722656 C 12.988281 11.558594 13.019531 11.390625 13.019531 11.21875 C 13.019531 11.042969 12.988281 10.875 12.917969 10.710938 C 12.851562 10.550781 12.757812 10.40625 12.632812 10.285156 C 12.511719 10.160156 12.367188 10.066406 12.207031 10 C 12.042969 9.929688 11.875 9.898438 11.699219 9.898438 Z M 11.699219 9.898438 " fill-opacity="1" fill-rule="nonzero"/><path fill="#63916d" d="M 18.300781 20.453125 C 17.949219 20.453125 17.613281 20.386719 17.289062 20.253906 C 16.964844 20.121094 16.679688 19.929688 16.433594 19.679688 C 16.183594 19.433594 15.996094 19.148438 15.859375 18.824219 C 15.726562 18.5 15.660156 18.164062 15.660156 17.816406 C 15.660156 17.464844 15.726562 17.128906 15.859375 16.804688 C 15.996094 16.480469 16.183594 16.195312 16.433594 15.949219 C 16.679688 15.703125 16.964844 15.511719 17.289062 15.375 C 17.613281 15.242188 17.949219 15.175781 18.300781 15.175781 C 18.648438 15.175781 18.984375 15.242188 19.308594 15.375 C 19.632812 15.511719 19.917969 15.703125 20.164062 15.949219 C 20.414062 16.195312 20.605469 16.480469 20.738281 16.804688 C 20.871094 17.128906 20.9375 17.464844 20.9375 17.816406 C 20.9375 18.164062 20.871094 18.5 20.738281 18.824219 C 20.601562 19.148438 20.410156 19.433594 20.164062 19.679688 C 19.917969 19.929688 19.632812 20.117188 19.308594 20.253906 C 18.984375 20.386719 18.648438 20.453125 18.300781 20.453125 Z M 18.300781 16.496094 C 18.125 16.496094 17.957031 16.527344 17.792969 16.597656 C 17.632812 16.664062 17.488281 16.757812 17.367188 16.882812 C 17.242188 17.003906 17.148438 17.148438 17.078125 17.308594 C 17.011719 17.472656 16.980469 17.640625 16.980469 17.816406 C 16.980469 17.992188 17.011719 18.160156 17.078125 18.320312 C 17.148438 18.480469 17.242188 18.625 17.367188 18.75 C 17.488281 18.871094 17.632812 18.96875 17.792969 19.035156 C 17.957031 19.101562 18.125 19.136719 18.300781 19.136719 C 18.472656 19.136719 18.640625 19.101562 18.804688 19.035156 C 18.964844 18.96875 19.109375 18.871094 19.230469 18.75 C 19.355469 18.625 19.453125 18.480469 19.519531 18.320312 C 19.585938 18.160156 19.617188 17.992188 19.617188 17.816406 C 19.617188 17.640625 19.585938 17.472656 19.519531 17.308594 C 19.449219 17.148438 19.355469 17.007812 19.230469 16.882812 C 19.109375 16.757812 18.964844 16.664062 18.804688 16.597656 C 18.640625 16.53125 18.472656 16.496094 18.300781 16.496094 Z M 18.300781 16.496094 " fill-opacity="1" fill-rule="nonzero"/><path fill="#63916d" d="M 11.039062 20.453125 C 10.769531 20.453125 10.570312 20.332031 10.449219 20.089844 C 10.328125 19.847656 10.351562 19.617188 10.511719 19.398438 L 18.429688 8.839844 C 18.539062 8.695312 18.683594 8.609375 18.867188 8.585938 C 19.046875 8.558594 19.207031 8.601562 19.355469 8.710938 C 19.5 8.820312 19.585938 8.964844 19.613281 9.144531 C 19.636719 9.324219 19.597656 9.488281 19.488281 9.632812 L 11.570312 20.191406 C 11.4375 20.367188 11.261719 20.453125 11.039062 20.453125 Z M 11.039062 20.453125 " fill-opacity="1" fill-rule="nonzero"/></svg>