<svg xmlns="http://www.w3.org/2000/svg" xmlns:xlink="http://www.w3.org/1999/xlink" width="40" zoomAndPan="magnify" viewBox="0 0 30 30.000001" height="40" preserveAspectRatio="xMidYMid meet" version="1.0"><defs><clipPath id="31c19b5f29"><path d="M 0.484375 0 L 29.515625 0 L 29.515625 29.03125 L 0.484375 29.03125 Z M 0.484375 0 " clip-rule="nonzero"/></clipPath><clipPath id="b6563cdbb7"><path d="M 0.484375 0 L 29.515625 0 L 29.515625 29.03125 L 0.484375 29.03125 Z M 0.484375 0 " clip-rule="nonzero"/></clipPath></defs><g clip-path="url(#31c19b5f29)"><path fill="#63916d" d="M 15 0 C 11.121094 0 7.476562 1.511719 4.734375 4.25 C 1.992188 6.992188 0.484375 10.640625 0.484375 14.515625 C 0.484375 18.394531 1.992188 22.039062 4.734375 24.78125 C 7.476562 27.523438 11.121094 29.03125 15 29.03125 C 18.878906 29.03125 22.523438 27.523438 25.265625 24.78125 C 28.007812 22.039062 29.515625 18.394531 29.515625 14.515625 C 29.515625 10.640625 28.007812 6.992188 25.265625 4.25 C 22.523438 1.511719 18.878906 0 15 0 Z M 28.347656 14.515625 C 28.347656 21.878906 22.359375 27.867188 15 27.867188 C 7.640625 27.867188 1.652344 21.878906 1.652344 14.515625 C 1.652344 7.15625 7.640625 1.167969 15 1.167969 C 22.359375 1.167969 28.347656 7.15625 28.347656 14.515625 Z M 28.347656 14.515625 " fill-opacity="1" fill-rule="nonzero"/></g><path fill="#63916d" d="M 13.253906 16.929688 L 13.253906 23.910156 L 8.78125 23.910156 L 8.78125 5.125 L 16.1875 5.125 C 17.835938 5.125 19.101562 5.300781 19.976562 5.652344 C 20.851562 6.007812 21.636719 6.636719 22.324219 7.546875 C 23.011719 8.453125 23.355469 9.570312 23.355469 10.890625 C 23.355469 11.816406 23.171875 12.71875 22.804688 13.601562 C 22.4375 14.480469 21.917969 15.175781 21.25 15.679688 C 20.582031 16.183594 19.929688 16.519531 19.300781 16.683594 C 18.675781 16.847656 17.691406 16.929688 16.351562 16.929688 Z M 13.101562 13.519531 L 15.964844 13.519531 C 17.058594 13.519531 17.824219 13.265625 18.265625 12.761719 C 18.703125 12.257812 18.925781 11.679688 18.925781 11.027344 C 18.925781 10.265625 18.679688 9.660156 18.1875 9.210938 C 17.695312 8.761719 16.953125 8.535156 15.953125 8.535156 L 13.101562 8.535156 Z M 13.101562 13.519531 " fill-opacity="1" fill-rule="nonzero"/><g clip-path="url(#b6563cdbb7)"><path fill="#63916d" d="M 15 0 C 11.121094 0 7.476562 1.511719 4.734375 4.25 C 1.992188 6.992188 0.484375 10.640625 0.484375 14.515625 C 0.484375 18.394531 1.992188 22.039062 4.734375 24.78125 C 7.476562 27.523438 11.121094 29.03125 15 29.03125 C 18.878906 29.03125 22.523438 27.523438 25.265625 24.78125 C 28.007812 22.039062 29.515625 18.394531 29.515625 14.515625 C 29.515625 10.640625 28.007812 6.992188 25.265625 4.25 C 22.523438 1.511719 18.878906 0 15 0 Z M 28.347656 14.515625 C 28.347656 21.878906 22.359375 27.867188 15 27.867188 C 7.640625 27.867188 1.652344 21.878906 1.652344 14.515625 C 1.652344 7.15625 7.640625 1.167969 15 1.167969 C 22.359375 1.167969 28.347656 7.15625 28.347656 14.515625 Z M 28.347656 14.515625 " fill-opacity="1" fill-rule="nonzero"/></g><path fill="#63916d" d="M 13.253906 16.929688 L 13.253906 23.910156 L 8.78125 23.910156 L 8.78125 5.125 L 16.1875 5.125 C 17.835938 5.125 19.101562 5.300781 19.976562 5.652344 C 20.851562 6.007812 21.636719 6.636719 22.324219 7.546875 C 23.011719 8.453125 23.355469 9.570312 23.355469 10.890625 C 23.355469 11.816406 23.171875 12.71875 22.804688 13.601562 C 22.4375 14.480469 21.917969 15.175781 21.25 15.679688 C 20.582031 16.183594 19.929688 16.519531 19.300781 16.683594 C 18.675781 16.847656 17.691406 16.929688 16.351562 16.929688 Z M 13.101562 13.519531 L 15.964844 13.519531 C 17.058594 13.519531 17.824219 13.265625 18.265625 12.761719 C 18.703125 12.257812 18.925781 11.679688 18.925781 11.027344 C 18.925781 10.265625 18.679688 9.660156 18.1875 9.210938 C 17.695312 8.761719 16.953125 8.535156 15.953125 8.535156 L 13.101562 8.535156 Z M 13.101562 13.519531 " fill-opacity="1" fill-rule="nonzero"/></svg>