<svg xmlns="http://www.w3.org/2000/svg" xmlns:xlink="http://www.w3.org/1999/xlink" width="40" zoomAndPan="magnify" viewBox="0 0 30 30.000001" height="40" preserveAspectRatio="xMidYMid meet" version="1.0"><defs><clipPath id="2f9bdc502d"><path d="M 0.484375 0.21875 L 29.515625 0.21875 L 29.515625 28.523438 L 0.484375 28.523438 Z M 0.484375 0.21875 " clip-rule="nonzero"/></clipPath><clipPath id="22fd1c3b68"><path d="M 0.484375 0.433594 L 29.515625 0.433594 L 29.515625 28.742188 L 0.484375 28.742188 Z M 0.484375 0.433594 " clip-rule="nonzero"/></clipPath></defs><g clip-path="url(#2f9bdc502d)"><path fill="#63916d" d="M 27.898438 0.515625 L 6.007812 0.515625 C 5.625 0.515625 5.289062 0.636719 4.992188 0.882812 C 4.695312 1.125 4.511719 1.433594 4.4375 1.808594 L 4.019531 1.808594 L 4.019531 0.550781 C 4.019531 0.457031 3.988281 0.378906 3.925781 0.316406 C 3.859375 0.25 3.78125 0.21875 3.6875 0.21875 L 2.300781 0.21875 C 2.058594 0.21875 1.828125 0.261719 1.609375 0.355469 C 1.386719 0.445312 1.191406 0.578125 1.023438 0.746094 C 0.855469 0.914062 0.722656 1.109375 0.632812 1.332031 C 0.539062 1.554688 0.496094 1.785156 0.496094 2.023438 L 0.496094 24.617188 C 0.496094 24.855469 0.539062 25.085938 0.632812 25.308594 C 0.722656 25.527344 0.855469 25.722656 1.023438 25.894531 C 1.191406 26.0625 1.386719 26.191406 1.609375 26.285156 C 1.828125 26.375 2.058594 26.421875 2.300781 26.421875 L 3.6875 26.421875 C 3.78125 26.421875 3.859375 26.390625 3.925781 26.324219 C 3.988281 26.257812 4.019531 26.179688 4.019531 26.089844 L 4.019531 25.816406 L 4.757812 25.816406 C 5.078125 26.222656 5.492188 26.421875 6.007812 26.421875 L 6.550781 26.421875 L 6.550781 28.476562 C 6.550781 28.566406 6.582031 28.644531 6.648438 28.710938 C 6.714844 28.773438 6.792969 28.808594 6.882812 28.808594 L 9.269531 28.808594 C 9.363281 28.808594 9.441406 28.773438 9.503906 28.710938 C 9.570312 28.644531 9.601562 28.566406 9.601562 28.476562 L 9.601562 26.421875 L 24.789062 26.421875 L 24.789062 28.476562 C 24.789062 28.566406 24.820312 28.644531 24.886719 28.710938 C 24.949219 28.773438 25.027344 28.808594 25.121094 28.808594 L 27.507812 28.808594 C 27.597656 28.808594 27.675781 28.773438 27.742188 28.710938 C 27.804688 28.644531 27.839844 28.566406 27.839844 28.476562 L 27.839844 26.421875 L 27.898438 26.421875 C 28.113281 26.421875 28.316406 26.378906 28.515625 26.300781 C 28.710938 26.21875 28.882812 26.101562 29.035156 25.953125 C 29.1875 25.800781 29.300781 25.628906 29.382812 25.429688 C 29.464844 25.234375 29.503906 25.027344 29.503906 24.816406 L 29.503906 2.121094 C 29.503906 1.910156 29.464844 1.703125 29.382812 1.507812 C 29.300781 1.3125 29.1875 1.136719 29.035156 0.988281 C 28.882812 0.835938 28.710938 0.71875 28.515625 0.640625 C 28.316406 0.558594 28.113281 0.515625 27.898438 0.515625 Z M 3.355469 25.757812 L 2.300781 25.757812 C 2.148438 25.757812 2.003906 25.726562 1.863281 25.671875 C 1.722656 25.613281 1.601562 25.53125 1.492188 25.421875 C 1.386719 25.316406 1.304688 25.191406 1.246094 25.054688 C 1.1875 24.914062 1.160156 24.769531 1.160156 24.617188 L 1.160156 2.023438 C 1.160156 1.871094 1.1875 1.726562 1.246094 1.585938 C 1.304688 1.445312 1.386719 1.324219 1.492188 1.214844 C 1.601562 1.109375 1.722656 1.027344 1.863281 0.96875 C 2.003906 0.910156 2.148438 0.882812 2.300781 0.882812 L 3.355469 0.882812 Z M 4.019531 25.152344 L 4.019531 2.472656 L 5.066406 2.472656 C 5.792969 2.519531 6.371094 2.835938 6.800781 3.417969 C 7.011719 3.710938 7.152344 4.03125 7.214844 4.386719 C 7.238281 4.519531 7.25 22.878906 7.25 22.90625 C 7.238281 23.1875 7.179688 23.460938 7.070312 23.722656 C 6.957031 23.984375 6.804688 24.21875 6.609375 24.425781 C 6.417969 24.628906 6.191406 24.796875 5.933594 24.917969 C 5.679688 25.042969 5.410156 25.117188 5.128906 25.144531 L 4.019531 25.144531 Z M 25.949219 16.714844 L 24.800781 15.382812 L 24.800781 12.097656 C 24.800781 12.007812 24.765625 11.929688 24.703125 11.863281 C 24.636719 11.800781 24.558594 11.765625 24.46875 11.765625 L 22.707031 11.765625 C 22.613281 11.765625 22.535156 11.800781 22.472656 11.863281 C 22.40625 11.929688 22.375 12.007812 22.375 12.097656 L 22.375 15.375 L 21.179688 16.710938 C 21.121094 16.773438 21.09375 16.847656 21.09375 16.933594 L 21.09375 23.597656 L 20.109375 23.597656 L 20.109375 16.933594 C 20.109375 16.851562 20.078125 16.777344 20.027344 16.714844 L 18.875 15.382812 L 18.875 12.097656 C 18.875 12.007812 18.84375 11.929688 18.777344 11.863281 C 18.714844 11.800781 18.636719 11.765625 18.542969 11.765625 L 16.78125 11.765625 C 16.691406 11.765625 16.613281 11.800781 16.546875 11.863281 C 16.484375 11.929688 16.449219 12.007812 16.449219 12.097656 L 16.449219 15.375 L 15.253906 16.710938 C 15.199219 16.773438 15.171875 16.847656 15.171875 16.933594 L 15.171875 23.597656 L 14.035156 23.597656 C 14.035156 23.597656 14.03125 17.359375 14.027344 17.332031 L 13.714844 16.167969 C 13.671875 16.003906 13.5625 15.921875 13.394531 15.917969 L 9.269531 15.917969 C 9.105469 15.917969 8.996094 16 8.949219 16.15625 C 8.949219 16.15625 8.582031 17.378906 8.582031 17.414062 L 8.582031 23.597656 L 8.15625 23.597656 C 8.042969 23.601562 7.9375 23.582031 7.832031 23.542969 C 7.886719 23.308594 7.914062 23.070312 7.914062 22.828125 L 7.914062 11.074219 L 26.691406 11.074219 L 26.691406 22.65625 C 26.695312 22.863281 26.632812 23.050781 26.507812 23.21875 C 26.386719 23.382812 26.226562 23.5 26.027344 23.558594 L 26.027344 16.933594 C 26.027344 16.851562 26.003906 16.777344 25.949219 16.714844 Z M 24.210938 15.71875 L 25.363281 17.058594 L 25.363281 23.597656 L 21.761719 23.597656 L 21.761719 17.058594 L 22.957031 15.726562 C 23.011719 15.664062 23.039062 15.589844 23.039062 15.503906 L 23.039062 12.429688 L 24.136719 12.429688 L 24.136719 15.503906 C 24.132812 15.585938 24.160156 15.65625 24.210938 15.71875 Z M 18.292969 15.71875 L 19.445312 17.058594 L 19.445312 23.597656 L 15.835938 23.597656 L 15.835938 17.058594 L 17.03125 15.726562 C 17.089844 15.664062 17.117188 15.589844 17.113281 15.503906 L 17.113281 12.429688 L 18.210938 12.429688 L 18.210938 15.503906 C 18.207031 15.585938 18.234375 15.660156 18.292969 15.71875 Z M 13.371094 17.457031 L 13.371094 23.597656 L 9.246094 23.597656 L 9.246094 17.464844 L 9.511719 16.582031 L 13.140625 16.582031 Z M 10.476562 4.199219 L 10.539062 5.714844 L 11.203125 5.6875 L 11.140625 4.171875 C 11.609375 4.226562 12.019531 4.414062 12.363281 4.734375 C 12.6875 5.03125 12.902344 5.394531 13.003906 5.820312 C 13.109375 6.246094 13.085938 6.667969 12.933594 7.078125 C 12.78125 7.492188 12.527344 7.828125 12.171875 8.085938 C 11.816406 8.34375 11.417969 8.480469 10.980469 8.496094 C 10.695312 8.503906 10.414062 8.460938 10.144531 8.359375 C 9.875 8.261719 9.636719 8.113281 9.425781 7.917969 C 9.214844 7.722656 9.046875 7.496094 8.925781 7.234375 C 8.804688 6.972656 8.738281 6.699219 8.726562 6.414062 C 8.714844 6.152344 8.75 5.902344 8.832031 5.65625 C 8.910156 5.410156 9.03125 5.183594 9.191406 4.980469 C 9.351562 4.777344 9.542969 4.609375 9.765625 4.476562 C 9.984375 4.339844 10.222656 4.246094 10.476562 4.199219 Z M 26.691406 9.46875 L 26.691406 10.410156 L 7.914062 10.410156 L 7.914062 9.46875 Z M 17.679688 6.378906 L 19.0625 5.757812 C 19.136719 6.027344 19.15625 6.300781 19.125 6.578125 C 19.09375 6.855469 19.011719 7.113281 18.882812 7.359375 C 18.75 7.605469 18.578125 7.816406 18.363281 7.996094 C 18.148438 8.175781 17.910156 8.308594 17.648438 8.394531 C 17.382812 8.480469 17.109375 8.515625 16.832031 8.496094 C 16.554688 8.480469 16.289062 8.410156 16.039062 8.292969 C 15.789062 8.171875 15.566406 8.011719 15.378906 7.808594 C 15.1875 7.601562 15.042969 7.371094 14.945312 7.109375 C 14.84375 6.851562 14.796875 6.582031 14.800781 6.304688 C 14.804688 6.023438 14.859375 5.757812 14.964844 5.5 C 15.070312 5.242188 15.222656 5.015625 15.417969 4.816406 C 15.613281 4.617188 15.835938 4.460938 16.089844 4.347656 C 16.636719 4.105469 17.191406 4.089844 17.75 4.304688 C 18.195312 4.472656 18.542969 4.753906 18.792969 5.15625 L 17.410156 5.769531 Z M 25.242188 6.65625 C 25.214844 6.835938 25.164062 7.007812 25.09375 7.171875 C 25.023438 7.339844 24.933594 7.496094 24.824219 7.636719 C 24.714844 7.78125 24.589844 7.910156 24.445312 8.019531 C 24.304688 8.132812 24.152344 8.226562 23.988281 8.300781 C 23.824219 8.375 23.652344 8.425781 23.472656 8.457031 C 23.296875 8.488281 23.117188 8.496094 22.9375 8.484375 C 22.757812 8.46875 22.582031 8.433594 22.410156 8.375 C 22.238281 8.316406 22.078125 8.238281 21.925781 8.140625 C 21.773438 8.042969 21.636719 7.925781 21.515625 7.796875 C 21.390625 7.664062 21.289062 7.515625 21.203125 7.359375 C 21.113281 7.199219 21.050781 7.03125 21.003906 6.859375 C 20.960938 6.683594 20.9375 6.503906 20.9375 6.324219 C 20.9375 6.144531 20.960938 5.964844 21.003906 5.789062 C 21.050781 5.617188 21.113281 5.449219 21.203125 5.289062 C 21.289062 5.132812 21.390625 4.984375 21.515625 4.855469 C 21.636719 4.722656 21.773438 4.605469 21.925781 4.507812 C 22.078125 4.410156 22.238281 4.332031 22.410156 4.273438 C 22.582031 4.214844 22.757812 4.179688 22.9375 4.167969 C 23.117188 4.152344 23.296875 4.160156 23.472656 4.191406 C 23.652344 4.222656 23.824219 4.273438 23.988281 4.347656 C 24.152344 4.421875 24.304688 4.515625 24.445312 4.628906 C 24.589844 4.738281 24.714844 4.867188 24.824219 5.011719 C 24.933594 5.15625 25.023438 5.308594 25.09375 5.476562 C 25.164062 5.640625 25.214844 5.8125 25.242188 5.992188 L 23.726562 5.992188 L 23.726562 6.65625 Z M 26.691406 8.804688 L 24.472656 8.804688 C 24.65625 8.703125 24.824219 8.585938 24.980469 8.445312 C 25.132812 8.308594 25.273438 8.15625 25.394531 7.984375 C 25.515625 7.816406 25.617188 7.636719 25.699219 7.445312 C 25.78125 7.253906 25.839844 7.058594 25.878906 6.855469 C 25.917969 6.648438 25.933594 6.441406 25.925781 6.234375 C 25.921875 6.027344 25.890625 5.824219 25.839844 5.621094 C 25.785156 5.421875 25.714844 5.226562 25.617188 5.042969 C 25.523438 4.855469 25.410156 4.683594 25.277344 4.523438 C 25.144531 4.363281 24.996094 4.222656 24.832031 4.09375 C 24.667969 3.964844 24.492188 3.859375 24.300781 3.769531 C 24.113281 3.683594 23.917969 3.613281 23.714844 3.570312 C 23.511719 3.523438 23.308594 3.503906 23.101562 3.503906 C 22.890625 3.503906 22.6875 3.523438 22.484375 3.570312 C 22.28125 3.613281 22.085938 3.683594 21.898438 3.769531 C 21.707031 3.859375 21.53125 3.964844 21.367188 4.09375 C 21.203125 4.222656 21.054688 4.363281 20.921875 4.523438 C 20.789062 4.683594 20.675781 4.855469 20.582031 5.042969 C 20.488281 5.226562 20.414062 5.421875 20.359375 5.621094 C 20.308594 5.824219 20.277344 6.027344 20.273438 6.234375 C 20.265625 6.441406 20.28125 6.648438 20.320312 6.855469 C 20.359375 7.058594 20.417969 7.253906 20.5 7.445312 C 20.582031 7.636719 20.683594 7.816406 20.804688 7.984375 C 20.925781 8.15625 21.066406 8.308594 21.222656 8.445312 C 21.375 8.585938 21.546875 8.703125 21.726562 8.804688 L 18.34375 8.804688 C 18.828125 8.539062 19.199219 8.164062 19.464844 7.679688 C 19.726562 7.195312 19.839844 6.679688 19.800781 6.132812 C 19.765625 5.582031 19.582031 5.085938 19.253906 4.640625 C 18.925781 4.199219 18.503906 3.878906 17.988281 3.683594 C 17.640625 3.550781 17.277344 3.488281 16.902344 3.496094 C 16.527344 3.503906 16.167969 3.585938 15.824219 3.738281 C 15.480469 3.890625 15.179688 4.101562 14.921875 4.375 C 14.664062 4.644531 14.464844 4.957031 14.332031 5.304688 C 14.207031 5.625 14.140625 5.957031 14.136719 6.296875 C 14.132812 6.640625 14.1875 6.972656 14.304688 7.292969 C 14.421875 7.617188 14.59375 7.90625 14.816406 8.167969 C 15.035156 8.425781 15.296875 8.640625 15.597656 8.804688 L 12.265625 8.804688 C 12.734375 8.542969 13.097656 8.183594 13.359375 7.714844 C 13.621094 7.25 13.742188 6.75 13.722656 6.214844 C 13.695312 5.429688 13.390625 4.773438 12.8125 4.242188 C 12.535156 4.003906 12.222656 3.828125 11.875 3.710938 C 11.527344 3.59375 11.167969 3.542969 10.804688 3.566406 C 10.4375 3.585938 10.089844 3.675781 9.757812 3.832031 C 9.425781 3.992188 9.132812 4.203125 8.886719 4.472656 C 8.636719 4.742188 8.449219 5.050781 8.316406 5.390625 C 8.1875 5.734375 8.128906 6.089844 8.136719 6.457031 C 8.144531 6.824219 8.21875 7.175781 8.363281 7.511719 C 8.507812 7.851562 8.710938 8.148438 8.972656 8.40625 C 9.140625 8.558594 9.320312 8.691406 9.519531 8.804688 L 7.914062 8.804688 L 7.914062 4.800781 C 7.914062 4.347656 7.816406 3.914062 7.621094 3.507812 C 7.78125 3.394531 7.960938 3.339844 8.15625 3.339844 L 25.75 3.339844 C 26.011719 3.339844 26.234375 3.433594 26.417969 3.617188 C 26.601562 3.800781 26.691406 4.023438 26.691406 4.28125 Z M 8.9375 28.144531 L 7.214844 28.144531 L 7.214844 26.421875 L 8.9375 26.421875 Z M 27.175781 28.144531 L 25.453125 28.144531 L 25.453125 26.421875 L 27.175781 26.421875 Z M 28.839844 24.816406 C 28.839844 25.074219 28.75 25.296875 28.566406 25.480469 C 28.382812 25.664062 28.160156 25.757812 27.898438 25.757812 L 6.007812 25.757812 C 5.910156 25.757812 5.816406 25.742188 5.722656 25.710938 C 6.574219 25.472656 7.203125 24.957031 7.597656 24.164062 C 7.777344 24.230469 7.964844 24.261719 8.15625 24.261719 L 25.75 24.261719 C 25.964844 24.261719 26.167969 24.222656 26.367188 24.140625 C 26.5625 24.058594 26.738281 23.941406 26.886719 23.792969 C 27.039062 23.640625 27.152344 23.46875 27.234375 23.269531 C 27.316406 23.074219 27.355469 22.871094 27.355469 22.65625 L 27.355469 4.28125 C 27.355469 4.070312 27.316406 3.863281 27.234375 3.667969 C 27.152344 3.46875 27.039062 3.296875 26.886719 3.144531 C 26.738281 2.996094 26.5625 2.878906 26.367188 2.796875 C 26.167969 2.714844 25.964844 2.675781 25.75 2.675781 L 8.15625 2.675781 C 7.832031 2.675781 7.535156 2.765625 7.265625 2.945312 C 6.71875 2.25 6.003906 1.875 5.125 1.816406 C 5.1875 1.628906 5.300781 1.476562 5.464844 1.359375 C 5.628906 1.242188 5.808594 1.183594 6.007812 1.179688 L 27.898438 1.179688 C 28.160156 1.179688 28.382812 1.273438 28.566406 1.457031 C 28.75 1.640625 28.839844 1.863281 28.839844 2.121094 Z M 28.839844 24.816406 " fill-opacity="1" fill-rule="nonzero"/></g><path fill="#63916d" d="M 11.308594 21.144531 C 11.484375 21.144531 11.65625 21.113281 11.820312 21.046875 C 11.984375 20.976562 12.128906 20.882812 12.253906 20.757812 C 12.378906 20.632812 12.476562 20.488281 12.542969 20.324219 C 12.613281 20.160156 12.648438 19.988281 12.648438 19.8125 C 12.648438 19.636719 12.613281 19.464844 12.546875 19.300781 C 12.476562 19.136719 12.382812 18.992188 12.257812 18.867188 C 12.132812 18.742188 11.984375 18.644531 11.824219 18.578125 C 11.660156 18.511719 11.488281 18.476562 11.3125 18.476562 C 11.132812 18.476562 10.964844 18.511719 10.800781 18.578125 C 10.636719 18.648438 10.492188 18.746094 10.367188 18.871094 C 10.242188 18.996094 10.144531 19.140625 10.078125 19.304688 C 10.011719 19.46875 9.976562 19.640625 9.976562 19.816406 C 9.980469 19.992188 10.011719 20.160156 10.082031 20.324219 C 10.148438 20.488281 10.246094 20.628906 10.371094 20.753906 C 10.492188 20.878906 10.636719 20.976562 10.800781 21.042969 C 10.960938 21.109375 11.132812 21.144531 11.308594 21.144531 Z M 11.308594 19.148438 C 11.492188 19.144531 11.652344 19.210938 11.78125 19.339844 C 11.914062 19.46875 11.980469 19.628906 11.984375 19.8125 C 11.984375 20 11.917969 20.15625 11.789062 20.289062 C 11.65625 20.417969 11.5 20.484375 11.316406 20.488281 C 11.128906 20.488281 10.972656 20.421875 10.839844 20.289062 C 10.707031 20.160156 10.644531 20 10.644531 19.816406 C 10.644531 19.632812 10.707031 19.476562 10.835938 19.34375 C 10.964844 19.214844 11.125 19.148438 11.308594 19.148438 Z M 11.308594 19.148438 " fill-opacity="1" fill-rule="nonzero"/><path fill="#63916d" d="M 16.164062 18.96875 C 16.164062 19.9375 16.820312 20.722656 17.640625 20.722656 C 18.460938 20.722656 19.117188 19.9375 19.117188 18.96875 C 19.117188 18 18.453125 17.21875 17.640625 17.21875 C 16.828125 17.21875 16.164062 18.007812 16.164062 18.96875 Z M 18.453125 18.96875 C 18.453125 19.574219 18.089844 20.058594 17.640625 20.058594 C 17.191406 20.058594 16.828125 19.574219 16.828125 18.96875 C 16.828125 18.367188 17.191406 17.882812 17.640625 17.882812 C 18.089844 17.882812 18.453125 18.371094 18.453125 18.96875 Z M 18.453125 18.96875 " fill-opacity="1" fill-rule="nonzero"/><path fill="#63916d" d="M 22.082031 18.96875 C 22.082031 19.9375 22.746094 20.722656 23.558594 20.722656 C 24.375 20.722656 25.042969 19.9375 25.042969 18.96875 C 25.042969 18 24.378906 17.21875 23.558594 17.21875 C 22.738281 17.21875 22.082031 18.007812 22.082031 18.96875 Z M 24.378906 18.96875 C 24.378906 19.574219 24.011719 20.058594 23.558594 20.058594 C 23.105469 20.058594 22.746094 19.574219 22.746094 18.96875 C 22.746094 18.367188 23.109375 17.882812 23.558594 17.882812 C 24.007812 17.882812 24.378906 18.371094 24.378906 18.96875 Z M 24.378906 18.96875 " fill-opacity="1" fill-rule="nonzero"/><g clip-path="url(#22fd1c3b68)"><path fill="#63916d" d="M 27.898438 0.734375 L 6.007812 0.734375 C 5.625 0.734375 5.289062 0.855469 4.992188 1.097656 C 4.695312 1.339844 4.511719 1.648438 4.4375 2.023438 L 4.019531 2.023438 L 4.019531 0.769531 C 4.019531 0.675781 3.988281 0.597656 3.925781 0.53125 C 3.859375 0.46875 3.78125 0.433594 3.6875 0.433594 L 2.300781 0.433594 C 2.058594 0.433594 1.828125 0.480469 1.609375 0.574219 C 1.386719 0.664062 1.191406 0.792969 1.023438 0.964844 C 0.855469 1.132812 0.722656 1.328125 0.632812 1.550781 C 0.539062 1.769531 0.496094 2 0.496094 2.242188 L 0.496094 24.835938 C 0.496094 25.074219 0.539062 25.304688 0.632812 25.523438 C 0.722656 25.746094 0.855469 25.941406 1.023438 26.109375 C 1.191406 26.28125 1.386719 26.410156 1.609375 26.5 C 1.828125 26.59375 2.058594 26.640625 2.300781 26.640625 L 3.6875 26.640625 C 3.78125 26.640625 3.859375 26.605469 3.925781 26.542969 C 3.988281 26.476562 4.019531 26.398438 4.019531 26.308594 L 4.019531 26.035156 L 4.757812 26.035156 C 5.078125 26.441406 5.492188 26.640625 6.007812 26.640625 L 6.550781 26.640625 L 6.550781 28.691406 C 6.550781 28.785156 6.582031 28.863281 6.648438 28.929688 C 6.714844 28.992188 6.792969 29.027344 6.882812 29.027344 L 9.269531 29.027344 C 9.363281 29.027344 9.441406 28.992188 9.503906 28.929688 C 9.570312 28.863281 9.601562 28.785156 9.601562 28.691406 L 9.601562 26.640625 L 24.789062 26.640625 L 24.789062 28.691406 C 24.789062 28.785156 24.820312 28.863281 24.886719 28.929688 C 24.949219 28.992188 25.027344 29.027344 25.121094 29.027344 L 27.507812 29.027344 C 27.597656 29.027344 27.675781 28.992188 27.742188 28.929688 C 27.804688 28.863281 27.839844 28.785156 27.839844 28.691406 L 27.839844 26.640625 L 27.898438 26.640625 C 28.113281 26.640625 28.316406 26.597656 28.515625 26.515625 C 28.710938 26.4375 28.882812 26.320312 29.035156 26.167969 C 29.1875 26.019531 29.300781 25.84375 29.382812 25.648438 C 29.464844 25.453125 29.503906 25.246094 29.503906 25.035156 L 29.503906 2.339844 C 29.503906 2.128906 29.464844 1.921875 29.382812 1.726562 C 29.300781 1.527344 29.1875 1.355469 29.035156 1.203125 C 28.882812 1.054688 28.710938 0.9375 28.515625 0.855469 C 28.316406 0.773438 28.113281 0.734375 27.898438 0.734375 Z M 3.355469 25.976562 L 2.300781 25.976562 C 2.148438 25.976562 2.003906 25.945312 1.863281 25.886719 C 1.722656 25.832031 1.601562 25.746094 1.492188 25.640625 C 1.386719 25.535156 1.304688 25.410156 1.246094 25.269531 C 1.1875 25.132812 1.160156 24.984375 1.160156 24.835938 L 1.160156 2.242188 C 1.160156 2.089844 1.1875 1.945312 1.246094 1.804688 C 1.304688 1.664062 1.386719 1.539062 1.492188 1.433594 C 1.601562 1.328125 1.722656 1.246094 1.863281 1.1875 C 2.003906 1.128906 2.148438 1.101562 2.300781 1.101562 L 3.355469 1.101562 Z M 4.019531 25.371094 L 4.019531 2.6875 L 5.066406 2.6875 C 5.792969 2.738281 6.371094 3.050781 6.800781 3.636719 C 7.011719 3.925781 7.152344 4.25 7.214844 4.605469 C 7.238281 4.738281 7.25 23.097656 7.25 23.125 C 7.238281 23.40625 7.179688 23.679688 7.070312 23.941406 C 6.957031 24.203125 6.804688 24.4375 6.609375 24.640625 C 6.417969 24.847656 6.191406 25.011719 5.933594 25.136719 C 5.679688 25.261719 5.410156 25.335938 5.128906 25.359375 L 4.019531 25.359375 Z M 25.949219 16.933594 L 24.800781 15.601562 L 24.800781 12.316406 C 24.800781 12.226562 24.765625 12.148438 24.703125 12.082031 C 24.636719 12.015625 24.558594 11.984375 24.46875 11.984375 L 22.707031 11.984375 C 22.613281 11.984375 22.535156 12.015625 22.472656 12.082031 C 22.40625 12.148438 22.375 12.226562 22.375 12.316406 L 22.375 15.59375 L 21.179688 16.929688 C 21.121094 16.992188 21.09375 17.066406 21.09375 17.148438 L 21.09375 23.816406 L 20.109375 23.816406 L 20.109375 17.148438 C 20.109375 17.066406 20.078125 16.996094 20.027344 16.933594 L 18.875 15.601562 L 18.875 12.316406 C 18.875 12.226562 18.84375 12.148438 18.777344 12.082031 C 18.714844 12.015625 18.636719 11.984375 18.542969 11.984375 L 16.78125 11.984375 C 16.691406 11.984375 16.613281 12.015625 16.546875 12.082031 C 16.484375 12.148438 16.449219 12.226562 16.449219 12.316406 L 16.449219 15.59375 L 15.253906 16.929688 C 15.199219 16.992188 15.171875 17.066406 15.171875 17.148438 L 15.171875 23.816406 L 14.035156 23.816406 C 14.035156 23.816406 14.03125 17.578125 14.027344 17.546875 L 13.714844 16.386719 C 13.671875 16.222656 13.5625 16.140625 13.394531 16.136719 L 9.269531 16.136719 C 9.105469 16.136719 8.996094 16.21875 8.949219 16.375 C 8.949219 16.375 8.582031 17.597656 8.582031 17.632812 L 8.582031 23.816406 L 8.15625 23.816406 C 8.042969 23.816406 7.9375 23.800781 7.832031 23.761719 C 7.886719 23.527344 7.914062 23.289062 7.914062 23.046875 L 7.914062 11.292969 L 26.691406 11.292969 L 26.691406 22.875 C 26.695312 23.082031 26.632812 23.269531 26.507812 23.433594 C 26.386719 23.601562 26.226562 23.714844 26.027344 23.777344 L 26.027344 17.148438 C 26.027344 17.070312 26.003906 16.996094 25.949219 16.933594 Z M 24.210938 15.9375 L 25.363281 17.277344 L 25.363281 23.816406 L 21.761719 23.816406 L 21.761719 17.277344 L 22.957031 15.941406 C 23.011719 15.878906 23.039062 15.804688 23.039062 15.722656 L 23.039062 12.648438 L 24.136719 12.648438 L 24.136719 15.722656 C 24.132812 15.804688 24.160156 15.875 24.210938 15.9375 Z M 18.292969 15.9375 L 19.445312 17.277344 L 19.445312 23.816406 L 15.835938 23.816406 L 15.835938 17.277344 L 17.03125 15.941406 C 17.089844 15.878906 17.117188 15.804688 17.113281 15.722656 L 17.113281 12.648438 L 18.210938 12.648438 L 18.210938 15.722656 C 18.207031 15.804688 18.234375 15.878906 18.292969 15.9375 Z M 13.371094 17.675781 L 13.371094 23.816406 L 9.246094 23.816406 L 9.246094 17.679688 L 9.511719 16.800781 L 13.140625 16.800781 Z M 10.476562 4.417969 L 10.539062 5.933594 L 11.203125 5.90625 L 11.140625 4.386719 C 11.609375 4.445312 12.019531 4.632812 12.363281 4.953125 C 12.6875 5.25 12.902344 5.613281 13.003906 6.039062 C 13.109375 6.464844 13.085938 6.886719 12.933594 7.296875 C 12.78125 7.710938 12.527344 8.042969 12.171875 8.300781 C 11.816406 8.558594 11.417969 8.695312 10.980469 8.710938 C 10.695312 8.722656 10.414062 8.679688 10.144531 8.578125 C 9.875 8.480469 9.636719 8.332031 9.425781 8.136719 C 9.214844 7.941406 9.046875 7.714844 8.925781 7.453125 C 8.804688 7.191406 8.738281 6.917969 8.726562 6.628906 C 8.714844 6.371094 8.75 6.121094 8.832031 5.875 C 8.910156 5.628906 9.03125 5.402344 9.191406 5.199219 C 9.351562 4.996094 9.542969 4.828125 9.765625 4.691406 C 9.984375 4.558594 10.222656 4.464844 10.476562 4.417969 Z M 26.691406 9.6875 L 26.691406 10.628906 L 7.914062 10.628906 L 7.914062 9.6875 Z M 17.679688 6.597656 L 19.0625 5.976562 C 19.136719 6.246094 19.15625 6.519531 19.125 6.796875 C 19.09375 7.070312 19.011719 7.332031 18.882812 7.578125 C 18.75 7.824219 18.578125 8.035156 18.363281 8.214844 C 18.148438 8.390625 17.910156 8.523438 17.648438 8.613281 C 17.382812 8.699219 17.109375 8.734375 16.832031 8.714844 C 16.554688 8.699219 16.289062 8.628906 16.039062 8.511719 C 15.789062 8.390625 15.566406 8.230469 15.378906 8.023438 C 15.1875 7.820312 15.042969 7.589844 14.945312 7.328125 C 14.84375 7.070312 14.796875 6.800781 14.800781 6.519531 C 14.804688 6.242188 14.859375 5.976562 14.964844 5.71875 C 15.070312 5.460938 15.222656 5.234375 15.417969 5.035156 C 15.613281 4.835938 15.835938 4.679688 16.089844 4.566406 C 16.636719 4.320312 17.191406 4.308594 17.75 4.519531 C 18.195312 4.6875 18.542969 4.972656 18.792969 5.375 L 17.410156 5.988281 Z M 25.242188 6.875 C 25.214844 7.054688 25.164062 7.226562 25.09375 7.390625 C 25.023438 7.558594 24.933594 7.710938 24.824219 7.855469 C 24.714844 8 24.589844 8.128906 24.445312 8.238281 C 24.304688 8.351562 24.152344 8.445312 23.988281 8.519531 C 23.824219 8.589844 23.652344 8.644531 23.472656 8.675781 C 23.296875 8.707031 23.117188 8.714844 22.9375 8.699219 C 22.757812 8.6875 22.582031 8.652344 22.410156 8.59375 C 22.238281 8.535156 22.078125 8.457031 21.925781 8.359375 C 21.773438 8.261719 21.636719 8.144531 21.515625 8.011719 C 21.390625 7.878906 21.289062 7.734375 21.203125 7.574219 C 21.113281 7.417969 21.050781 7.25 21.003906 7.074219 C 20.960938 6.902344 20.9375 6.722656 20.9375 6.542969 C 20.9375 6.363281 20.960938 6.183594 21.003906 6.007812 C 21.050781 5.832031 21.113281 5.667969 21.203125 5.507812 C 21.289062 5.347656 21.390625 5.203125 21.515625 5.070312 C 21.636719 4.9375 21.773438 4.824219 21.925781 4.726562 C 22.078125 4.628906 22.238281 4.550781 22.410156 4.492188 C 22.582031 4.433594 22.757812 4.398438 22.9375 4.382812 C 23.117188 4.371094 23.296875 4.378906 23.472656 4.410156 C 23.652344 4.441406 23.824219 4.492188 23.988281 4.566406 C 24.152344 4.640625 24.304688 4.734375 24.445312 4.84375 C 24.589844 4.957031 24.714844 5.085938 24.824219 5.230469 C 24.933594 5.371094 25.023438 5.527344 25.09375 5.691406 C 25.164062 5.859375 25.214844 6.03125 25.242188 6.210938 L 23.726562 6.210938 L 23.726562 6.875 Z M 26.691406 9.023438 L 24.472656 9.023438 C 24.65625 8.921875 24.824219 8.800781 24.980469 8.664062 C 25.132812 8.527344 25.273438 8.371094 25.394531 8.203125 C 25.515625 8.035156 25.617188 7.855469 25.699219 7.664062 C 25.78125 7.472656 25.839844 7.277344 25.878906 7.070312 C 25.917969 6.867188 25.933594 6.660156 25.925781 6.453125 C 25.921875 6.246094 25.890625 6.039062 25.839844 5.839844 C 25.785156 5.636719 25.714844 5.445312 25.617188 5.261719 C 25.523438 5.074219 25.410156 4.902344 25.277344 4.742188 C 25.144531 4.582031 24.996094 4.4375 24.832031 4.3125 C 24.667969 4.183594 24.492188 4.078125 24.300781 3.988281 C 24.113281 3.898438 23.917969 3.832031 23.714844 3.789062 C 23.511719 3.742188 23.308594 3.71875 23.101562 3.71875 C 22.890625 3.71875 22.6875 3.742188 22.484375 3.789062 C 22.28125 3.832031 22.085938 3.898438 21.898438 3.988281 C 21.707031 4.078125 21.53125 4.183594 21.367188 4.3125 C 21.203125 4.4375 21.054688 4.582031 20.921875 4.742188 C 20.789062 4.902344 20.675781 5.074219 20.582031 5.261719 C 20.488281 5.445312 20.414062 5.636719 20.359375 5.839844 C 20.308594 6.039062 20.277344 6.246094 20.273438 6.453125 C 20.265625 6.660156 20.28125 6.867188 20.320312 7.070312 C 20.359375 7.277344 20.417969 7.472656 20.5 7.664062 C 20.582031 7.855469 20.683594 8.035156 20.804688 8.203125 C 20.925781 8.371094 21.066406 8.527344 21.222656 8.664062 C 21.375 8.800781 21.546875 8.921875 21.726562 9.023438 L 18.34375 9.023438 C 18.828125 8.757812 19.199219 8.382812 19.464844 7.898438 C 19.726562 7.414062 19.839844 6.898438 19.800781 6.347656 C 19.765625 5.800781 19.582031 5.304688 19.253906 4.859375 C 18.925781 4.417969 18.503906 4.097656 17.988281 3.902344 C 17.640625 3.765625 17.277344 3.703125 16.902344 3.714844 C 16.527344 3.722656 16.167969 3.804688 15.824219 3.957031 C 15.480469 4.109375 15.179688 4.320312 14.921875 4.589844 C 14.664062 4.863281 14.464844 5.171875 14.332031 5.523438 C 14.207031 5.84375 14.140625 6.171875 14.136719 6.515625 C 14.132812 6.859375 14.1875 7.191406 14.304688 7.511719 C 14.421875 7.832031 14.59375 8.125 14.816406 8.382812 C 15.035156 8.644531 15.296875 8.855469 15.597656 9.023438 L 12.265625 9.023438 C 12.734375 8.761719 13.097656 8.398438 13.359375 7.933594 C 13.621094 7.464844 13.742188 6.964844 13.722656 6.429688 C 13.695312 5.648438 13.390625 4.988281 12.8125 4.460938 C 12.535156 4.222656 12.222656 4.042969 11.875 3.925781 C 11.527344 3.808594 11.167969 3.761719 10.804688 3.785156 C 10.4375 3.804688 10.089844 3.894531 9.757812 4.050781 C 9.425781 4.207031 9.132812 4.421875 8.886719 4.691406 C 8.636719 4.960938 8.449219 5.265625 8.316406 5.609375 C 8.1875 5.953125 8.128906 6.308594 8.136719 6.675781 C 8.144531 7.042969 8.21875 7.394531 8.363281 7.730469 C 8.507812 8.066406 8.710938 8.367188 8.972656 8.625 C 9.140625 8.777344 9.320312 8.910156 9.519531 9.023438 L 7.914062 9.023438 L 7.914062 5.019531 C 7.914062 4.566406 7.816406 4.132812 7.621094 3.722656 C 7.78125 3.613281 7.960938 3.558594 8.15625 3.558594 L 25.75 3.558594 C 26.011719 3.558594 26.234375 3.648438 26.417969 3.832031 C 26.601562 4.015625 26.691406 4.238281 26.691406 4.5 Z M 8.9375 28.359375 L 7.214844 28.359375 L 7.214844 26.640625 L 8.9375 26.640625 Z M 27.175781 28.359375 L 25.453125 28.359375 L 25.453125 26.640625 L 27.175781 26.640625 Z M 28.839844 25.035156 C 28.839844 25.292969 28.75 25.515625 28.566406 25.699219 C 28.382812 25.882812 28.160156 25.976562 27.898438 25.976562 L 6.007812 25.976562 C 5.910156 25.972656 5.816406 25.960938 5.722656 25.929688 C 6.574219 25.691406 7.203125 25.175781 7.597656 24.378906 C 7.777344 24.449219 7.964844 24.480469 8.15625 24.480469 L 25.75 24.480469 C 25.964844 24.480469 26.167969 24.4375 26.367188 24.359375 C 26.5625 24.277344 26.738281 24.160156 26.886719 24.011719 C 27.039062 23.859375 27.152344 23.6875 27.234375 23.488281 C 27.316406 23.292969 27.355469 23.085938 27.355469 22.875 L 27.355469 4.5 C 27.355469 4.285156 27.316406 4.082031 27.234375 3.886719 C 27.152344 3.6875 27.039062 3.515625 26.886719 3.363281 C 26.738281 3.214844 26.5625 3.097656 26.367188 3.015625 C 26.167969 2.933594 25.964844 2.894531 25.75 2.894531 L 8.15625 2.894531 C 7.832031 2.894531 7.535156 2.984375 7.265625 3.164062 C 6.71875 2.46875 6.003906 2.09375 5.125 2.035156 C 5.1875 1.847656 5.300781 1.691406 5.464844 1.574219 C 5.628906 1.457031 5.808594 1.398438 6.007812 1.398438 L 27.898438 1.398438 C 28.160156 1.398438 28.382812 1.492188 28.566406 1.675781 C 28.75 1.859375 28.839844 2.082031 28.839844 2.339844 Z M 28.839844 25.035156 " fill-opacity="1" fill-rule="nonzero"/></g><path fill="#63916d" d="M 11.308594 21.363281 C 11.484375 21.363281 11.65625 21.332031 11.820312 21.261719 C 11.984375 21.195312 12.128906 21.101562 12.253906 20.976562 C 12.378906 20.851562 12.476562 20.707031 12.542969 20.542969 C 12.613281 20.378906 12.648438 20.207031 12.648438 20.03125 C 12.648438 19.851562 12.613281 19.683594 12.546875 19.519531 C 12.476562 19.355469 12.382812 19.210938 12.257812 19.085938 C 12.132812 18.960938 11.984375 18.863281 11.824219 18.796875 C 11.660156 18.726562 11.488281 18.695312 11.3125 18.695312 C 11.132812 18.695312 10.964844 18.730469 10.800781 18.796875 C 10.636719 18.867188 10.492188 18.960938 10.367188 19.089844 C 10.242188 19.214844 10.144531 19.359375 10.078125 19.523438 C 10.011719 19.6875 9.976562 19.855469 9.976562 20.035156 C 9.980469 20.210938 10.011719 20.378906 10.082031 20.542969 C 10.148438 20.703125 10.246094 20.847656 10.371094 20.972656 C 10.492188 21.097656 10.636719 21.191406 10.800781 21.261719 C 10.960938 21.328125 11.132812 21.363281 11.308594 21.363281 Z M 11.308594 19.363281 C 11.492188 19.363281 11.652344 19.425781 11.78125 19.558594 C 11.914062 19.6875 11.980469 19.84375 11.984375 20.03125 C 11.984375 20.214844 11.917969 20.375 11.789062 20.507812 C 11.65625 20.636719 11.5 20.703125 11.316406 20.703125 C 11.128906 20.703125 10.972656 20.640625 10.839844 20.507812 C 10.707031 20.378906 10.644531 20.21875 10.644531 20.035156 C 10.644531 19.851562 10.707031 19.691406 10.835938 19.5625 C 10.964844 19.433594 11.125 19.367188 11.308594 19.363281 Z M 11.308594 19.363281 " fill-opacity="1" fill-rule="nonzero"/><path fill="#63916d" d="M 16.164062 19.1875 C 16.164062 20.15625 16.820312 20.941406 17.640625 20.941406 C 18.460938 20.941406 19.117188 20.15625 19.117188 19.1875 C 19.117188 18.21875 18.453125 17.4375 17.640625 17.4375 C 16.828125 17.4375 16.164062 18.222656 16.164062 19.1875 Z M 18.453125 19.1875 C 18.453125 19.789062 18.089844 20.277344 17.640625 20.277344 C 17.191406 20.277344 16.828125 19.789062 16.828125 19.1875 C 16.828125 18.582031 17.191406 18.101562 17.640625 18.101562 C 18.089844 18.101562 18.453125 18.589844 18.453125 19.1875 Z M 18.453125 19.1875 " fill-opacity="1" fill-rule="nonzero"/><path fill="#63916d" d="M 22.082031 19.1875 C 22.082031 20.15625 22.746094 20.941406 23.558594 20.941406 C 24.375 20.941406 25.042969 20.15625 25.042969 19.1875 C 25.042969 18.21875 24.378906 17.4375 23.558594 17.4375 C 22.738281 17.4375 22.082031 18.222656 22.082031 19.1875 Z M 24.378906 19.1875 C 24.378906 19.789062 24.011719 20.277344 23.558594 20.277344 C 23.105469 20.277344 22.746094 19.789062 22.746094 19.1875 C 22.746094 18.582031 23.109375 18.101562 23.558594 18.101562 C 24.007812 18.101562 24.378906 18.589844 24.378906 19.1875 Z M 24.378906 19.1875 " fill-opacity="1" fill-rule="nonzero"/></svg>