<svg xmlns="http://www.w3.org/2000/svg" xmlns:xlink="http://www.w3.org/1999/xlink" width="40" zoomAndPan="magnify" viewBox="0 0 30 30.000001" height="40" preserveAspectRatio="xMidYMid meet" version="1.0"><defs><clipPath id="ab6c7d73d5"><path d="M 25 25 L 27.324219 25 L 27.324219 28 L 25 28 Z M 25 25 " clip-rule="nonzero"/></clipPath><clipPath id="31a10e5a39"><path d="M 2.648438 25 L 5 25 L 5 28 L 2.648438 28 Z M 2.648438 25 " clip-rule="nonzero"/></clipPath><clipPath id="6a37dba7ba"><path d="M 25 25 L 27.324219 25 L 27.324219 28 L 25 28 Z M 25 25 " clip-rule="nonzero"/></clipPath><clipPath id="7e6571eec8"><path d="M 2.648438 25 L 5 25 L 5 28 L 2.648438 28 Z M 2.648438 25 " clip-rule="nonzero"/></clipPath></defs><path fill="#63916d" d="M 24.683594 13.335938 L 5.34375 13.335938 C 5.34375 10.058594 8 7.40625 11.273438 7.40625 L 12.929688 7.40625 L 12.929688 0.0351562 L 17.097656 0.0351562 L 17.097656 7.40625 L 18.757812 7.40625 C 22.027344 7.40625 24.683594 10.058594 24.683594 13.335938 Z M 24.683594 13.335938 " fill-opacity="1" fill-rule="nonzero"/><path fill="#63916d" d="M 16.003906 15.699219 L 16.003906 15.691406 C 16.003906 15.144531 15.5625 14.707031 15.015625 14.707031 C 14.46875 14.707031 14.027344 15.152344 14.027344 15.699219 C 14.027344 16.246094 14.46875 16.6875 15.015625 16.6875 C 15.5625 16.6875 16.003906 16.246094 16.003906 15.699219 Z M 16.003906 15.699219 " fill-opacity="1" fill-rule="nonzero"/><path fill="#63916d" d="M 16.003906 23.910156 L 16.003906 23.890625 C 16.003906 23.34375 15.5625 22.910156 15.015625 22.910156 C 14.46875 22.910156 14.027344 23.363281 14.027344 23.910156 C 14.027344 24.457031 14.46875 24.898438 15.015625 24.898438 C 15.5625 24.898438 16.003906 24.457031 16.003906 23.910156 Z M 16.003906 23.910156 " fill-opacity="1" fill-rule="nonzero"/><path fill="#63916d" d="M 16.003906 19.804688 L 16.003906 19.785156 C 16.003906 19.238281 15.5625 18.808594 15.015625 18.808594 C 14.46875 18.808594 14.027344 19.261719 14.027344 19.804688 C 14.027344 20.351562 14.46875 20.792969 15.015625 20.792969 C 15.5625 20.792969 16.003906 20.351562 16.003906 19.804688 Z M 16.003906 19.804688 " fill-opacity="1" fill-rule="nonzero"/><path fill="#63916d" d="M 16.003906 28.003906 L 16.003906 27.992188 C 16.003906 27.449219 15.5625 27.011719 15.015625 27.011719 C 14.46875 27.011719 14.027344 27.457031 14.027344 28.003906 C 14.027344 28.550781 14.46875 28.992188 15.015625 28.992188 C 15.5625 28.992188 16.003906 28.550781 16.003906 28.003906 Z M 16.003906 28.003906 " fill-opacity="1" fill-rule="nonzero"/><g clip-path="url(#ab6c7d73d5)"><path fill="#63916d" d="M 26.613281 27.8125 C 27.121094 27.609375 27.367188 27.03125 27.164062 26.527344 L 27.15625 26.507812 C 26.957031 26 26.382812 25.761719 25.878906 25.96875 C 25.371094 26.171875 25.128906 26.753906 25.332031 27.261719 C 25.484375 27.648438 25.855469 27.882812 26.25 27.882812 C 26.367188 27.882812 26.496094 27.859375 26.613281 27.8125 Z M 26.613281 27.8125 " fill-opacity="1" fill-rule="nonzero"/></g><path fill="#63916d" d="M 25.25 24.082031 C 25.757812 23.878906 26.003906 23.304688 25.800781 22.800781 L 25.792969 22.78125 C 25.589844 22.273438 25.015625 22.027344 24.511719 22.242188 C 24.007812 22.441406 23.765625 23.027344 23.96875 23.53125 C 24.121094 23.917969 24.492188 24.152344 24.886719 24.152344 C 25.007812 24.152344 25.132812 24.132812 25.25 24.082031 Z M 25.25 24.082031 " fill-opacity="1" fill-rule="nonzero"/><path fill="#63916d" d="M 23.804688 20.382812 C 24.328125 20.226562 24.625 19.675781 24.464844 19.152344 L 24.460938 19.136719 C 24.304688 18.613281 23.757812 18.328125 23.234375 18.484375 C 22.714844 18.640625 22.417969 19.199219 22.574219 19.722656 C 22.703125 20.148438 23.097656 20.425781 23.519531 20.425781 C 23.613281 20.425781 23.707031 20.410156 23.804688 20.382812 Z M 23.804688 20.382812 " fill-opacity="1" fill-rule="nonzero"/><path fill="#63916d" d="M 22.523438 16.625 C 23.03125 16.421875 23.277344 15.847656 23.074219 15.34375 L 23.066406 15.324219 C 22.867188 14.820312 22.292969 14.574219 21.789062 14.78125 C 21.28125 14.984375 21.039062 15.570312 21.242188 16.074219 C 21.398438 16.460938 21.765625 16.695312 22.160156 16.695312 C 22.28125 16.695312 22.40625 16.671875 22.523438 16.625 Z M 22.523438 16.625 " fill-opacity="1" fill-rule="nonzero"/><path fill="#63916d" d="M 20.792969 28.445312 C 21.332031 28.339844 21.679688 27.820312 21.570312 27.28125 L 21.566406 27.265625 C 21.460938 26.730469 20.9375 26.386719 20.40625 26.5 C 19.871094 26.605469 19.527344 27.136719 19.636719 27.667969 C 19.730469 28.140625 20.140625 28.464844 20.601562 28.464844 C 20.667969 28.464844 20.730469 28.460938 20.792969 28.445312 Z M 20.792969 28.445312 " fill-opacity="1" fill-rule="nonzero"/><path fill="#63916d" d="M 20.089844 24.539062 C 20.632812 24.484375 21.027344 24 20.972656 23.457031 L 20.972656 23.4375 C 20.917969 22.898438 20.4375 22.5 19.894531 22.566406 C 19.347656 22.617188 18.953125 23.113281 19.007812 23.65625 C 19.058594 24.164062 19.488281 24.542969 19.988281 24.542969 C 20.023438 24.542969 20.058594 24.542969 20.089844 24.539062 Z M 20.089844 24.539062 " fill-opacity="1" fill-rule="nonzero"/><path fill="#63916d" d="M 19.574219 20.601562 C 20.109375 20.496094 20.457031 19.972656 20.351562 19.4375 L 20.34375 19.421875 C 20.238281 18.886719 19.71875 18.546875 19.1875 18.65625 C 18.652344 18.761719 18.304688 19.289062 18.414062 19.824219 C 18.507812 20.296875 18.917969 20.617188 19.378906 20.617188 C 19.445312 20.617188 19.511719 20.613281 19.574219 20.601562 Z M 19.574219 20.601562 " fill-opacity="1" fill-rule="nonzero"/><path fill="#63916d" d="M 18.964844 16.675781 C 19.5 16.570312 19.847656 16.050781 19.742188 15.515625 L 19.738281 15.496094 C 19.628906 14.960938 19.101562 14.621094 18.578125 14.730469 C 18.039062 14.835938 17.695312 15.367188 17.804688 15.902344 C 17.898438 16.371094 18.308594 16.695312 18.769531 16.695312 C 18.835938 16.695312 18.902344 16.691406 18.964844 16.675781 Z M 18.964844 16.675781 " fill-opacity="1" fill-rule="nonzero"/><g clip-path="url(#31a10e5a39)"><path fill="#63916d" d="M 4.695312 27.261719 L 4.703125 27.242188 C 4.90625 26.738281 4.660156 26.171875 4.148438 25.96875 C 3.652344 25.765625 3.066406 26.019531 2.863281 26.527344 C 2.664062 27.03125 2.90625 27.609375 3.414062 27.8125 C 3.535156 27.859375 3.660156 27.882812 3.78125 27.882812 C 4.171875 27.882812 4.542969 27.648438 4.695312 27.261719 Z M 4.695312 27.261719 " fill-opacity="1" fill-rule="nonzero"/></g><path fill="#63916d" d="M 6.058594 23.53125 L 6.066406 23.511719 C 6.269531 23.007812 6.023438 22.441406 5.515625 22.242188 C 5.011719 22.035156 4.429688 22.292969 4.226562 22.800781 C 4.027344 23.304688 4.269531 23.878906 4.777344 24.082031 C 4.898438 24.132812 5.023438 24.152344 5.144531 24.152344 C 5.535156 24.152344 5.90625 23.917969 6.058594 23.53125 Z M 6.058594 23.53125 " fill-opacity="1" fill-rule="nonzero"/><path fill="#63916d" d="M 7.453125 19.722656 L 7.457031 19.699219 C 7.617188 19.179688 7.316406 18.640625 6.796875 18.484375 C 6.261719 18.316406 5.714844 18.628906 5.5625 19.152344 C 5.40625 19.675781 5.703125 20.226562 6.222656 20.382812 C 6.320312 20.410156 6.414062 20.425781 6.507812 20.425781 C 6.933594 20.425781 7.328125 20.148438 7.453125 19.722656 Z M 7.453125 19.722656 " fill-opacity="1" fill-rule="nonzero"/><path fill="#63916d" d="M 8.785156 16.074219 L 8.792969 16.058594 C 8.996094 15.550781 8.75 14.988281 8.242188 14.78125 C 7.742188 14.578125 7.15625 14.835938 6.953125 15.34375 C 6.75 15.847656 6.996094 16.421875 7.503906 16.625 C 7.621094 16.671875 7.75 16.695312 7.871094 16.695312 C 8.261719 16.695312 8.628906 16.460938 8.785156 16.074219 Z M 8.785156 16.074219 " fill-opacity="1" fill-rule="nonzero"/><path fill="#63916d" d="M 10.394531 27.671875 L 10.398438 27.652344 C 10.507812 27.117188 10.160156 26.605469 9.621094 26.5 C 9.089844 26.390625 8.566406 26.746094 8.457031 27.285156 C 8.351562 27.820312 8.695312 28.339844 9.234375 28.445312 C 9.296875 28.460938 9.363281 28.464844 9.429688 28.464844 C 9.886719 28.464844 10.300781 28.140625 10.394531 27.671875 Z M 10.394531 27.671875 " fill-opacity="1" fill-rule="nonzero"/><path fill="#63916d" d="M 11.019531 23.65625 L 11.019531 23.636719 C 11.078125 23.09375 10.679688 22.617188 10.136719 22.566406 C 9.59375 22.5 9.109375 22.914062 9.054688 23.457031 C 9 24 9.394531 24.484375 9.9375 24.539062 C 9.972656 24.542969 10.007812 24.542969 10.039062 24.542969 C 10.539062 24.542969 10.96875 24.164062 11.019531 23.65625 Z M 11.019531 23.65625 " fill-opacity="1" fill-rule="nonzero"/><path fill="#63916d" d="M 11.617188 19.824219 L 11.621094 19.808594 C 11.726562 19.269531 11.378906 18.761719 10.84375 18.65625 C 10.316406 18.539062 9.785156 18.902344 9.679688 19.4375 C 9.570312 19.972656 9.917969 20.496094 10.453125 20.601562 C 10.519531 20.613281 10.582031 20.617188 10.648438 20.617188 C 11.109375 20.617188 11.519531 20.296875 11.617188 19.824219 Z M 11.617188 19.824219 " fill-opacity="1" fill-rule="nonzero"/><path fill="#63916d" d="M 12.222656 15.902344 L 12.230469 15.882812 C 12.335938 15.347656 11.988281 14.835938 11.453125 14.730469 C 10.925781 14.621094 10.394531 14.984375 10.289062 15.515625 C 10.179688 16.050781 10.527344 16.570312 11.066406 16.675781 C 11.128906 16.691406 11.191406 16.695312 11.257812 16.695312 C 11.71875 16.695312 12.128906 16.371094 12.222656 15.902344 Z M 12.222656 15.902344 " fill-opacity="1" fill-rule="nonzero"/><path fill="#63916d" d="M 24.683594 13.335938 L 5.34375 13.335938 C 5.34375 10.058594 8 7.40625 11.273438 7.40625 L 12.929688 7.40625 L 12.929688 0.0351562 L 17.097656 0.0351562 L 17.097656 7.40625 L 18.757812 7.40625 C 22.027344 7.40625 24.683594 10.058594 24.683594 13.335938 Z M 24.683594 13.335938 " fill-opacity="1" fill-rule="nonzero"/><path fill="#63916d" d="M 16.003906 15.699219 L 16.003906 15.691406 C 16.003906 15.144531 15.5625 14.707031 15.015625 14.707031 C 14.46875 14.707031 14.027344 15.152344 14.027344 15.699219 C 14.027344 16.246094 14.46875 16.6875 15.015625 16.6875 C 15.5625 16.6875 16.003906 16.246094 16.003906 15.699219 Z M 16.003906 15.699219 " fill-opacity="1" fill-rule="nonzero"/><path fill="#63916d" d="M 16.003906 23.910156 L 16.003906 23.890625 C 16.003906 23.34375 15.5625 22.910156 15.015625 22.910156 C 14.46875 22.910156 14.027344 23.363281 14.027344 23.910156 C 14.027344 24.457031 14.46875 24.898438 15.015625 24.898438 C 15.5625 24.898438 16.003906 24.457031 16.003906 23.910156 Z M 16.003906 23.910156 " fill-opacity="1" fill-rule="nonzero"/><path fill="#63916d" d="M 16.003906 19.804688 L 16.003906 19.785156 C 16.003906 19.238281 15.5625 18.808594 15.015625 18.808594 C 14.46875 18.808594 14.027344 19.261719 14.027344 19.804688 C 14.027344 20.351562 14.46875 20.792969 15.015625 20.792969 C 15.5625 20.792969 16.003906 20.351562 16.003906 19.804688 Z M 16.003906 19.804688 " fill-opacity="1" fill-rule="nonzero"/><path fill="#63916d" d="M 16.003906 28.003906 L 16.003906 27.992188 C 16.003906 27.449219 15.5625 27.011719 15.015625 27.011719 C 14.46875 27.011719 14.027344 27.457031 14.027344 28.003906 C 14.027344 28.550781 14.46875 28.992188 15.015625 28.992188 C 15.5625 28.992188 16.003906 28.550781 16.003906 28.003906 Z M 16.003906 28.003906 " fill-opacity="1" fill-rule="nonzero"/><g clip-path="url(#6a37dba7ba)"><path fill="#63916d" d="M 26.613281 27.8125 C 27.121094 27.609375 27.367188 27.03125 27.164062 26.527344 L 27.15625 26.507812 C 26.957031 26 26.382812 25.761719 25.878906 25.96875 C 25.371094 26.171875 25.128906 26.753906 25.332031 27.261719 C 25.484375 27.648438 25.855469 27.882812 26.25 27.882812 C 26.367188 27.882812 26.496094 27.859375 26.613281 27.8125 Z M 26.613281 27.8125 " fill-opacity="1" fill-rule="nonzero"/></g><path fill="#63916d" d="M 25.25 24.082031 C 25.757812 23.878906 26.003906 23.304688 25.800781 22.800781 L 25.792969 22.78125 C 25.589844 22.273438 25.015625 22.027344 24.511719 22.242188 C 24.007812 22.441406 23.765625 23.027344 23.96875 23.53125 C 24.121094 23.917969 24.492188 24.152344 24.886719 24.152344 C 25.007812 24.152344 25.132812 24.132812 25.25 24.082031 Z M 25.25 24.082031 " fill-opacity="1" fill-rule="nonzero"/><path fill="#63916d" d="M 23.804688 20.382812 C 24.328125 20.226562 24.625 19.675781 24.464844 19.152344 L 24.460938 19.136719 C 24.304688 18.613281 23.757812 18.328125 23.234375 18.484375 C 22.714844 18.640625 22.417969 19.199219 22.574219 19.722656 C 22.703125 20.148438 23.097656 20.425781 23.519531 20.425781 C 23.613281 20.425781 23.707031 20.410156 23.804688 20.382812 Z M 23.804688 20.382812 " fill-opacity="1" fill-rule="nonzero"/><path fill="#63916d" d="M 22.523438 16.625 C 23.03125 16.421875 23.277344 15.847656 23.074219 15.34375 L 23.066406 15.324219 C 22.867188 14.820312 22.292969 14.574219 21.789062 14.78125 C 21.28125 14.984375 21.039062 15.570312 21.242188 16.074219 C 21.398438 16.460938 21.765625 16.695312 22.160156 16.695312 C 22.28125 16.695312 22.40625 16.671875 22.523438 16.625 Z M 22.523438 16.625 " fill-opacity="1" fill-rule="nonzero"/><path fill="#63916d" d="M 20.792969 28.445312 C 21.332031 28.339844 21.679688 27.820312 21.570312 27.28125 L 21.566406 27.265625 C 21.460938 26.730469 20.9375 26.386719 20.40625 26.5 C 19.871094 26.605469 19.527344 27.136719 19.636719 27.667969 C 19.730469 28.140625 20.140625 28.464844 20.601562 28.464844 C 20.667969 28.464844 20.730469 28.460938 20.792969 28.445312 Z M 20.792969 28.445312 " fill-opacity="1" fill-rule="nonzero"/><path fill="#63916d" d="M 20.089844 24.539062 C 20.632812 24.484375 21.027344 24 20.972656 23.457031 L 20.972656 23.4375 C 20.917969 22.898438 20.4375 22.5 19.894531 22.566406 C 19.347656 22.617188 18.953125 23.113281 19.007812 23.65625 C 19.058594 24.164062 19.488281 24.542969 19.988281 24.542969 C 20.023438 24.542969 20.058594 24.542969 20.089844 24.539062 Z M 20.089844 24.539062 " fill-opacity="1" fill-rule="nonzero"/><path fill="#63916d" d="M 19.574219 20.601562 C 20.109375 20.496094 20.457031 19.972656 20.351562 19.4375 L 20.34375 19.421875 C 20.238281 18.886719 19.71875 18.546875 19.1875 18.65625 C 18.652344 18.761719 18.304688 19.289062 18.414062 19.824219 C 18.507812 20.296875 18.917969 20.617188 19.378906 20.617188 C 19.445312 20.617188 19.511719 20.613281 19.574219 20.601562 Z M 19.574219 20.601562 " fill-opacity="1" fill-rule="nonzero"/><path fill="#63916d" d="M 18.964844 16.675781 C 19.5 16.570312 19.847656 16.050781 19.742188 15.515625 L 19.738281 15.496094 C 19.628906 14.960938 19.101562 14.621094 18.578125 14.730469 C 18.039062 14.835938 17.695312 15.367188 17.804688 15.902344 C 17.898438 16.371094 18.308594 16.695312 18.769531 16.695312 C 18.835938 16.695312 18.902344 16.691406 18.964844 16.675781 Z M 18.964844 16.675781 " fill-opacity="1" fill-rule="nonzero"/><g clip-path="url(#7e6571eec8)"><path fill="#63916d" d="M 4.695312 27.261719 L 4.703125 27.242188 C 4.90625 26.738281 4.660156 26.171875 4.148438 25.96875 C 3.652344 25.765625 3.066406 26.019531 2.863281 26.527344 C 2.664062 27.03125 2.90625 27.609375 3.414062 27.8125 C 3.535156 27.859375 3.660156 27.882812 3.78125 27.882812 C 4.171875 27.882812 4.542969 27.648438 4.695312 27.261719 Z M 4.695312 27.261719 " fill-opacity="1" fill-rule="nonzero"/></g><path fill="#63916d" d="M 6.058594 23.53125 L 6.066406 23.511719 C 6.269531 23.007812 6.023438 22.441406 5.515625 22.242188 C 5.011719 22.035156 4.429688 22.292969 4.226562 22.800781 C 4.027344 23.304688 4.269531 23.878906 4.777344 24.082031 C 4.898438 24.132812 5.023438 24.152344 5.144531 24.152344 C 5.535156 24.152344 5.90625 23.917969 6.058594 23.53125 Z M 6.058594 23.53125 " fill-opacity="1" fill-rule="nonzero"/><path fill="#63916d" d="M 7.453125 19.722656 L 7.457031 19.699219 C 7.617188 19.179688 7.316406 18.640625 6.796875 18.484375 C 6.261719 18.316406 5.714844 18.628906 5.5625 19.152344 C 5.40625 19.675781 5.703125 20.226562 6.222656 20.382812 C 6.320312 20.410156 6.414062 20.425781 6.507812 20.425781 C 6.933594 20.425781 7.328125 20.148438 7.453125 19.722656 Z M 7.453125 19.722656 " fill-opacity="1" fill-rule="nonzero"/><path fill="#63916d" d="M 8.785156 16.074219 L 8.792969 16.058594 C 8.996094 15.550781 8.75 14.988281 8.242188 14.78125 C 7.742188 14.578125 7.15625 14.835938 6.953125 15.34375 C 6.75 15.847656 6.996094 16.421875 7.503906 16.625 C 7.621094 16.671875 7.75 16.695312 7.871094 16.695312 C 8.261719 16.695312 8.628906 16.460938 8.785156 16.074219 Z M 8.785156 16.074219 " fill-opacity="1" fill-rule="nonzero"/><path fill="#63916d" d="M 10.394531 27.671875 L 10.398438 27.652344 C 10.507812 27.117188 10.160156 26.605469 9.621094 26.5 C 9.089844 26.390625 8.566406 26.746094 8.457031 27.285156 C 8.351562 27.820312 8.695312 28.339844 9.234375 28.445312 C 9.296875 28.460938 9.363281 28.464844 9.429688 28.464844 C 9.886719 28.464844 10.300781 28.140625 10.394531 27.671875 Z M 10.394531 27.671875 " fill-opacity="1" fill-rule="nonzero"/><path fill="#63916d" d="M 11.019531 23.65625 L 11.019531 23.636719 C 11.078125 23.09375 10.679688 22.617188 10.136719 22.566406 C 9.59375 22.5 9.109375 22.914062 9.054688 23.457031 C 9 24 9.394531 24.484375 9.9375 24.539062 C 9.972656 24.542969 10.007812 24.542969 10.039062 24.542969 C 10.539062 24.542969 10.96875 24.164062 11.019531 23.65625 Z M 11.019531 23.65625 " fill-opacity="1" fill-rule="nonzero"/><path fill="#63916d" d="M 11.617188 19.824219 L 11.621094 19.808594 C 11.726562 19.269531 11.378906 18.761719 10.84375 18.65625 C 10.316406 18.539062 9.785156 18.902344 9.679688 19.4375 C 9.570312 19.972656 9.917969 20.496094 10.453125 20.601562 C 10.519531 20.613281 10.582031 20.617188 10.648438 20.617188 C 11.109375 20.617188 11.519531 20.296875 11.617188 19.824219 Z M 11.617188 19.824219 " fill-opacity="1" fill-rule="nonzero"/><path fill="#63916d" d="M 12.222656 15.902344 L 12.230469 15.882812 C 12.335938 15.347656 11.988281 14.835938 11.453125 14.730469 C 10.925781 14.621094 10.394531 14.984375 10.289062 15.515625 C 10.179688 16.050781 10.527344 16.570312 11.066406 16.675781 C 11.128906 16.691406 11.191406 16.695312 11.257812 16.695312 C 11.71875 16.695312 12.128906 16.371094 12.222656 15.902344 Z M 12.222656 15.902344 " fill-opacity="1" fill-rule="nonzero"/></svg>