<svg xmlns="http://www.w3.org/2000/svg" xmlns:xlink="http://www.w3.org/1999/xlink" width="40" zoomAndPan="magnify" viewBox="0 0 30 30.000001" height="40" preserveAspectRatio="xMidYMid meet" version="1.0"><defs><clipPath id="d3eebe9e29"><path d="M 0.484375 0 L 29.515625 0 L 29.515625 29.03125 L 0.484375 29.03125 Z M 0.484375 0 " clip-rule="nonzero"/></clipPath><clipPath id="253ba1e820"><path d="M 0.484375 0 L 29.515625 0 L 29.515625 29.03125 L 0.484375 29.03125 Z M 0.484375 0 " clip-rule="nonzero"/></clipPath></defs><path fill="#63916d" d="M 26.007812 28.34375 L 3.992188 28.34375 C 2.472656 28.34375 1.242188 27.113281 1.242188 25.59375 L 1.242188 9.082031 C 1.242188 7.5625 2.472656 6.328125 3.992188 6.328125 L 26.007812 6.328125 C 27.527344 6.328125 28.757812 7.5625 28.757812 9.082031 L 28.757812 25.59375 C 28.757812 27.113281 27.527344 28.34375 26.007812 28.34375 Z M 26.007812 28.34375 " fill-opacity="1" fill-rule="nonzero"/><path fill="#e3ece4" d="M 5.367188 9.082031 L 21.878906 9.082031 C 22.640625 9.082031 23.253906 9.695312 23.253906 10.457031 L 23.253906 24.214844 C 23.253906 24.976562 22.640625 25.59375 21.878906 25.59375 L 5.367188 25.59375 C 4.609375 25.59375 3.992188 24.976562 3.992188 24.214844 L 3.992188 10.457031 C 3.992188 9.695312 4.609375 9.082031 5.367188 9.082031 Z M 5.367188 9.082031 " fill-opacity="1" fill-rule="nonzero"/><g clip-path="url(#d3eebe9e29)"><path fill="#63916d" d="M 26.007812 5.640625 L 17.273438 5.640625 L 23.636719 1.398438 C 23.953125 1.1875 24.039062 0.761719 23.828125 0.445312 C 23.617188 0.125 23.1875 0.0429688 22.875 0.253906 L 15.023438 5.488281 L 9.910156 1.652344 C 9.605469 1.425781 9.175781 1.484375 8.945312 1.789062 C 8.71875 2.09375 8.78125 2.523438 9.082031 2.75 L 12.9375 5.640625 L 3.992188 5.640625 C 2.09375 5.640625 0.550781 7.183594 0.550781 9.082031 L 0.550781 25.59375 C 0.550781 27.488281 2.09375 29.03125 3.992188 29.03125 L 26.007812 29.03125 C 27.90625 29.03125 29.449219 27.488281 29.449219 25.59375 L 29.449219 9.082031 C 29.449219 7.183594 27.90625 5.640625 26.007812 5.640625 Z M 28.070312 25.59375 C 28.070312 26.730469 27.144531 27.65625 26.007812 27.65625 L 3.992188 27.65625 C 2.855469 27.65625 1.929688 26.730469 1.929688 25.59375 L 1.929688 9.082031 C 1.929688 7.941406 2.855469 7.015625 3.992188 7.015625 L 26.007812 7.015625 C 27.144531 7.015625 28.070312 7.941406 28.070312 9.082031 Z M 21.878906 8.394531 L 5.367188 8.394531 C 4.230469 8.394531 3.304688 9.320312 3.304688 10.457031 L 3.304688 24.214844 C 3.304688 25.355469 4.230469 26.28125 5.367188 26.28125 L 21.878906 26.28125 C 23.019531 26.28125 23.945312 25.355469 23.945312 24.214844 L 23.945312 10.457031 C 23.945312 9.320312 23.019531 8.394531 21.878906 8.394531 Z M 22.566406 24.214844 C 22.566406 24.597656 22.257812 24.90625 21.878906 24.90625 L 5.367188 24.90625 C 4.988281 24.90625 4.679688 24.597656 4.679688 24.214844 L 4.679688 10.457031 C 4.679688 10.078125 4.988281 9.769531 5.367188 9.769531 L 21.878906 9.769531 C 22.257812 9.769531 22.566406 10.078125 22.566406 10.457031 Z M 26.695312 10.457031 L 26.695312 13.210938 C 26.695312 13.589844 26.386719 13.898438 26.007812 13.898438 C 25.628906 13.898438 25.320312 13.589844 25.320312 13.210938 L 25.320312 10.457031 C 25.320312 10.078125 25.628906 9.769531 26.007812 9.769531 C 26.386719 9.769531 26.695312 10.078125 26.695312 10.457031 Z M 26.695312 15.960938 L 26.695312 18.710938 C 26.695312 19.09375 26.386719 19.402344 26.007812 19.402344 C 25.628906 19.402344 25.320312 19.09375 25.320312 18.710938 L 25.320312 15.960938 C 25.320312 15.582031 25.628906 15.273438 26.007812 15.273438 C 26.386719 15.273438 26.695312 15.582031 26.695312 15.960938 Z M 26.695312 15.960938 " fill-opacity="1" fill-rule="nonzero"/></g><path fill="#63916d" d="M 26.007812 28.34375 L 3.992188 28.34375 C 2.472656 28.34375 1.242188 27.113281 1.242188 25.59375 L 1.242188 9.082031 C 1.242188 7.5625 2.472656 6.328125 3.992188 6.328125 L 26.007812 6.328125 C 27.527344 6.328125 28.757812 7.5625 28.757812 9.082031 L 28.757812 25.59375 C 28.757812 27.113281 27.527344 28.34375 26.007812 28.34375 Z M 26.007812 28.34375 " fill-opacity="1" fill-rule="nonzero"/><path fill="#e3ece4" d="M 5.367188 9.082031 L 21.878906 9.082031 C 22.640625 9.082031 23.253906 9.695312 23.253906 10.457031 L 23.253906 24.214844 C 23.253906 24.976562 22.640625 25.59375 21.878906 25.59375 L 5.367188 25.59375 C 4.609375 25.59375 3.992188 24.976562 3.992188 24.214844 L 3.992188 10.457031 C 3.992188 9.695312 4.609375 9.082031 5.367188 9.082031 Z M 5.367188 9.082031 " fill-opacity="1" fill-rule="nonzero"/><g clip-path="url(#253ba1e820)"><path fill="#63916d" d="M 26.007812 5.640625 L 17.273438 5.640625 L 23.636719 1.398438 C 23.953125 1.1875 24.039062 0.761719 23.828125 0.445312 C 23.617188 0.125 23.1875 0.0429688 22.875 0.253906 L 15.023438 5.488281 L 9.910156 1.652344 C 9.605469 1.425781 9.175781 1.484375 8.945312 1.789062 C 8.71875 2.09375 8.78125 2.523438 9.082031 2.75 L 12.9375 5.640625 L 3.992188 5.640625 C 2.09375 5.640625 0.550781 7.183594 0.550781 9.082031 L 0.550781 25.59375 C 0.550781 27.488281 2.09375 29.03125 3.992188 29.03125 L 26.007812 29.03125 C 27.90625 29.03125 29.449219 27.488281 29.449219 25.59375 L 29.449219 9.082031 C 29.449219 7.183594 27.90625 5.640625 26.007812 5.640625 Z M 28.070312 25.59375 C 28.070312 26.730469 27.144531 27.65625 26.007812 27.65625 L 3.992188 27.65625 C 2.855469 27.65625 1.929688 26.730469 1.929688 25.59375 L 1.929688 9.082031 C 1.929688 7.941406 2.855469 7.015625 3.992188 7.015625 L 26.007812 7.015625 C 27.144531 7.015625 28.070312 7.941406 28.070312 9.082031 Z M 21.878906 8.394531 L 5.367188 8.394531 C 4.230469 8.394531 3.304688 9.320312 3.304688 10.457031 L 3.304688 24.214844 C 3.304688 25.355469 4.230469 26.28125 5.367188 26.28125 L 21.878906 26.28125 C 23.019531 26.28125 23.945312 25.355469 23.945312 24.214844 L 23.945312 10.457031 C 23.945312 9.320312 23.019531 8.394531 21.878906 8.394531 Z M 22.566406 24.214844 C 22.566406 24.597656 22.257812 24.90625 21.878906 24.90625 L 5.367188 24.90625 C 4.988281 24.90625 4.679688 24.597656 4.679688 24.214844 L 4.679688 10.457031 C 4.679688 10.078125 4.988281 9.769531 5.367188 9.769531 L 21.878906 9.769531 C 22.257812 9.769531 22.566406 10.078125 22.566406 10.457031 Z M 26.695312 10.457031 L 26.695312 13.210938 C 26.695312 13.589844 26.386719 13.898438 26.007812 13.898438 C 25.628906 13.898438 25.320312 13.589844 25.320312 13.210938 L 25.320312 10.457031 C 25.320312 10.078125 25.628906 9.769531 26.007812 9.769531 C 26.386719 9.769531 26.695312 10.078125 26.695312 10.457031 Z M 26.695312 15.960938 L 26.695312 18.710938 C 26.695312 19.09375 26.386719 19.402344 26.007812 19.402344 C 25.628906 19.402344 25.320312 19.09375 25.320312 18.710938 L 25.320312 15.960938 C 25.320312 15.582031 25.628906 15.273438 26.007812 15.273438 C 26.386719 15.273438 26.695312 15.582031 26.695312 15.960938 Z M 26.695312 15.960938 " fill-opacity="1" fill-rule="nonzero"/></g></svg>