<svg xmlns="http://www.w3.org/2000/svg" xmlns:xlink="http://www.w3.org/1999/xlink" width="40" zoomAndPan="magnify" viewBox="0 0 30 30.000001" height="40" preserveAspectRatio="xMidYMid meet" version="1.0"><defs><clipPath id="3f7cb00b35"><path d="M 0.484375 5 L 29.515625 5 L 29.515625 25.800781 L 0.484375 25.800781 Z M 0.484375 5 " clip-rule="nonzero"/></clipPath><clipPath id="bae39981f1"><path d="M 0.484375 5 L 29.515625 5 L 29.515625 26.203125 L 0.484375 26.203125 Z M 0.484375 5 " clip-rule="nonzero"/></clipPath></defs><g clip-path="url(#3f7cb00b35)"><path fill="#63916d" d="M 0.578125 11.300781 L 3.199219 13.921875 C 9.714844 7.40625 20.285156 7.40625 26.800781 13.921875 L 29.421875 11.300781 C 21.464844 3.339844 8.550781 3.339844 0.578125 11.300781 Z M 11.066406 21.789062 L 15 25.722656 L 18.933594 21.789062 C 16.769531 19.613281 13.242188 19.613281 11.066406 21.789062 Z M 5.820312 16.546875 L 8.445312 19.167969 C 12.0625 15.546875 17.9375 15.546875 21.554688 19.167969 L 24.179688 16.546875 C 19.117188 11.484375 10.894531 11.484375 5.820312 16.546875 Z M 5.820312 16.546875 " fill-opacity="1" fill-rule="nonzero"/></g><g clip-path="url(#bae39981f1)"><path fill="#63916d" d="M 0.578125 11.699219 L 3.199219 14.320312 C 9.714844 7.804688 20.285156 7.804688 26.800781 14.320312 L 29.421875 11.699219 C 21.464844 3.742188 8.550781 3.742188 0.578125 11.699219 Z M 11.066406 22.1875 L 15 26.121094 L 18.933594 22.1875 C 16.769531 20.011719 13.242188 20.011719 11.066406 22.1875 Z M 5.820312 16.945312 L 8.445312 19.566406 C 12.0625 15.949219 17.9375 15.949219 21.554688 19.566406 L 24.179688 16.945312 C 19.117188 11.882812 10.894531 11.882812 5.820312 16.945312 Z M 5.820312 16.945312 " fill-opacity="1" fill-rule="nonzero"/></g></svg>